G04*
G04 #@! TF.GenerationSoftware,Altium Limited,Altium Designer,24.1.2 (44)*
G04*
G04 Layer_Color=65535*
%FSTAX44Y44*%
%MOMM*%
G71*
G04*
G04 #@! TF.SameCoordinates,15096EBA-7BDD-494B-A6EB-00B69F680517*
G04*
G04*
G04 #@! TF.FilePolarity,Positive*
G04*
G01*
G75*
%ADD10C,0.2000*%
%ADD11C,0.1778*%
%ADD12C,0.1270*%
%ADD13C,0.2540*%
%ADD14C,0.3810*%
%ADD15C,0.6350*%
G36*
X0091555Y0015092D02*
X009092Y0014457D01*
X0091301D01*
Y0013822D01*
X0091809D01*
Y0014457D01*
X009219D01*
X0091555Y0015092D01*
D02*
G37*
G36*
X00427813Y00582593D02*
Y00600627D01*
X00418923Y00591737D01*
X00418669D01*
X00427813Y00582593D01*
D02*
G37*
G36*
X009046Y0082841D02*
X0091095Y0083476D01*
X0090714D01*
Y0084111D01*
X0090206D01*
Y0083476D01*
X0089825D01*
X009046Y0082841D01*
D02*
G37*
G36*
X01048425Y0015092D02*
X01042075Y0014457D01*
X01045885D01*
Y0013822D01*
X01050965D01*
Y0014457D01*
X01054775D01*
X01048425Y0015092D01*
D02*
G37*
G36*
X011813D02*
X0117495Y0014457D01*
X0117876D01*
Y0013822D01*
X0118384D01*
Y0014457D01*
X0118765D01*
X011813Y0015092D01*
D02*
G37*
G36*
X010396Y0082841D02*
X0104595Y0083476D01*
X0104214D01*
Y0084111D01*
X0103706D01*
Y0083476D01*
X0103325D01*
X010396Y0082841D01*
D02*
G37*
G36*
X011746D02*
X0118095Y0083476D01*
X0117714D01*
Y0084111D01*
X0117206D01*
Y0083476D01*
X0116825D01*
X011746Y0082841D01*
D02*
G37*
D10*
X012197Y002802D02*
G03*
X012197Y002802I-00001J0D01*
G01*
X00451Y0031D02*
G03*
X00451Y0031I-00001J0D01*
G01*
X00621Y0031D02*
G03*
X00621Y0031I-00001J0D01*
G01*
X007248Y00557282D02*
G03*
X007248Y00557282I-00001J0D01*
G01*
X01235Y003D02*
G03*
X01235Y003I-00001J0D01*
G01*
D11*
X00920083Y00838303D02*
G03*
X00918524Y00839828I00009917J00011697D01*
G01*
X00880318Y00811138D02*
G03*
X00880318Y00811138I-00001626J0D01*
G01*
X00931626Y00811392D02*
G03*
X00931626Y00811392I-00001626J0D01*
G01*
X00869102Y00838459D02*
G03*
X00867724Y00839828I00010098J00011541D01*
G01*
X01139102Y00838459D02*
G03*
X01137724Y00839828I00010098J00011541D01*
G01*
X01201626Y00811392D02*
G03*
X01201626Y00811392I-00001626J0D01*
G01*
X01150318Y00811138D02*
G03*
X01150318Y00811138I-00001626J0D01*
G01*
X01190083Y00838303D02*
G03*
X01188524Y00839828I00009917J00011697D01*
G01*
X00951048Y00140871D02*
G03*
X00952426Y00139502I-00010098J-00011541D01*
G01*
X00891776Y00167938D02*
G03*
X00891776Y00167938I-00001626J0D01*
G01*
X00943084Y00168192D02*
G03*
X00943084Y00168192I-00001626J0D01*
G01*
X00900067Y00141027D02*
G03*
X00901626Y00139502I-00009917J-00011697D01*
G01*
X01083923Y00140871D02*
G03*
X01085301Y00139502I-00010098J-00011541D01*
G01*
X01024651Y00167938D02*
G03*
X01024651Y00167938I-00001626J0D01*
G01*
X01075959Y00168192D02*
G03*
X01075959Y00168192I-00001626J0D01*
G01*
X01032942Y00141027D02*
G03*
X01034501Y00139502I-00009917J-00011697D01*
G01*
X01216798Y00140871D02*
G03*
X01218176Y00139502I-00010098J-00011541D01*
G01*
X01157526Y00167938D02*
G03*
X01157526Y00167938I-00001626J0D01*
G01*
X01208834Y00168192D02*
G03*
X01208834Y00168192I-00001626J0D01*
G01*
X01165817Y00141027D02*
G03*
X01167376Y00139502I-00009917J-00011697D01*
G01*
X01055083Y00838303D02*
G03*
X01053524Y00839828I00009917J00011697D01*
G01*
X01015318Y00811138D02*
G03*
X01015318Y00811138I-00001626J0D01*
G01*
X01066626Y00811392D02*
G03*
X01066626Y00811392I-00001626J0D01*
G01*
X01004102Y00838459D02*
G03*
X01002724Y00839828I00010098J00011541D01*
G01*
X00919078Y00839078D02*
X00940668Y00860668D01*
X008538Y008246D02*
X009554D01*
Y008373D02*
Y008754D01*
X008538Y00811646D02*
Y008754D01*
Y00811646D02*
X0085634D01*
Y00803772D02*
Y00811646D01*
X009554Y007992D02*
Y008373D01*
X00956924Y0080428D02*
Y0081063D01*
X00904092Y00831712D02*
Y00870066D01*
X00868405Y00839205D02*
X00889868Y00860668D01*
X008538Y008754D02*
X009554D01*
X008538Y0083984D02*
Y00870066D01*
Y007992D02*
X009554D01*
X008538Y0080301D02*
X0085634D01*
X008538Y007992D02*
Y0080301D01*
X011238Y007992D02*
Y0080301D01*
X0112634D01*
X011238Y007992D02*
X012254D01*
X011238Y0083984D02*
Y00870066D01*
Y008754D02*
X012254D01*
X01138405Y00839205D02*
X01159868Y00860668D01*
X01174092Y00831712D02*
Y00870066D01*
X01226924Y0080428D02*
Y0081063D01*
X012254Y007992D02*
Y008373D01*
X0112634Y00803772D02*
Y00811646D01*
X011238D02*
X0112634D01*
X011238D02*
Y008754D01*
X012254Y008373D02*
Y008754D01*
X011238Y008246D02*
X012254D01*
X01189078Y00839078D02*
X01210668Y00860668D01*
X0096635Y0017632D02*
Y0018013D01*
X0096381Y0017632D02*
X0096635D01*
X0086475Y0018013D02*
X0096635D01*
Y00109264D02*
Y0013949D01*
X0086475Y0010393D02*
X0096635D01*
X00930282Y00118662D02*
X00951745Y00140125D01*
X00916058Y00109264D02*
Y00147618D01*
X00863226Y001687D02*
Y0017505D01*
X0086475Y0014203D02*
Y0018013D01*
X0096381Y00167684D02*
Y00175558D01*
Y00167684D02*
X0096635D01*
Y0010393D02*
Y00167684D01*
X0086475Y0010393D02*
Y0014203D01*
Y0015473D02*
X0096635D01*
X00879482Y00118662D02*
X00901072Y00140252D01*
X01099225Y0017632D02*
Y0018013D01*
X01096685Y0017632D02*
X01099225D01*
X00997625Y0018013D02*
X01099225D01*
Y00109264D02*
Y0013949D01*
X00997625Y0010393D02*
X01099225D01*
X01063157Y00118662D02*
X0108462Y00140125D01*
X01048933Y00109264D02*
Y00147618D01*
X00996101Y001687D02*
Y0017505D01*
X00997625Y0014203D02*
Y0018013D01*
X01096685Y00167684D02*
Y00175558D01*
Y00167684D02*
X01099225D01*
Y0010393D02*
Y00167684D01*
X00997625Y0010393D02*
Y0014203D01*
Y0015473D02*
X01099225D01*
X01012357Y00118662D02*
X01033947Y00140252D01*
X012321Y0017632D02*
Y0018013D01*
X0122956Y0017632D02*
X012321D01*
X011305Y0018013D02*
X012321D01*
Y00109264D02*
Y0013949D01*
X011305Y0010393D02*
X012321D01*
X01196032Y00118662D02*
X01217495Y00140125D01*
X01181808Y00109264D02*
Y00147618D01*
X01128976Y001687D02*
Y0017505D01*
X011305Y0014203D02*
Y0018013D01*
X0122956Y00167684D02*
Y00175558D01*
Y00167684D02*
X012321D01*
Y0010393D02*
Y00167684D01*
X011305Y0010393D02*
Y0014203D01*
Y0015473D02*
X012321D01*
X01145232Y00118662D02*
X01166822Y00140252D01*
X01054078Y00839078D02*
X01075668Y00860668D01*
X009888Y008246D02*
X010904D01*
Y008373D02*
Y008754D01*
X009888Y00811646D02*
Y008754D01*
Y00811646D02*
X0099134D01*
Y00803772D02*
Y00811646D01*
X010904Y007992D02*
Y008373D01*
X01091924Y0080428D02*
Y0081063D01*
X01039092Y00831712D02*
Y00870066D01*
X01003405Y00839205D02*
X01024868Y00860668D01*
X009888Y008754D02*
X010904D01*
X009888Y0083984D02*
Y00870066D01*
Y007992D02*
X010904D01*
X009888Y0080301D02*
X0099134D01*
X009888Y007992D02*
Y0080301D01*
D12*
X009335Y007509D02*
X010324D01*
Y007599D01*
X011137D01*
Y007509D02*
Y007599D01*
Y007509D02*
X012125D01*
X00983Y002069D02*
Y002689D01*
Y002069D02*
X01163D01*
Y002689D01*
X012125D01*
X009335D02*
X00983D01*
X009335D02*
Y007509D01*
X012125Y002689D02*
Y007509D01*
X00525Y00095D02*
Y00305D01*
X00375Y00095D02*
X00525D01*
X00375D02*
Y00305D01*
X00525D01*
X00695Y00095D02*
Y00305D01*
X00545Y00095D02*
X00695D01*
X00545D02*
Y00305D01*
X00695D01*
X008889Y003484D02*
X009016D01*
X006984D02*
X007111D01*
X008889Y005516D02*
X009016D01*
X006984D02*
X007111D01*
X00735D02*
X00865D01*
X00735Y003484D02*
X00865D01*
X009016D02*
Y005516D01*
X006984Y003484D02*
Y005516D01*
X01282Y00275D02*
Y00525D01*
X01243999D02*
X01282D01*
X01243999Y00275D02*
Y00525D01*
Y00275D02*
X01282D01*
D13*
X007673Y002573D02*
Y002827D01*
X0074063Y002573D02*
X0081937D01*
X0074063Y002827D02*
X0081937D01*
Y002573D02*
Y002827D01*
X0074063Y002573D02*
Y002827D01*
X0071995Y0069785D02*
Y0074865D01*
X0069455D02*
X0071995D01*
X0069455Y0069785D02*
X0071995D01*
X0069455D02*
Y0074865D01*
Y0059135D02*
X0071995D01*
X0069455D02*
Y0064215D01*
X0071995D01*
Y0059135D02*
Y0064215D01*
X0088005Y0059135D02*
Y0064215D01*
X0090545D01*
X0088005Y0059135D02*
X0090545D01*
Y0064215D01*
X0088005Y0074865D02*
X0090545D01*
Y0069785D02*
Y0074865D01*
X0088005Y0069785D02*
Y0074865D01*
Y0069785D02*
X0090545D01*
X01227304Y00697617D02*
Y00684922D01*
X01229843Y00682383D01*
X01234922D01*
X01237461Y00684922D01*
Y00697617D01*
X01242539Y00695078D02*
X01245078Y00697617D01*
X01250157D01*
X01252696Y00695078D01*
Y00692539D01*
X01250157Y0069D01*
X01247617D01*
X01250157D01*
X01252696Y00687461D01*
Y00684922D01*
X01250157Y00682383D01*
X01245078D01*
X01242539Y00684922D01*
X00339843Y00157618D02*
Y00142382D01*
X00347461D01*
X0035Y00144922D01*
Y00147461D01*
X00347461Y0015D01*
X00339843D01*
X00347461D01*
X0035Y00152539D01*
Y00155078D01*
X00347461Y00157618D01*
X00339843D01*
X00355078Y00142382D02*
X00360157D01*
X00357618D01*
Y00157618D01*
X00355078Y00155078D01*
X00824192Y0067517D02*
X0083181Y00667552D01*
X00824192Y00659935D01*
X00808957Y0067517D02*
X00816575Y00667552D01*
X00808957Y00659935D01*
X0080134Y00667552D02*
X00791183D01*
X00786105D02*
X00775948D01*
X0077087D02*
X00760713D01*
X00389589Y00855269D02*
Y00842574D01*
X00392128Y00840034D01*
X00397207D01*
X00399746Y00842574D01*
Y00855269D01*
X00404824Y00840034D02*
X00409903D01*
X00407364D01*
Y00855269D01*
X00404824Y0085273D01*
X00347461Y00195078D02*
X00344922Y00197617D01*
X00339843D01*
X00337304Y00195078D01*
Y00192539D01*
X00339843Y0019D01*
X00344922D01*
X00347461Y00187461D01*
Y00184922D01*
X00344922Y00182383D01*
X00339843D01*
X00337304Y00184922D01*
X00362696Y00182383D02*
X00352539D01*
X00362696Y00192539D01*
Y00195078D01*
X00360157Y00197617D01*
X00355078D01*
X00352539Y00195078D01*
X00821669Y00574998D02*
Y00566668D01*
X00823335Y00565002D01*
X00826668D01*
X00828334Y00566668D01*
Y00574998D01*
X00836665Y00565002D02*
Y00574998D01*
X00831666Y0057D01*
X00838331D01*
X00731669Y00774998D02*
Y00766668D01*
X00733335Y00765002D01*
X00736668D01*
X00738334Y00766668D01*
Y00774998D01*
X00748331Y00765002D02*
X00741666D01*
X00748331Y00771666D01*
Y00773332D01*
X00746665Y00774998D01*
X00743332D01*
X00741666Y00773332D01*
X0035Y00235078D02*
X00347461Y00237617D01*
X00342383D01*
X00339843Y00235078D01*
Y00232539D01*
X00342383Y0023D01*
X00347461D01*
X0035Y00227461D01*
Y00224922D01*
X00347461Y00222383D01*
X00342383D01*
X00339843Y00224922D01*
X00355078Y00222383D02*
X00360157D01*
X00357618D01*
Y00237617D01*
X00355078Y00235078D01*
X00694922Y00852383D02*
Y00867617D01*
X00702539D01*
X00705078Y00865078D01*
Y0086D01*
X00702539Y00857461D01*
X00694922D01*
X01247304Y00777617D02*
Y00762383D01*
Y00767461D01*
X01257461Y00777617D01*
X01249843Y0077D01*
X01257461Y00762383D01*
X01272696Y00777617D02*
X01267617Y00775078D01*
X01262539Y0077D01*
Y00764922D01*
X01265078Y00762383D01*
X01270157D01*
X01272696Y00764922D01*
Y00767461D01*
X01270157Y0077D01*
X01262539D01*
X01247304Y00807617D02*
Y00792383D01*
Y00797461D01*
X01257461Y00807617D01*
X01249843Y008D01*
X01257461Y00792383D01*
X01272696Y00807617D02*
X01262539D01*
Y008D01*
X01267617Y00802539D01*
X01270157D01*
X01272696Y008D01*
Y00794922D01*
X01270157Y00792383D01*
X01265078D01*
X01262539Y00794922D01*
X01247304Y00837617D02*
Y00822383D01*
Y00827461D01*
X01257461Y00837617D01*
X01249843Y0083D01*
X01257461Y00822383D01*
X01270157D02*
Y00837617D01*
X01262539Y0083D01*
X01272696D01*
X00907304Y00087618D02*
Y00072382D01*
Y00077461D01*
X00917461Y00087618D01*
X00909843Y0008D01*
X00917461Y00072382D01*
X00922539Y00085078D02*
X00925078Y00087618D01*
X00930157D01*
X00932696Y00085078D01*
Y00082539D01*
X00930157Y0008D01*
X00927617D01*
X00930157D01*
X00932696Y00077461D01*
Y00074922D01*
X00930157Y00072382D01*
X00925078D01*
X00922539Y00074922D01*
X01037304Y00087618D02*
Y00072382D01*
Y00077461D01*
X01047461Y00087618D01*
X01039843Y0008D01*
X01047461Y00072382D01*
X01062696D02*
X01052539D01*
X01062696Y00082539D01*
Y00085078D01*
X01060157Y00087618D01*
X01055078D01*
X01052539Y00085078D01*
X01169843Y00087618D02*
Y00072382D01*
Y00077461D01*
X0118Y00087618D01*
X01172383Y0008D01*
X0118Y00072382D01*
X01185078D02*
X01190157D01*
X01187618D01*
Y00087618D01*
X01185078Y00085078D01*
X0126Y00557617D02*
X01254922D01*
X01257461D01*
Y00544922D01*
X01254922Y00542383D01*
X01252383D01*
X01249843Y00544922D01*
X01265078Y00542383D02*
X01270157D01*
X01267618D01*
Y00557617D01*
X01265078Y00555078D01*
X00349843Y00707617D02*
Y00692383D01*
Y007D01*
X0036D01*
Y00707617D01*
Y00692383D01*
X00365078D02*
X00370157D01*
X00367618D01*
Y00707617D01*
X00365078Y00705078D01*
D14*
X004Y0041254D02*
Y0042778D01*
Y0060304D02*
Y0061828D01*
X0033142D02*
X004D01*
X0033142Y0041254D02*
X004D01*
X0033142Y006005D02*
Y0061828D01*
Y006005D02*
X003619D01*
Y0058526D02*
Y006005D01*
X0033142Y0058526D02*
X003619D01*
X0033142Y004481D02*
Y0058526D01*
Y004481D02*
X003619D01*
Y0043286D02*
Y004481D01*
X0033142Y0043286D02*
X003619D01*
X0033142Y0041254D02*
Y0043286D01*
D15*
X007198Y008074D02*
Y008646D01*
X007948D01*
Y008074D02*
Y008646D01*
X007198Y008074D02*
X007948D01*
M02*
