M48
;Layer_Color=9474304
;FILE_FORMAT=4:4
METRIC,LZ
;TYPE=PLATED
T01F00S00C0.3000
T02F00S00C0.7112
T03F00S00C0.8000
T04F00S00C0.9000
T05F00S00C0.9140
T07F00S00C1.0160
T08F00S00C1.0200
T09F00S00C1.2700
T10F00S00C1.3200
%
T01
X012Y004
X0125
X013
X0135
X014
X0145
X015
X0155
X01525Y0045
X01475
X0145Y005
X014
X0135
X013
X01325Y0055
X0135Y006
X014
X0145
X015
X01475Y0065
X015Y007
X014
X0135
X01375Y0075
X01425
X01325
X012Y007
X01225Y0055
Y0045
X01325
X01475Y0055
X0155Y005
X01175Y0055
X01125
X01075
X011Y005
X0105
X01075Y0045
X01125
X01175
X01025
X00975
X00925
X00875
X00825
X0085Y004
X009
X0095
X01
X0105
X00975Y0055
X00925
X00875
X00825
X0085Y006
X008
X00825Y0065
X00875
X00925
X0095Y007
X00975Y0075
X01125
X01175
X0115Y007
X011
X0095Y006
X0085Y007
X00825Y0075
X008Y004
X00775Y0045
Y0055
X007Y005
X00725Y0075
X007Y01
X00725Y0105
X00775
X0075Y011
X007
X00725Y0115
X00825
X00875
X009Y011
X0095
X01
X01025Y0115
X01075
X01125
X01175
X0115Y011
X011
X01175Y0105
Y0095
X0115Y009
X01175Y0085
X01125
X0115Y008
X01075Y0095
X01025
X00975
X01Y01
X0095
X009
X0085
X008
Y011
X00875Y0105
X00925
X00975
X01025
X00975Y0115
X0095Y009
X009
X0085
X008
X00825Y0085
X00875
X00925
X00975
X009Y008
X0085
X012Y009
X0135
X014
X01425Y0095
X01475
X015Y01
X0145
X01475Y0105
X015Y011
X01525Y0115
X01575
Y0105
Y0095
Y0085
X01475
X01425
X01375
X01325
X0135Y008
X014
X0145
X015
X01375Y0095
X01325
Y0105
X01375
X01325Y0115
X016Y011
X01625Y0105
X016Y01
Y009
T02
X0122Y0063
X0076Y0094
X0147Y0108
X0152
T03
X010946Y0113
X0112
T04
X0161Y006
Y00625
Y0065
Y00675
Y007
Y00725
Y0075
Y00775
X0101Y0065
X0079156Y00650508
X00793084Y01166382
X01009746Y01167652
X0105725Y0103595
Y0101055
Y0092945
Y0090405
X0124275
Y0092945
Y0101055
Y0103595
X0161Y008
T05
X011046Y0057
X0113
X011554
T07
X0075Y007392
Y007646
Y0079
Y008154
Y008408
Y008662
Y008916
T08
X01296Y005814
Y006068
Y006322
Y006576
Y00683
Y007084
Y007338
Y007592
Y007846
X0155
Y007592
Y007338
Y007084
Y00683
Y006576
Y006322
Y006068
Y005814
Y0081
Y008354
Y008608
Y008862
Y009116
Y00937
Y009624
Y009878
Y010132
Y010386
X01296
Y010132
Y009878
Y009624
Y00937
Y009116
Y008862
Y008608
Y008354
Y0081
T09
X0124015Y0042933
X0129095
X01373025
X01423825
X015059
X015567
X0155Y0115
X014992
X01415
X013642
X0128
X012292
T10
X012262Y006611
Y006865
Y007119
Y007373
Y007627
Y007881
X010738
Y007627
Y007373
Y007119
Y006865
Y006611
Y008135
Y008389
X012262
Y008135
M30
