G04*
G04 #@! TF.GenerationSoftware,Altium Limited,Altium Designer,24.1.2 (44)*
G04*
G04 Layer_Color=255*
%FSTAX44Y44*%
%MOMM*%
G71*
G04*
G04 #@! TF.SameCoordinates,15096EBA-7BDD-494B-A6EB-00B69F680517*
G04*
G04*
G04 #@! TF.FilePolarity,Positive*
G04*
G01*
G75*
%ADD36C,1.5300*%
%ADD37R,1.5300X1.5300*%
%ADD38O,1.6510X1.9050*%
%ADD39O,6.6200X1.7200*%
%ADD40O,1.5240X2.0000*%
%ADD41R,2.5400X1.7780*%
%ADD42O,2.5400X1.7780*%
%ADD43C,1.9800*%
%ADD44C,1.5000*%
%ADD45R,1.6000X1.6000*%
%ADD46C,1.6000*%
%ADD47C,2.7940*%
%ADD48C,1.4080*%
%ADD49R,1.4080X1.4080*%
D36*
X00946Y002814D02*
D03*
Y003068D02*
D03*
Y003322D02*
D03*
Y003576D02*
D03*
Y00383D02*
D03*
Y004084D02*
D03*
Y004338D02*
D03*
Y004592D02*
D03*
Y004846D02*
D03*
Y0051D02*
D03*
Y005354D02*
D03*
Y005608D02*
D03*
Y005862D02*
D03*
Y006116D02*
D03*
Y00637D02*
D03*
Y006624D02*
D03*
Y006878D02*
D03*
Y007132D02*
D03*
Y007386D02*
D03*
X012D02*
D03*
Y007132D02*
D03*
Y006878D02*
D03*
Y006624D02*
D03*
Y00637D02*
D03*
Y006116D02*
D03*
Y005862D02*
D03*
Y005608D02*
D03*
Y005354D02*
D03*
Y0051D02*
D03*
Y004846D02*
D03*
Y004592D02*
D03*
Y004338D02*
D03*
Y004084D02*
D03*
Y00383D02*
D03*
Y003576D02*
D03*
Y003322D02*
D03*
Y003068D02*
D03*
D37*
Y002814D02*
D03*
D38*
X007546Y0027D02*
D03*
X008054D02*
D03*
X0078D02*
D03*
D39*
X0045Y002D02*
D03*
Y00271D02*
D03*
X0062Y002D02*
D03*
Y00271D02*
D03*
D40*
X0044156Y00350508D02*
D03*
X0066Y0035D02*
D03*
X00659746Y00867652D02*
D03*
X00443084Y00866382D02*
D03*
D41*
X004Y005916D02*
D03*
D42*
Y005662D02*
D03*
Y005408D02*
D03*
Y005154D02*
D03*
Y0049D02*
D03*
Y004646D02*
D03*
Y004392D02*
D03*
D43*
X008762Y003611D02*
D03*
Y003865D02*
D03*
Y004119D02*
D03*
Y004373D02*
D03*
Y004627D02*
D03*
Y004881D02*
D03*
Y005135D02*
D03*
Y005389D02*
D03*
X007238D02*
D03*
Y005135D02*
D03*
Y004881D02*
D03*
Y004627D02*
D03*
Y004373D02*
D03*
Y004119D02*
D03*
Y003865D02*
D03*
Y003611D02*
D03*
D44*
X0070725Y0073595D02*
D03*
Y0071055D02*
D03*
Y0060405D02*
D03*
Y0062945D02*
D03*
X0089275Y0060405D02*
D03*
Y0062945D02*
D03*
Y0073595D02*
D03*
Y0071055D02*
D03*
D45*
X007446Y0083D02*
D03*
D46*
X0077D02*
D03*
D47*
X0093Y0085D02*
D03*
X008792D02*
D03*
X011492D02*
D03*
X012D02*
D03*
X0094095Y0012933D02*
D03*
X0089015D02*
D03*
X01073825D02*
D03*
X01023025D02*
D03*
X012067D02*
D03*
X011559D02*
D03*
X01065Y0085D02*
D03*
X010142D02*
D03*
D48*
X0126Y005D02*
D03*
Y00475D02*
D03*
Y0045D02*
D03*
Y00425D02*
D03*
Y004D02*
D03*
Y00375D02*
D03*
Y0035D02*
D03*
Y00325D02*
D03*
D49*
Y003D02*
D03*
M02*
