G04*
G04 #@! TF.GenerationSoftware,Altium Limited,Altium Designer,24.1.2 (44)*
G04*
G04 Layer_Physical_Order=2*
G04 Layer_Color=16711680*
%FSTAX44Y44*%
%MOMM*%
G71*
G04*
G04 #@! TF.SameCoordinates,15096EBA-7BDD-494B-A6EB-00B69F680517*
G04*
G04*
G04 #@! TF.FilePolarity,Positive*
G04*
G01*
G75*
%ADD33C,0.5000*%
%ADD34C,1.0000*%
%ADD35C,0.8000*%
%ADD36C,1.5300*%
%ADD37R,1.5300X1.5300*%
%ADD38O,1.6510X1.9050*%
%ADD39O,6.6200X1.7200*%
%ADD40O,1.5240X2.0000*%
%ADD41R,2.5400X1.7780*%
%ADD42O,2.5400X1.7780*%
%ADD43C,1.9800*%
%ADD44C,1.5000*%
%ADD45R,1.6000X1.6000*%
%ADD46C,1.6000*%
%ADD47C,2.7940*%
%ADD48C,1.4080*%
%ADD49R,1.4080X1.4080*%
%ADD50C,0.6000*%
%ADD51C,1.2700*%
%ADD52C,2.5000*%
G36*
X013Y0005D02*
X0032D01*
Y009D01*
X013D01*
Y0005D01*
D02*
G37*
%LPC*%
G36*
X00659746Y00880744D02*
X00656974Y00880379D01*
X0065439Y00879309D01*
X00652172Y00877606D01*
X00650469Y00875388D01*
X00649399Y00872804D01*
X00649034Y00870032D01*
Y00865272D01*
X00649399Y008625D01*
X00650469Y00859916D01*
X00652172Y00857698D01*
X0065439Y00855995D01*
X00656974Y00854925D01*
X00659746Y0085456D01*
X00662518Y00854925D01*
X00665102Y00855995D01*
X0066732Y00857698D01*
X00669023Y00859916D01*
X00670093Y008625D01*
X00670458Y00865272D01*
Y00870032D01*
X00670093Y00872804D01*
X00669023Y00875388D01*
X0066732Y00877606D01*
X00665102Y00879309D01*
X00662518Y00880379D01*
X00659746Y00880744D01*
D02*
G37*
G36*
X01150826Y0086651D02*
X0115047D01*
Y0085127D01*
X0116571D01*
Y00851626D01*
X01165076Y00854816D01*
X01163831Y00857821D01*
X01162024Y00860525D01*
X01159725Y00862824D01*
X0115702Y00864631D01*
X01154016Y00865876D01*
X01150826Y0086651D01*
D02*
G37*
G36*
X0122627Y0085547D02*
Y0085127D01*
X0123047D01*
X01229697Y00853138D01*
X01228138Y00854697D01*
X0122627Y0085547D01*
D02*
G37*
G36*
X0122373D02*
X01221862Y00854697D01*
X01220303Y00853138D01*
X0121953Y0085127D01*
X0122373D01*
Y0085547D01*
D02*
G37*
G36*
X0117627D02*
Y0085127D01*
X0118047D01*
X01179697Y00853138D01*
X01178138Y00854697D01*
X0117627Y0085547D01*
D02*
G37*
G36*
X0117373D02*
X01171862Y00854697D01*
X01170303Y00853138D01*
X0116953Y0085127D01*
X0117373D01*
Y0085547D01*
D02*
G37*
G36*
X0097627D02*
Y0085127D01*
X0098047D01*
X00979697Y00853138D01*
X00978138Y00854697D01*
X0097627Y0085547D01*
D02*
G37*
G36*
X0097373D02*
X00971862Y00854697D01*
X00970303Y00853138D01*
X0096953Y0085127D01*
X0097373D01*
Y0085547D01*
D02*
G37*
G36*
X0082627D02*
Y0085127D01*
X0083047D01*
X00829697Y00853138D01*
X00828138Y00854697D01*
X0082627Y0085547D01*
D02*
G37*
G36*
X0082373D02*
X00821862Y00854697D01*
X00820303Y00853138D01*
X0081953Y0085127D01*
X0082373D01*
Y0085547D01*
D02*
G37*
G36*
X0077627D02*
Y0085127D01*
X0078047D01*
X00779697Y00853138D01*
X00778138Y00854697D01*
X0077627Y0085547D01*
D02*
G37*
G36*
X0077373D02*
X00771862Y00854697D01*
X00770303Y00853138D01*
X0076953Y0085127D01*
X0077373D01*
Y0085547D01*
D02*
G37*
G36*
X0072627D02*
Y0085127D01*
X0073047D01*
X00729697Y00853138D01*
X00728138Y00854697D01*
X0072627Y0085547D01*
D02*
G37*
G36*
X0072373D02*
X00721862Y00854697D01*
X00720303Y00853138D01*
X0071953Y0085127D01*
X0072373D01*
Y0085547D01*
D02*
G37*
G36*
X0067627D02*
Y0085127D01*
X0068047D01*
X00679697Y00853138D01*
X00678138Y00854697D01*
X0067627Y0085547D01*
D02*
G37*
G36*
X0067373D02*
X00671862Y00854697D01*
X00670303Y00853138D01*
X0066953Y0085127D01*
X0067373D01*
Y0085547D01*
D02*
G37*
G36*
X0062627D02*
Y0085127D01*
X0063047D01*
X00629697Y00853138D01*
X00628138Y00854697D01*
X0062627Y0085547D01*
D02*
G37*
G36*
X0062373D02*
X00621862Y00854697D01*
X00620303Y00853138D01*
X0061953Y0085127D01*
X0062373D01*
Y0085547D01*
D02*
G37*
G36*
X0052627D02*
Y0085127D01*
X0053047D01*
X00529697Y00853138D01*
X00528138Y00854697D01*
X0052627Y0085547D01*
D02*
G37*
G36*
X0052373D02*
X00521862Y00854697D01*
X00520303Y00853138D01*
X0051953Y0085127D01*
X0052373D01*
Y0085547D01*
D02*
G37*
G36*
X0047627D02*
Y0085127D01*
X0048047D01*
X00479697Y00853138D01*
X00478138Y00854697D01*
X0047627Y0085547D01*
D02*
G37*
G36*
X0047373D02*
X00471862Y00854697D01*
X00470303Y00853138D01*
X0046953Y0085127D01*
X0047373D01*
Y0085547D01*
D02*
G37*
G36*
X0037627D02*
Y0085127D01*
X0038047D01*
X00379697Y00853138D01*
X00378138Y00854697D01*
X0037627Y0085547D01*
D02*
G37*
G36*
X0037373D02*
X00371862Y00854697D01*
X00370303Y00853138D01*
X0036953Y0085127D01*
X0037373D01*
Y0085547D01*
D02*
G37*
G36*
X00351625Y00889559D02*
X00348375D01*
X00348079Y008895D01*
X00347778D01*
X0034459Y00888866D01*
X00344312Y00888751D01*
X00344017Y00888692D01*
X00341014Y00887448D01*
X00340763Y00887281D01*
X00340485Y00887165D01*
X00337783Y0088536D01*
X0033757Y00885147D01*
X00337319Y00884979D01*
X00335021Y00882681D01*
X00334853Y0088243D01*
X0033464Y00882217D01*
X00332835Y00879515D01*
X00332719Y00879237D01*
X00332552Y00878986D01*
X00331308Y00875984D01*
X00331249Y00875688D01*
X00331134Y0087541D01*
X003305Y00872222D01*
Y00871921D01*
X00330441Y00871625D01*
Y00868375D01*
X003305Y00868079D01*
Y00867778D01*
X00331134Y0086459D01*
X00331249Y00864312D01*
X00331308Y00864017D01*
X00332552Y00861014D01*
X00332719Y00860763D01*
X00332835Y00860485D01*
X0033464Y00857783D01*
X00334853Y0085757D01*
X00335021Y00857319D01*
X00337319Y00855021D01*
X0033757Y00854853D01*
X00337783Y0085464D01*
X00340485Y00852835D01*
X00340763Y00852719D01*
X00341014Y00852552D01*
X00344017Y00851308D01*
X00344312Y00851249D01*
X0034459Y00851134D01*
X00347778Y008505D01*
X00348079D01*
X00348375Y00850441D01*
X00351625D01*
X00351921Y008505D01*
X00352222D01*
X0035541Y00851134D01*
X00355688Y00851249D01*
X00355983Y00851308D01*
X00358986Y00852552D01*
X00359237Y00852719D01*
X00359515Y00852835D01*
X00362217Y0085464D01*
X0036243Y00854853D01*
X00362681Y00855021D01*
X00364979Y00857319D01*
X00365147Y0085757D01*
X0036536Y00857783D01*
X00367165Y00860485D01*
X00367281Y00860763D01*
X00367448Y00861014D01*
X00368692Y00864017D01*
X00368751Y00864312D01*
X00368866Y0086459D01*
X003695Y00867778D01*
Y00868079D01*
X00369559Y00868375D01*
Y00871625D01*
X003695Y00871921D01*
Y00872222D01*
X00368866Y0087541D01*
X00368751Y00875688D01*
X00368692Y00875983D01*
X00367448Y00878986D01*
X00367281Y00879237D01*
X00367165Y00879515D01*
X0036536Y00882217D01*
X00365147Y0088243D01*
X00364979Y00882681D01*
X00362681Y00884979D01*
X0036243Y00885147D01*
X00362217Y0088536D01*
X00359515Y00887165D01*
X00359237Y00887281D01*
X00358986Y00887448D01*
X00355983Y00888692D01*
X00355688Y00888751D01*
X0035541Y00888866D01*
X00352222Y008895D01*
X00351921D01*
X00351625Y00889559D01*
D02*
G37*
G36*
X01271625Y00889559D02*
X01268375D01*
X01268079Y008895D01*
X01267778D01*
X0126459Y00888866D01*
X01264312Y00888751D01*
X01264017Y00888692D01*
X01261014Y00887448D01*
X01260763Y00887281D01*
X01260485Y00887165D01*
X01257783Y0088536D01*
X0125757Y00885147D01*
X01257319Y00884979D01*
X01255021Y00882681D01*
X01254853Y0088243D01*
X0125464Y00882217D01*
X01252835Y00879515D01*
X01252719Y00879237D01*
X01252552Y00878986D01*
X01251308Y00875983D01*
X01251249Y00875688D01*
X01251134Y0087541D01*
X012505Y00872222D01*
Y00871921D01*
X01250441Y00871625D01*
Y00868375D01*
X012505Y00868079D01*
Y00867778D01*
X01251134Y0086459D01*
X01251249Y00864312D01*
X01251308Y00864017D01*
X01252552Y00861014D01*
X01252719Y00860763D01*
X01252835Y00860485D01*
X0125464Y00857783D01*
X01254853Y0085757D01*
X01255021Y00857319D01*
X01257319Y00855021D01*
X0125757Y00854853D01*
X01257783Y0085464D01*
X01260485Y00852835D01*
X01260763Y00852719D01*
X01261014Y00852552D01*
X01264016Y00851308D01*
X01264312Y00851249D01*
X0126459Y00851134D01*
X01267778Y008505D01*
X01268079D01*
X01268375Y00850441D01*
X01271625D01*
X01271921Y008505D01*
X01272222D01*
X0127541Y00851134D01*
X01275688Y00851249D01*
X01275983Y00851308D01*
X01278986Y00852552D01*
X01279237Y00852719D01*
X01279515Y00852835D01*
X01282218Y0085464D01*
X01282431Y00854853D01*
X01282681Y00855021D01*
X01284979Y00857319D01*
X01285147Y0085757D01*
X0128536Y00857783D01*
X01287165Y00860485D01*
X01287281Y00860763D01*
X01287448Y00861014D01*
X01288692Y00864017D01*
X01288751Y00864312D01*
X01288866Y0086459D01*
X012895Y00867778D01*
Y00868079D01*
X01289559Y00868375D01*
Y00871625D01*
X012895Y00871921D01*
Y00872222D01*
X01288866Y0087541D01*
X01288751Y00875688D01*
X01288692Y00875983D01*
X01287448Y00878986D01*
X01287281Y00879237D01*
X01287165Y00879515D01*
X0128536Y00882217D01*
X01285147Y0088243D01*
X01284979Y00882681D01*
X01282681Y00884979D01*
X01282431Y00885147D01*
X01282218Y0088536D01*
X01279515Y00887165D01*
X01279237Y00887281D01*
X01278986Y00887448D01*
X01275983Y00888692D01*
X01275688Y00888751D01*
X0127541Y00888866D01*
X01272222Y008895D01*
X01271921D01*
X01271625Y00889559D01*
D02*
G37*
G36*
X0123047Y0084873D02*
X0122627D01*
Y0084453D01*
X01228138Y00845303D01*
X01229697Y00846862D01*
X0123047Y0084873D01*
D02*
G37*
G36*
X0122373D02*
X0121953D01*
X01220303Y00846862D01*
X01221862Y00845303D01*
X0122373Y0084453D01*
Y0084873D01*
D02*
G37*
G36*
X0118047D02*
X0117627D01*
Y0084453D01*
X01178138Y00845303D01*
X01179697Y00846862D01*
X0118047Y0084873D01*
D02*
G37*
G36*
X0117373D02*
X0116953D01*
X01170303Y00846862D01*
X01171862Y00845303D01*
X0117373Y0084453D01*
Y0084873D01*
D02*
G37*
G36*
X0098047D02*
X0097627D01*
Y0084453D01*
X00978138Y00845303D01*
X00979697Y00846862D01*
X0098047Y0084873D01*
D02*
G37*
G36*
X0097373D02*
X0096953D01*
X00970303Y00846862D01*
X00971862Y00845303D01*
X0097373Y0084453D01*
Y0084873D01*
D02*
G37*
G36*
X0083047D02*
X0082627D01*
Y0084453D01*
X00828138Y00845303D01*
X00829697Y00846862D01*
X0083047Y0084873D01*
D02*
G37*
G36*
X0082373D02*
X0081953D01*
X00820303Y00846862D01*
X00821862Y00845303D01*
X0082373Y0084453D01*
Y0084873D01*
D02*
G37*
G36*
X0078047D02*
X0077627D01*
Y0084453D01*
X00778138Y00845303D01*
X00779697Y00846862D01*
X0078047Y0084873D01*
D02*
G37*
G36*
X0077373D02*
X0076953D01*
X00770303Y00846862D01*
X00771862Y00845303D01*
X0077373Y0084453D01*
Y0084873D01*
D02*
G37*
G36*
X0038047D02*
X0037627D01*
Y0084453D01*
X00378138Y00845303D01*
X00379697Y00846862D01*
X0038047Y0084873D01*
D02*
G37*
G36*
X0037373D02*
X0036953D01*
X00370303Y00846862D01*
X00371862Y00845303D01*
X0037373Y0084453D01*
Y0084873D01*
D02*
G37*
G36*
X01201671Y0086697D02*
X01198329D01*
X0119505Y00866318D01*
X01191962Y00865039D01*
X01189182Y00863182D01*
X01186818Y00860818D01*
X01184961Y00858038D01*
X01183682Y0085495D01*
X0118303Y00851672D01*
Y00848329D01*
X01183682Y0084505D01*
X01184961Y00841962D01*
X01186818Y00839183D01*
X01189182Y00836819D01*
X01191962Y00834962D01*
X0119505Y00833682D01*
X01198329Y0083303D01*
X01201671D01*
X0120495Y00833682D01*
X01208038Y00834962D01*
X01210818Y00836819D01*
X01213181Y00839183D01*
X01215039Y00841962D01*
X01216318Y0084505D01*
X0121697Y00848329D01*
Y00851672D01*
X01216318Y0085495D01*
X01215039Y00858038D01*
X01213181Y00860818D01*
X01210818Y00863182D01*
X01208038Y00865039D01*
X0120495Y00866318D01*
X01201671Y0086697D01*
D02*
G37*
G36*
X0125127Y0080547D02*
Y0080127D01*
X0125547D01*
X01254697Y00803138D01*
X01253138Y00804697D01*
X0125127Y0080547D01*
D02*
G37*
G36*
X0124873D02*
X01246862Y00804697D01*
X01245303Y00803138D01*
X0124453Y0080127D01*
X0124873D01*
Y0080547D01*
D02*
G37*
G36*
X0115127D02*
Y0080127D01*
X0115547D01*
X01154697Y00803138D01*
X01153138Y00804697D01*
X0115127Y0080547D01*
D02*
G37*
G36*
X0114873D02*
X01146862Y00804697D01*
X01145303Y00803138D01*
X0114453Y0080127D01*
X0114873D01*
Y0080547D01*
D02*
G37*
G36*
X0080127D02*
Y0080127D01*
X0080547D01*
X00804697Y00803138D01*
X00803138Y00804697D01*
X0080127Y0080547D01*
D02*
G37*
G36*
X0079873D02*
X00796862Y00804697D01*
X00795303Y00803138D01*
X0079453Y0080127D01*
X0079873D01*
Y0080547D01*
D02*
G37*
G36*
X0075127D02*
Y0080127D01*
X0075547D01*
X00754697Y00803138D01*
X00753138Y00804697D01*
X0075127Y0080547D01*
D02*
G37*
G36*
X0074873D02*
X00746862Y00804697D01*
X00745303Y00803138D01*
X0074453Y0080127D01*
X0074873D01*
Y0080547D01*
D02*
G37*
G36*
X0065127D02*
Y0080127D01*
X0065547D01*
X00654697Y00803138D01*
X00653138Y00804697D01*
X0065127Y0080547D01*
D02*
G37*
G36*
X0064873D02*
X00646862Y00804697D01*
X00645303Y00803138D01*
X0064453Y0080127D01*
X0064873D01*
Y0080547D01*
D02*
G37*
G36*
X0060127D02*
Y0080127D01*
X0060547D01*
X00604697Y00803138D01*
X00603138Y00804697D01*
X0060127Y0080547D01*
D02*
G37*
G36*
X0059873D02*
X00596862Y00804697D01*
X00595303Y00803138D01*
X0059453Y0080127D01*
X0059873D01*
Y0080547D01*
D02*
G37*
G36*
X0055127D02*
Y0080127D01*
X0055547D01*
X00554697Y00803138D01*
X00553138Y00804697D01*
X0055127Y0080547D01*
D02*
G37*
G36*
X0054873D02*
X00546862Y00804697D01*
X00545303Y00803138D01*
X0054453Y0080127D01*
X0054873D01*
Y0080547D01*
D02*
G37*
G36*
X0045127D02*
Y0080127D01*
X0045547D01*
X00454697Y00803138D01*
X00453138Y00804697D01*
X0045127Y0080547D01*
D02*
G37*
G36*
X0044873D02*
X00446862Y00804697D01*
X00445303Y00803138D01*
X0044453Y0080127D01*
X0044873D01*
Y0080547D01*
D02*
G37*
G36*
X0040127D02*
Y0080127D01*
X0040547D01*
X00404697Y00803138D01*
X00403138Y00804697D01*
X0040127Y0080547D01*
D02*
G37*
G36*
X0039873D02*
X00396862Y00804697D01*
X00395303Y00803138D01*
X0039453Y0080127D01*
X0039873D01*
Y0080547D01*
D02*
G37*
G36*
X0035127D02*
Y0080127D01*
X0035547D01*
X00354697Y00803138D01*
X00353138Y00804697D01*
X0035127Y0080547D01*
D02*
G37*
G36*
X0034873D02*
X00346862Y00804697D01*
X00345303Y00803138D01*
X0034453Y0080127D01*
X0034873D01*
Y0080547D01*
D02*
G37*
G36*
X0125547Y0079873D02*
X0125127D01*
Y0079453D01*
X01253138Y00795303D01*
X01254697Y00796862D01*
X0125547Y0079873D01*
D02*
G37*
G36*
X0124873D02*
X0124453D01*
X01245303Y00796862D01*
X01246862Y00795303D01*
X0124873Y0079453D01*
Y0079873D01*
D02*
G37*
G36*
X0115547D02*
X0115127D01*
Y0079453D01*
X01153138Y00795303D01*
X01154697Y00796862D01*
X0115547Y0079873D01*
D02*
G37*
G36*
X0114873D02*
X0114453D01*
X01145303Y00796862D01*
X01146862Y00795303D01*
X0114873Y0079453D01*
Y0079873D01*
D02*
G37*
G36*
X0080547D02*
X0080127D01*
Y0079453D01*
X00803138Y00795303D01*
X00804697Y00796862D01*
X0080547Y0079873D01*
D02*
G37*
G36*
X0079873D02*
X0079453D01*
X00795303Y00796862D01*
X00796862Y00795303D01*
X0079873Y0079453D01*
Y0079873D01*
D02*
G37*
G36*
X0075547D02*
X0075127D01*
Y0079453D01*
X00753138Y00795303D01*
X00754697Y00796862D01*
X0075547Y0079873D01*
D02*
G37*
G36*
X0074873D02*
X0074453D01*
X00745303Y00796862D01*
X00746862Y00795303D01*
X0074873Y0079453D01*
Y0079873D01*
D02*
G37*
G36*
X0065547D02*
X0065127D01*
Y0079453D01*
X00653138Y00795303D01*
X00654697Y00796862D01*
X0065547Y0079873D01*
D02*
G37*
G36*
X0064873D02*
X0064453D01*
X00645303Y00796862D01*
X00646862Y00795303D01*
X0064873Y0079453D01*
Y0079873D01*
D02*
G37*
G36*
X0060547D02*
X0060127D01*
Y0079453D01*
X00603138Y00795303D01*
X00604697Y00796862D01*
X0060547Y0079873D01*
D02*
G37*
G36*
X0059873D02*
X0059453D01*
X00595303Y00796862D01*
X00596862Y00795303D01*
X0059873Y0079453D01*
Y0079873D01*
D02*
G37*
G36*
X0055547D02*
X0055127D01*
Y0079453D01*
X00553138Y00795303D01*
X00554697Y00796862D01*
X0055547Y0079873D01*
D02*
G37*
G36*
X0054873D02*
X0054453D01*
X00545303Y00796862D01*
X00546862Y00795303D01*
X0054873Y0079453D01*
Y0079873D01*
D02*
G37*
G36*
X0045547D02*
X0045127D01*
Y0079453D01*
X00453138Y00795303D01*
X00454697Y00796862D01*
X0045547Y0079873D01*
D02*
G37*
G36*
X0044873D02*
X0044453D01*
X00445303Y00796862D01*
X00446862Y00795303D01*
X0044873Y0079453D01*
Y0079873D01*
D02*
G37*
G36*
X0040547D02*
X0040127D01*
Y0079453D01*
X00403138Y00795303D01*
X00404697Y00796862D01*
X0040547Y0079873D01*
D02*
G37*
G36*
X0039873D02*
X0039453D01*
X00395303Y00796862D01*
X00396862Y00795303D01*
X0039873Y0079453D01*
Y0079873D01*
D02*
G37*
G36*
X0035547D02*
X0035127D01*
Y0079453D01*
X00353138Y00795303D01*
X00354697Y00796862D01*
X0035547Y0079873D01*
D02*
G37*
G36*
X0034873D02*
X0034453D01*
X00345303Y00796862D01*
X00346862Y00795303D01*
X0034873Y0079453D01*
Y0079873D01*
D02*
G37*
G36*
X0127627Y0075547D02*
Y0075127D01*
X0128047D01*
X01279697Y00753138D01*
X01278138Y00754697D01*
X0127627Y0075547D01*
D02*
G37*
G36*
X0127373D02*
X01271862Y00754697D01*
X01270303Y00753138D01*
X0126953Y0075127D01*
X0127373D01*
Y0075547D01*
D02*
G37*
G36*
X0122627D02*
Y0075127D01*
X0123047D01*
X01229697Y00753138D01*
X01228138Y00754697D01*
X0122627Y0075547D01*
D02*
G37*
G36*
X0122373D02*
X01221862Y00754697D01*
X01220303Y00753138D01*
X0121953Y0075127D01*
X0122373D01*
Y0075547D01*
D02*
G37*
G36*
X0112627D02*
Y0075127D01*
X0113047D01*
X01129697Y00753138D01*
X01128138Y00754697D01*
X0112627Y0075547D01*
D02*
G37*
G36*
X0112373D02*
X01121862Y00754697D01*
X01120303Y00753138D01*
X0111953Y0075127D01*
X0112373D01*
Y0075547D01*
D02*
G37*
G36*
X0102627D02*
Y0075127D01*
X0103047D01*
X01029697Y00753138D01*
X01028138Y00754697D01*
X0102627Y0075547D01*
D02*
G37*
G36*
X0102373D02*
X01021862Y00754697D01*
X01020303Y00753138D01*
X0101953Y0075127D01*
X0102373D01*
Y0075547D01*
D02*
G37*
G36*
X0097627D02*
Y0075127D01*
X0098047D01*
X00979697Y00753138D01*
X00978138Y00754697D01*
X0097627Y0075547D01*
D02*
G37*
G36*
X0097373D02*
X00971862Y00754697D01*
X00970303Y00753138D01*
X0096953Y0075127D01*
X0097373D01*
Y0075547D01*
D02*
G37*
G36*
X0082627D02*
Y0075127D01*
X0083047D01*
X00829697Y00753138D01*
X00828138Y00754697D01*
X0082627Y0075547D01*
D02*
G37*
G36*
X0082373D02*
X00821862Y00754697D01*
X00820303Y00753138D01*
X0081953Y0075127D01*
X0082373D01*
Y0075547D01*
D02*
G37*
G36*
X0067627D02*
Y0075127D01*
X0068047D01*
X00679697Y00753138D01*
X00678138Y00754697D01*
X0067627Y0075547D01*
D02*
G37*
G36*
X0067373D02*
X00671862Y00754697D01*
X00670303Y00753138D01*
X0066953Y0075127D01*
X0067373D01*
Y0075547D01*
D02*
G37*
G36*
X0062627D02*
Y0075127D01*
X0063047D01*
X00629697Y00753138D01*
X00628138Y00754697D01*
X0062627Y0075547D01*
D02*
G37*
G36*
X0062373D02*
X00621862Y00754697D01*
X00620303Y00753138D01*
X0061953Y0075127D01*
X0062373D01*
Y0075547D01*
D02*
G37*
G36*
X0057627D02*
Y0075127D01*
X0058047D01*
X00579697Y00753138D01*
X00578138Y00754697D01*
X0057627Y0075547D01*
D02*
G37*
G36*
X0057373D02*
X00571862Y00754697D01*
X00570303Y00753138D01*
X0056953Y0075127D01*
X0057373D01*
Y0075547D01*
D02*
G37*
G36*
X0052627D02*
Y0075127D01*
X0053047D01*
X00529697Y00753138D01*
X00528138Y00754697D01*
X0052627Y0075547D01*
D02*
G37*
G36*
X0052373D02*
X00521862Y00754697D01*
X00520303Y00753138D01*
X0051953Y0075127D01*
X0052373D01*
Y0075547D01*
D02*
G37*
G36*
X0042627D02*
Y0075127D01*
X0043047D01*
X00429697Y00753138D01*
X00428138Y00754697D01*
X0042627Y0075547D01*
D02*
G37*
G36*
X0042373D02*
X00421862Y00754697D01*
X00420303Y00753138D01*
X0041953Y0075127D01*
X0042373D01*
Y0075547D01*
D02*
G37*
G36*
X0037627D02*
Y0075127D01*
X0038047D01*
X00379697Y00753138D01*
X00378138Y00754697D01*
X0037627Y0075547D01*
D02*
G37*
G36*
X0037373D02*
X00371862Y00754697D01*
X00370303Y00753138D01*
X0036953Y0075127D01*
X0037373D01*
Y0075547D01*
D02*
G37*
G36*
X0128047Y0074873D02*
X0127627D01*
Y0074453D01*
X01278138Y00745303D01*
X01279697Y00746862D01*
X0128047Y0074873D01*
D02*
G37*
G36*
X0127373D02*
X0126953D01*
X01270303Y00746862D01*
X01271862Y00745303D01*
X0127373Y0074453D01*
Y0074873D01*
D02*
G37*
G36*
X0123047D02*
X0122627D01*
Y0074453D01*
X01228138Y00745303D01*
X01229697Y00746862D01*
X0123047Y0074873D01*
D02*
G37*
G36*
X0122373D02*
X0121953D01*
X01220303Y00746862D01*
X01221862Y00745303D01*
X0122373Y0074453D01*
Y0074873D01*
D02*
G37*
G36*
X0113047D02*
X0112627D01*
Y0074453D01*
X01128138Y00745303D01*
X01129697Y00746862D01*
X0113047Y0074873D01*
D02*
G37*
G36*
X0112373D02*
X0111953D01*
X01120303Y00746862D01*
X01121862Y00745303D01*
X0112373Y0074453D01*
Y0074873D01*
D02*
G37*
G36*
X0103047D02*
X0102627D01*
Y0074453D01*
X01028138Y00745303D01*
X01029697Y00746862D01*
X0103047Y0074873D01*
D02*
G37*
G36*
X0102373D02*
X0101953D01*
X01020303Y00746862D01*
X01021862Y00745303D01*
X0102373Y0074453D01*
Y0074873D01*
D02*
G37*
G36*
X0098047D02*
X0097627D01*
Y0074453D01*
X00978138Y00745303D01*
X00979697Y00746862D01*
X0098047Y0074873D01*
D02*
G37*
G36*
X0097373D02*
X0096953D01*
X00970303Y00746862D01*
X00971862Y00745303D01*
X0097373Y0074453D01*
Y0074873D01*
D02*
G37*
G36*
X0083047D02*
X0082627D01*
Y0074453D01*
X00828138Y00745303D01*
X00829697Y00746862D01*
X0083047Y0074873D01*
D02*
G37*
G36*
X0082373D02*
X0081953D01*
X00820303Y00746862D01*
X00821862Y00745303D01*
X0082373Y0074453D01*
Y0074873D01*
D02*
G37*
G36*
X0068047D02*
X0067627D01*
Y0074453D01*
X00678138Y00745303D01*
X00679697Y00746862D01*
X0068047Y0074873D01*
D02*
G37*
G36*
X0067373D02*
X0066953D01*
X00670303Y00746862D01*
X00671862Y00745303D01*
X0067373Y0074453D01*
Y0074873D01*
D02*
G37*
G36*
X0063047D02*
X0062627D01*
Y0074453D01*
X00628138Y00745303D01*
X00629697Y00746862D01*
X0063047Y0074873D01*
D02*
G37*
G36*
X0062373D02*
X0061953D01*
X00620303Y00746862D01*
X00621862Y00745303D01*
X0062373Y0074453D01*
Y0074873D01*
D02*
G37*
G36*
X0058047D02*
X0057627D01*
Y0074453D01*
X00578138Y00745303D01*
X00579697Y00746862D01*
X0058047Y0074873D01*
D02*
G37*
G36*
X0057373D02*
X0056953D01*
X00570303Y00746862D01*
X00571862Y00745303D01*
X0057373Y0074453D01*
Y0074873D01*
D02*
G37*
G36*
X0053047D02*
X0052627D01*
Y0074453D01*
X00528138Y00745303D01*
X00529697Y00746862D01*
X0053047Y0074873D01*
D02*
G37*
G36*
X0052373D02*
X0051953D01*
X00520303Y00746862D01*
X00521862Y00745303D01*
X0052373Y0074453D01*
Y0074873D01*
D02*
G37*
G36*
X0043047D02*
X0042627D01*
Y0074453D01*
X00428138Y00745303D01*
X00429697Y00746862D01*
X0043047Y0074873D01*
D02*
G37*
G36*
X0042373D02*
X0041953D01*
X00420303Y00746862D01*
X00421862Y00745303D01*
X0042373Y0074453D01*
Y0074873D01*
D02*
G37*
G36*
X0038047D02*
X0037627D01*
Y0074453D01*
X00378138Y00745303D01*
X00379697Y00746862D01*
X0038047Y0074873D01*
D02*
G37*
G36*
X0037373D02*
X0036953D01*
X00370303Y00746862D01*
X00371862Y00745303D01*
X0037373Y0074453D01*
Y0074873D01*
D02*
G37*
G36*
X01201402Y0074925D02*
X01198598D01*
X01195889Y00748524D01*
X01193461Y00747122D01*
X01191478Y00745139D01*
X01190076Y00742711D01*
X0118935Y00740002D01*
Y00737198D01*
X01190076Y00734489D01*
X01191478Y00732061D01*
X01193461Y00730078D01*
X01195889Y00728676D01*
X01198598Y0072795D01*
X01201402D01*
X01204111Y00728676D01*
X01206539Y00730078D01*
X01208522Y00732061D01*
X01209924Y00734489D01*
X0121065Y00737198D01*
Y00740002D01*
X01209924Y00742711D01*
X01208522Y00745139D01*
X01206539Y00747122D01*
X01204111Y00748524D01*
X01201402Y0074925D01*
D02*
G37*
G36*
Y0072385D02*
X01198598D01*
X01195889Y00723124D01*
X01193461Y00721722D01*
X01191478Y00719739D01*
X01190076Y00717311D01*
X0118935Y00714602D01*
Y00711798D01*
X01190076Y00709089D01*
X01191478Y00706661D01*
X01193461Y00704678D01*
X01195889Y00703276D01*
X01198598Y0070255D01*
X01201402D01*
X01204111Y00703276D01*
X01206539Y00704678D01*
X01208522Y00706661D01*
X01209924Y00709089D01*
X0121065Y00711798D01*
Y00714602D01*
X01209924Y00717311D01*
X01208522Y00719739D01*
X01206539Y00721722D01*
X01204111Y00723124D01*
X01201402Y0072385D01*
D02*
G37*
G36*
X00947402D02*
X00944598D01*
X00941889Y00723124D01*
X00939461Y00721722D01*
X00937478Y00719739D01*
X00936076Y00717311D01*
X0093535Y00714602D01*
Y00711798D01*
X00936076Y00709089D01*
X00937478Y00706661D01*
X00939461Y00704678D01*
X00941889Y00703276D01*
X00944598Y0070255D01*
X00947402D01*
X00950111Y00703276D01*
X00952539Y00704678D01*
X00954522Y00706661D01*
X00955924Y00709089D01*
X0095665Y00711798D01*
Y00714602D01*
X00955924Y00717311D01*
X00954522Y00719739D01*
X00952539Y00721722D01*
X00950111Y00723124D01*
X00947402Y0072385D01*
D02*
G37*
G36*
X0125127Y0070547D02*
Y0070127D01*
X0125547D01*
X01254697Y00703138D01*
X01253138Y00704697D01*
X0125127Y0070547D01*
D02*
G37*
G36*
X0124873D02*
X01246862Y00704697D01*
X01245303Y00703138D01*
X0124453Y0070127D01*
X0124873D01*
Y0070547D01*
D02*
G37*
G36*
X0115127D02*
Y0070127D01*
X0115547D01*
X01154697Y00703138D01*
X01153138Y00704697D01*
X0115127Y0070547D01*
D02*
G37*
G36*
X0114873D02*
X01146862Y00704697D01*
X01145303Y00703138D01*
X0114453Y0070127D01*
X0114873D01*
Y0070547D01*
D02*
G37*
G36*
X0110127D02*
Y0070127D01*
X0110547D01*
X01104697Y00703138D01*
X01103138Y00704697D01*
X0110127Y0070547D01*
D02*
G37*
G36*
X0109873D02*
X01096862Y00704697D01*
X01095303Y00703138D01*
X0109453Y0070127D01*
X0109873D01*
Y0070547D01*
D02*
G37*
G36*
X0065127D02*
Y0070127D01*
X0065547D01*
X00654697Y00703138D01*
X00653138Y00704697D01*
X0065127Y0070547D01*
D02*
G37*
G36*
X0064873D02*
X00646862Y00704697D01*
X00645303Y00703138D01*
X0064453Y0070127D01*
X0064873D01*
Y0070547D01*
D02*
G37*
G36*
X0060127D02*
Y0070127D01*
X0060547D01*
X00604697Y00703138D01*
X00603138Y00704697D01*
X0060127Y0070547D01*
D02*
G37*
G36*
X0059873D02*
X00596862Y00704697D01*
X00595303Y00703138D01*
X0059453Y0070127D01*
X0059873D01*
Y0070547D01*
D02*
G37*
G36*
X0055127D02*
Y0070127D01*
X0055547D01*
X00554697Y00703138D01*
X00553138Y00704697D01*
X0055127Y0070547D01*
D02*
G37*
G36*
X0054873D02*
X00546862Y00704697D01*
X00545303Y00703138D01*
X0054453Y0070127D01*
X0054873D01*
Y0070547D01*
D02*
G37*
G36*
X0050127D02*
Y0070127D01*
X0050547D01*
X00504697Y00703138D01*
X00503138Y00704697D01*
X0050127Y0070547D01*
D02*
G37*
G36*
X0049873D02*
X00496862Y00704697D01*
X00495303Y00703138D01*
X0049453Y0070127D01*
X0049873D01*
Y0070547D01*
D02*
G37*
G36*
X0045127D02*
Y0070127D01*
X0045547D01*
X00454697Y00703138D01*
X00453138Y00704697D01*
X0045127Y0070547D01*
D02*
G37*
G36*
X0044873D02*
X00446862Y00704697D01*
X00445303Y00703138D01*
X0044453Y0070127D01*
X0044873D01*
Y0070547D01*
D02*
G37*
G36*
X0035127D02*
Y0070127D01*
X0035547D01*
X00354697Y00703138D01*
X00353138Y00704697D01*
X0035127Y0070547D01*
D02*
G37*
G36*
X0034873D02*
X00346862Y00704697D01*
X00345303Y00703138D01*
X0034453Y0070127D01*
X0034873D01*
Y0070547D01*
D02*
G37*
G36*
X0125547Y0069873D02*
X0125127D01*
Y0069453D01*
X01253138Y00695303D01*
X01254697Y00696862D01*
X0125547Y0069873D01*
D02*
G37*
G36*
X0124873D02*
X0124453D01*
X01245303Y00696862D01*
X01246862Y00695303D01*
X0124873Y0069453D01*
Y0069873D01*
D02*
G37*
G36*
X0115547D02*
X0115127D01*
Y0069453D01*
X01153138Y00695303D01*
X01154697Y00696862D01*
X0115547Y0069873D01*
D02*
G37*
G36*
X0114873D02*
X0114453D01*
X01145303Y00696862D01*
X01146862Y00695303D01*
X0114873Y0069453D01*
Y0069873D01*
D02*
G37*
G36*
X0110547D02*
X0110127D01*
Y0069453D01*
X01103138Y00695303D01*
X01104697Y00696862D01*
X0110547Y0069873D01*
D02*
G37*
G36*
X0109873D02*
X0109453D01*
X01095303Y00696862D01*
X01096862Y00695303D01*
X0109873Y0069453D01*
Y0069873D01*
D02*
G37*
G36*
X0065547D02*
X0065127D01*
Y0069453D01*
X00653138Y00695303D01*
X00654697Y00696862D01*
X0065547Y0069873D01*
D02*
G37*
G36*
X0064873D02*
X0064453D01*
X00645303Y00696862D01*
X00646862Y00695303D01*
X0064873Y0069453D01*
Y0069873D01*
D02*
G37*
G36*
X0060547D02*
X0060127D01*
Y0069453D01*
X00603138Y00695303D01*
X00604697Y00696862D01*
X0060547Y0069873D01*
D02*
G37*
G36*
X0059873D02*
X0059453D01*
X00595303Y00696862D01*
X00596862Y00695303D01*
X0059873Y0069453D01*
Y0069873D01*
D02*
G37*
G36*
X0055547D02*
X0055127D01*
Y0069453D01*
X00553138Y00695303D01*
X00554697Y00696862D01*
X0055547Y0069873D01*
D02*
G37*
G36*
X0054873D02*
X0054453D01*
X00545303Y00696862D01*
X00546862Y00695303D01*
X0054873Y0069453D01*
Y0069873D01*
D02*
G37*
G36*
X0050547D02*
X0050127D01*
Y0069453D01*
X00503138Y00695303D01*
X00504697Y00696862D01*
X0050547Y0069873D01*
D02*
G37*
G36*
X0049873D02*
X0049453D01*
X00495303Y00696862D01*
X00496862Y00695303D01*
X0049873Y0069453D01*
Y0069873D01*
D02*
G37*
G36*
X0045547D02*
X0045127D01*
Y0069453D01*
X00453138Y00695303D01*
X00454697Y00696862D01*
X0045547Y0069873D01*
D02*
G37*
G36*
X0044873D02*
X0044453D01*
X00445303Y00696862D01*
X00446862Y00695303D01*
X0044873Y0069453D01*
Y0069873D01*
D02*
G37*
G36*
X0035547D02*
X0035127D01*
Y0069453D01*
X00353138Y00695303D01*
X00354697Y00696862D01*
X0035547Y0069873D01*
D02*
G37*
G36*
X0034873D02*
X0034453D01*
X00345303Y00696862D01*
X00346862Y00695303D01*
X0034873Y0069453D01*
Y0069873D01*
D02*
G37*
G36*
X01201402Y0069845D02*
X01198598D01*
X01195889Y00697724D01*
X01193461Y00696322D01*
X01191478Y00694339D01*
X01190076Y00691911D01*
X0118935Y00689202D01*
Y00686398D01*
X01190076Y00683689D01*
X01191478Y00681261D01*
X01193461Y00679278D01*
X01195889Y00677876D01*
X01198598Y0067715D01*
X01201402D01*
X01204111Y00677876D01*
X01206539Y00679278D01*
X01208522Y00681261D01*
X01209924Y00683689D01*
X0121065Y00686398D01*
Y00689202D01*
X01209924Y00691911D01*
X01208522Y00694339D01*
X01206539Y00696322D01*
X01204111Y00697724D01*
X01201402Y0069845D01*
D02*
G37*
G36*
X00947402D02*
X00944598D01*
X00941889Y00697724D01*
X00939461Y00696322D01*
X00937478Y00694339D01*
X00936076Y00691911D01*
X0093535Y00689202D01*
Y00686398D01*
X00936076Y00683689D01*
X00937478Y00681261D01*
X00939461Y00679278D01*
X00941889Y00677876D01*
X00944598Y0067715D01*
X00947402D01*
X00950111Y00677876D01*
X00952539Y00679278D01*
X00954522Y00681261D01*
X00955924Y00683689D01*
X0095665Y00686398D01*
Y00689202D01*
X00955924Y00691911D01*
X00954522Y00694339D01*
X00952539Y00696322D01*
X00950111Y00697724D01*
X00947402Y0069845D01*
D02*
G37*
G36*
X01201402Y0067305D02*
X01198598D01*
X01195889Y00672324D01*
X01193461Y00670922D01*
X01191478Y00668939D01*
X01190076Y00666511D01*
X0118935Y00663802D01*
Y00660998D01*
X01190076Y00658289D01*
X01191478Y00655861D01*
X01193461Y00653878D01*
X01195889Y00652476D01*
X01198598Y0065175D01*
X01201402D01*
X01204111Y00652476D01*
X01206539Y00653878D01*
X01208522Y00655861D01*
X01209924Y00658289D01*
X0121065Y00660998D01*
Y00663802D01*
X01209924Y00666511D01*
X01208522Y00668939D01*
X01206539Y00670922D01*
X01204111Y00672324D01*
X01201402Y0067305D01*
D02*
G37*
G36*
X0122627Y0065547D02*
Y0065127D01*
X0123047D01*
X01229697Y00653138D01*
X01228138Y00654697D01*
X0122627Y0065547D01*
D02*
G37*
G36*
X0122373D02*
X01221862Y00654697D01*
X01220303Y00653138D01*
X0121953Y0065127D01*
X0122373D01*
Y0065547D01*
D02*
G37*
G36*
X0112627D02*
Y0065127D01*
X0113047D01*
X01129697Y00653138D01*
X01128138Y00654697D01*
X0112627Y0065547D01*
D02*
G37*
G36*
X0112373D02*
X01121862Y00654697D01*
X01120303Y00653138D01*
X0111953Y0065127D01*
X0112373D01*
Y0065547D01*
D02*
G37*
G36*
X0107627D02*
Y0065127D01*
X0108047D01*
X01079697Y00653138D01*
X01078138Y00654697D01*
X0107627Y0065547D01*
D02*
G37*
G36*
X0107373D02*
X01071862Y00654697D01*
X01070303Y00653138D01*
X0106953Y0065127D01*
X0107373D01*
Y0065547D01*
D02*
G37*
G36*
X0102627D02*
Y0065127D01*
X0103047D01*
X01029697Y00653138D01*
X01028138Y00654697D01*
X0102627Y0065547D01*
D02*
G37*
G36*
X0102373D02*
X01021862Y00654697D01*
X01020303Y00653138D01*
X0101953Y0065127D01*
X0102373D01*
Y0065547D01*
D02*
G37*
G36*
X0097627D02*
Y0065127D01*
X0098047D01*
X00979697Y00653138D01*
X00978138Y00654697D01*
X0097627Y0065547D01*
D02*
G37*
G36*
X0097373D02*
X00971862Y00654697D01*
X00970303Y00653138D01*
X0096953Y0065127D01*
X0097373D01*
Y0065547D01*
D02*
G37*
G36*
X0082627D02*
Y0065127D01*
X0083047D01*
X00829697Y00653138D01*
X00828138Y00654697D01*
X0082627Y0065547D01*
D02*
G37*
G36*
X0082373D02*
X00821862Y00654697D01*
X00820303Y00653138D01*
X0081953Y0065127D01*
X0082373D01*
Y0065547D01*
D02*
G37*
G36*
X0072627D02*
Y0065127D01*
X0073047D01*
X00729697Y00653138D01*
X00728138Y00654697D01*
X0072627Y0065547D01*
D02*
G37*
G36*
X0072373D02*
X00721862Y00654697D01*
X00720303Y00653138D01*
X0071953Y0065127D01*
X0072373D01*
Y0065547D01*
D02*
G37*
G36*
X0067627D02*
Y0065127D01*
X0068047D01*
X00679697Y00653138D01*
X00678138Y00654697D01*
X0067627Y0065547D01*
D02*
G37*
G36*
X0067373D02*
X00671862Y00654697D01*
X00670303Y00653138D01*
X0066953Y0065127D01*
X0067373D01*
Y0065547D01*
D02*
G37*
G36*
X0062627D02*
Y0065127D01*
X0063047D01*
X00629697Y00653138D01*
X00628138Y00654697D01*
X0062627Y0065547D01*
D02*
G37*
G36*
X0062373D02*
X00621862Y00654697D01*
X00620303Y00653138D01*
X0061953Y0065127D01*
X0062373D01*
Y0065547D01*
D02*
G37*
G36*
X0123047Y0064873D02*
X0122627D01*
Y0064453D01*
X01228138Y00645303D01*
X01229697Y00646862D01*
X0123047Y0064873D01*
D02*
G37*
G36*
X0122373D02*
X0121953D01*
X01220303Y00646862D01*
X01221862Y00645303D01*
X0122373Y0064453D01*
Y0064873D01*
D02*
G37*
G36*
X0113047D02*
X0112627D01*
Y0064453D01*
X01128138Y00645303D01*
X01129697Y00646862D01*
X0113047Y0064873D01*
D02*
G37*
G36*
X0112373D02*
X0111953D01*
X01120303Y00646862D01*
X01121862Y00645303D01*
X0112373Y0064453D01*
Y0064873D01*
D02*
G37*
G36*
X0108047D02*
X0107627D01*
Y0064453D01*
X01078138Y00645303D01*
X01079697Y00646862D01*
X0108047Y0064873D01*
D02*
G37*
G36*
X0107373D02*
X0106953D01*
X01070303Y00646862D01*
X01071862Y00645303D01*
X0107373Y0064453D01*
Y0064873D01*
D02*
G37*
G36*
X0103047D02*
X0102627D01*
Y0064453D01*
X01028138Y00645303D01*
X01029697Y00646862D01*
X0103047Y0064873D01*
D02*
G37*
G36*
X0102373D02*
X0101953D01*
X01020303Y00646862D01*
X01021862Y00645303D01*
X0102373Y0064453D01*
Y0064873D01*
D02*
G37*
G36*
X0098047D02*
X0097627D01*
Y0064453D01*
X00978138Y00645303D01*
X00979697Y00646862D01*
X0098047Y0064873D01*
D02*
G37*
G36*
X0097373D02*
X0096953D01*
X00970303Y00646862D01*
X00971862Y00645303D01*
X0097373Y0064453D01*
Y0064873D01*
D02*
G37*
G36*
X0083047D02*
X0082627D01*
Y0064453D01*
X00828138Y00645303D01*
X00829697Y00646862D01*
X0083047Y0064873D01*
D02*
G37*
G36*
X0082373D02*
X0081953D01*
X00820303Y00646862D01*
X00821862Y00645303D01*
X0082373Y0064453D01*
Y0064873D01*
D02*
G37*
G36*
X0073047D02*
X0072627D01*
Y0064453D01*
X00728138Y00645303D01*
X00729697Y00646862D01*
X0073047Y0064873D01*
D02*
G37*
G36*
X0072373D02*
X0071953D01*
X00720303Y00646862D01*
X00721862Y00645303D01*
X0072373Y0064453D01*
Y0064873D01*
D02*
G37*
G36*
X0068047D02*
X0067627D01*
Y0064453D01*
X00678138Y00645303D01*
X00679697Y00646862D01*
X0068047Y0064873D01*
D02*
G37*
G36*
X0067373D02*
X0066953D01*
X00670303Y00646862D01*
X00671862Y00645303D01*
X0067373Y0064453D01*
Y0064873D01*
D02*
G37*
G36*
X0063047D02*
X0062627D01*
Y0064453D01*
X00628138Y00645303D01*
X00629697Y00646862D01*
X0063047Y0064873D01*
D02*
G37*
G36*
X0062373D02*
X0061953D01*
X00620303Y00646862D01*
X00621862Y00645303D01*
X0062373Y0064453D01*
Y0064873D01*
D02*
G37*
G36*
X01201402Y0064765D02*
X01198598D01*
X01195889Y00646924D01*
X01193461Y00645522D01*
X01191478Y00643539D01*
X01190076Y00641111D01*
X0118935Y00638402D01*
Y00635598D01*
X01190076Y00632889D01*
X01191478Y00630461D01*
X01193461Y00628478D01*
X01195889Y00627076D01*
X01198598Y0062635D01*
X01201402D01*
X01204111Y00627076D01*
X01206539Y00628478D01*
X01208522Y00630461D01*
X01209924Y00632889D01*
X0121065Y00635598D01*
Y00638402D01*
X01209924Y00641111D01*
X01208522Y00643539D01*
X01206539Y00645522D01*
X01204111Y00646924D01*
X01201402Y0064765D01*
D02*
G37*
G36*
X00947402D02*
X00944598D01*
X00941889Y00646924D01*
X00939461Y00645522D01*
X00937478Y00643539D01*
X00936076Y00641111D01*
X0093535Y00638402D01*
Y00635598D01*
X00936076Y00632889D01*
X00937478Y00630461D01*
X00939461Y00628478D01*
X00941889Y00627076D01*
X00944598Y0062635D01*
X00947402D01*
X00950111Y00627076D01*
X00952539Y00628478D01*
X00954522Y00630461D01*
X00955924Y00632889D01*
X0095665Y00635598D01*
Y00638402D01*
X00955924Y00641111D01*
X00954522Y00643539D01*
X00952539Y00645522D01*
X00950111Y00646924D01*
X00947402Y0064765D01*
D02*
G37*
G36*
X00708632Y0063995D02*
X00705867D01*
X00703197Y00639234D01*
X00700803Y00637852D01*
X00698848Y00635897D01*
X00697465Y00633503D01*
X0069675Y00630832D01*
Y00628068D01*
X00697465Y00625397D01*
X00698848Y00623003D01*
X00700803Y00621048D01*
X00703197Y00619666D01*
X00705867Y0061895D01*
X00708632D01*
X00711303Y00619666D01*
X00713697Y00621048D01*
X00715652Y00623003D01*
X00717034Y00625397D01*
X0071775Y00628068D01*
Y00630832D01*
X00717034Y00633503D01*
X00715652Y00635897D01*
X00713697Y00637852D01*
X00711303Y00639234D01*
X00708632Y0063995D01*
D02*
G37*
G36*
X0125127Y0060547D02*
Y0060127D01*
X0125547D01*
X01254697Y00603138D01*
X01253138Y00604697D01*
X0125127Y0060547D01*
D02*
G37*
G36*
X0124873D02*
X01246862Y00604697D01*
X01245303Y00603138D01*
X0124453Y0060127D01*
X0124873D01*
Y0060547D01*
D02*
G37*
G36*
X0105127D02*
Y0060127D01*
X0105547D01*
X01054697Y00603138D01*
X01053138Y00604697D01*
X0105127Y0060547D01*
D02*
G37*
G36*
X0104873D02*
X01046862Y00604697D01*
X01045303Y00603138D01*
X0104453Y0060127D01*
X0104873D01*
Y0060547D01*
D02*
G37*
G36*
X0100127D02*
Y0060127D01*
X0100547D01*
X01004697Y00603138D01*
X01003138Y00604697D01*
X0100127Y0060547D01*
D02*
G37*
G36*
X0099873D02*
X00996862Y00604697D01*
X00995303Y00603138D01*
X0099453Y0060127D01*
X0099873D01*
Y0060547D01*
D02*
G37*
G36*
X0085127D02*
Y0060127D01*
X0085547D01*
X00854697Y00603138D01*
X00853138Y00604697D01*
X0085127Y0060547D01*
D02*
G37*
G36*
X0084873D02*
X00846862Y00604697D01*
X00845303Y00603138D01*
X0084453Y0060127D01*
X0084873D01*
Y0060547D01*
D02*
G37*
G36*
X0080127D02*
Y0060127D01*
X0080547D01*
X00804697Y00603138D01*
X00803138Y00604697D01*
X0080127Y0060547D01*
D02*
G37*
G36*
X0079873D02*
X00796862Y00604697D01*
X00795303Y00603138D01*
X0079453Y0060127D01*
X0079873D01*
Y0060547D01*
D02*
G37*
G36*
X0060127D02*
Y0060127D01*
X0060547D01*
X00604697Y00603138D01*
X00603138Y00604697D01*
X0060127Y0060547D01*
D02*
G37*
G36*
X0059873D02*
X00596862Y00604697D01*
X00595303Y00603138D01*
X0059453Y0060127D01*
X0059873D01*
Y0060547D01*
D02*
G37*
G36*
X0055127D02*
Y0060127D01*
X0055547D01*
X00554697Y00603138D01*
X00553138Y00604697D01*
X0055127Y0060547D01*
D02*
G37*
G36*
X0054873D02*
X00546862Y00604697D01*
X00545303Y00603138D01*
X0054453Y0060127D01*
X0054873D01*
Y0060547D01*
D02*
G37*
G36*
X0050127D02*
Y0060127D01*
X0050547D01*
X00504697Y00603138D01*
X00503138Y00604697D01*
X0050127Y0060547D01*
D02*
G37*
G36*
X0049873D02*
X00496862Y00604697D01*
X00495303Y00603138D01*
X0049453Y0060127D01*
X0049873D01*
Y0060547D01*
D02*
G37*
G36*
X0045127D02*
Y0060127D01*
X0045547D01*
X00454697Y00603138D01*
X00453138Y00604697D01*
X0045127Y0060547D01*
D02*
G37*
G36*
X0044873D02*
X00446862Y00604697D01*
X00445303Y00603138D01*
X0044453Y0060127D01*
X0044873D01*
Y0060547D01*
D02*
G37*
G36*
X01201402Y0062225D02*
X01198598D01*
X01195889Y00621524D01*
X01193461Y00620122D01*
X01191478Y00618139D01*
X01190076Y00615711D01*
X0118935Y00613002D01*
Y00610198D01*
X01190076Y00607489D01*
X01191478Y00605061D01*
X01193461Y00603078D01*
X01195889Y00601676D01*
X01198598Y0060095D01*
X01201402D01*
X01204111Y00601676D01*
X01206539Y00603078D01*
X01208522Y00605061D01*
X01209924Y00607489D01*
X0121065Y00610198D01*
Y00613002D01*
X01209924Y00615711D01*
X01208522Y00618139D01*
X01206539Y00620122D01*
X01204111Y00621524D01*
X01201402Y0062225D01*
D02*
G37*
G36*
X00947402D02*
X00944598D01*
X00941889Y00621524D01*
X00939461Y00620122D01*
X00937478Y00618139D01*
X00936076Y00615711D01*
X0093535Y00613002D01*
Y00610198D01*
X00936076Y00607489D01*
X00937478Y00605061D01*
X00939461Y00603078D01*
X00941889Y00601676D01*
X00944598Y0060095D01*
X00947402D01*
X00950111Y00601676D01*
X00952539Y00603078D01*
X00954522Y00605061D01*
X00955924Y00607489D01*
X0095665Y00610198D01*
Y00613002D01*
X00955924Y00615711D01*
X00954522Y00618139D01*
X00952539Y00620122D01*
X00950111Y00621524D01*
X00947402Y0062225D01*
D02*
G37*
G36*
X0125547Y0059873D02*
X0125127D01*
Y0059453D01*
X01253138Y00595303D01*
X01254697Y00596862D01*
X0125547Y0059873D01*
D02*
G37*
G36*
X0124873D02*
X0124453D01*
X01245303Y00596862D01*
X01246862Y00595303D01*
X0124873Y0059453D01*
Y0059873D01*
D02*
G37*
G36*
X0105547D02*
X0105127D01*
Y0059453D01*
X01053138Y00595303D01*
X01054697Y00596862D01*
X0105547Y0059873D01*
D02*
G37*
G36*
X0104873D02*
X0104453D01*
X01045303Y00596862D01*
X01046862Y00595303D01*
X0104873Y0059453D01*
Y0059873D01*
D02*
G37*
G36*
X0100547D02*
X0100127D01*
Y0059453D01*
X01003138Y00595303D01*
X01004697Y00596862D01*
X0100547Y0059873D01*
D02*
G37*
G36*
X0099873D02*
X0099453D01*
X00995303Y00596862D01*
X00996862Y00595303D01*
X0099873Y0059453D01*
Y0059873D01*
D02*
G37*
G36*
X0085547D02*
X0085127D01*
Y0059453D01*
X00853138Y00595303D01*
X00854697Y00596862D01*
X0085547Y0059873D01*
D02*
G37*
G36*
X0084873D02*
X0084453D01*
X00845303Y00596862D01*
X00846862Y00595303D01*
X0084873Y0059453D01*
Y0059873D01*
D02*
G37*
G36*
X0080547D02*
X0080127D01*
Y0059453D01*
X00803138Y00595303D01*
X00804697Y00596862D01*
X0080547Y0059873D01*
D02*
G37*
G36*
X0079873D02*
X0079453D01*
X00795303Y00596862D01*
X00796862Y00595303D01*
X0079873Y0059453D01*
Y0059873D01*
D02*
G37*
G36*
X0060547D02*
X0060127D01*
Y0059453D01*
X00603138Y00595303D01*
X00604697Y00596862D01*
X0060547Y0059873D01*
D02*
G37*
G36*
X0059873D02*
X0059453D01*
X00595303Y00596862D01*
X00596862Y00595303D01*
X0059873Y0059453D01*
Y0059873D01*
D02*
G37*
G36*
X0055547D02*
X0055127D01*
Y0059453D01*
X00553138Y00595303D01*
X00554697Y00596862D01*
X0055547Y0059873D01*
D02*
G37*
G36*
X0054873D02*
X0054453D01*
X00545303Y00596862D01*
X00546862Y00595303D01*
X0054873Y0059453D01*
Y0059873D01*
D02*
G37*
G36*
X0050547D02*
X0050127D01*
Y0059453D01*
X00503138Y00595303D01*
X00504697Y00596862D01*
X0050547Y0059873D01*
D02*
G37*
G36*
X0049873D02*
X0049453D01*
X00495303Y00596862D01*
X00496862Y00595303D01*
X0049873Y0059453D01*
Y0059873D01*
D02*
G37*
G36*
X0045547D02*
X0045127D01*
Y0059453D01*
X00453138Y00595303D01*
X00454697Y00596862D01*
X0045547Y0059873D01*
D02*
G37*
G36*
X0044873D02*
X0044453D01*
X00445303Y00596862D01*
X00446862Y00595303D01*
X0044873Y0059453D01*
Y0059873D01*
D02*
G37*
G36*
X00708632Y0061455D02*
X00705867D01*
X00703197Y00613834D01*
X00700803Y00612452D01*
X00698848Y00610497D01*
X00697465Y00608103D01*
X0069675Y00605432D01*
Y00602668D01*
X00697465Y00599997D01*
X00698848Y00597603D01*
X00700803Y00595648D01*
X00703197Y00594266D01*
X00705867Y0059355D01*
X00708632D01*
X00711303Y00594266D01*
X00713697Y00595648D01*
X00715652Y00597603D01*
X00717034Y00599997D01*
X0071775Y00602668D01*
Y00605432D01*
X00717034Y00608103D01*
X00715652Y00610497D01*
X00713697Y00612452D01*
X00711303Y00613834D01*
X00708632Y0061455D01*
D02*
G37*
G36*
X01201402Y0059685D02*
X01198598D01*
X01195889Y00596124D01*
X01193461Y00594722D01*
X01191478Y00592739D01*
X01190076Y00590311D01*
X0118935Y00587602D01*
Y00584798D01*
X01190076Y00582089D01*
X01191478Y00579661D01*
X01193461Y00577678D01*
X01195889Y00576276D01*
X01198598Y0057555D01*
X01201402D01*
X01204111Y00576276D01*
X01206539Y00577678D01*
X01208522Y00579661D01*
X01209924Y00582089D01*
X0121065Y00584798D01*
Y00587602D01*
X01209924Y00590311D01*
X01208522Y00592739D01*
X01206539Y00594722D01*
X01204111Y00596124D01*
X01201402Y0059685D01*
D02*
G37*
G36*
X00947402D02*
X00944598D01*
X00941889Y00596124D01*
X00939461Y00594722D01*
X00937478Y00592739D01*
X00936076Y00590311D01*
X0093535Y00587602D01*
Y00584798D01*
X00936076Y00582089D01*
X00937478Y00579661D01*
X00939461Y00577678D01*
X00941889Y00576276D01*
X00944598Y0057555D01*
X00947402D01*
X00950111Y00576276D01*
X00952539Y00577678D01*
X00954522Y00579661D01*
X00955924Y00582089D01*
X0095665Y00584798D01*
Y00587602D01*
X00955924Y00590311D01*
X00954522Y00592739D01*
X00952539Y00594722D01*
X00950111Y00596124D01*
X00947402Y0059685D01*
D02*
G37*
G36*
X0122627Y0055547D02*
Y0055127D01*
X0123047D01*
X01229697Y00553138D01*
X01228138Y00554697D01*
X0122627Y0055547D01*
D02*
G37*
G36*
X0122373D02*
X01221862Y00554697D01*
X01220303Y00553138D01*
X0121953Y0055127D01*
X0122373D01*
Y0055547D01*
D02*
G37*
G36*
X0112627D02*
Y0055127D01*
X0113047D01*
X01129697Y00553138D01*
X01128138Y00554697D01*
X0112627Y0055547D01*
D02*
G37*
G36*
X0112373D02*
X01121862Y00554697D01*
X01120303Y00553138D01*
X0111953Y0055127D01*
X0112373D01*
Y0055547D01*
D02*
G37*
G36*
X0107627D02*
Y0055127D01*
X0108047D01*
X01079697Y00553138D01*
X01078138Y00554697D01*
X0107627Y0055547D01*
D02*
G37*
G36*
X0107373D02*
X01071862Y00554697D01*
X01070303Y00553138D01*
X0106953Y0055127D01*
X0107373D01*
Y0055547D01*
D02*
G37*
G36*
X0102627D02*
Y0055127D01*
X0103047D01*
X01029697Y00553138D01*
X01028138Y00554697D01*
X0102627Y0055547D01*
D02*
G37*
G36*
X0102373D02*
X01021862Y00554697D01*
X01020303Y00553138D01*
X0101953Y0055127D01*
X0102373D01*
Y0055547D01*
D02*
G37*
G36*
X0097627D02*
Y0055127D01*
X0098047D01*
X00979697Y00553138D01*
X00978138Y00554697D01*
X0097627Y0055547D01*
D02*
G37*
G36*
X0097373D02*
X00971862Y00554697D01*
X00970303Y00553138D01*
X0096953Y0055127D01*
X0097373D01*
Y0055547D01*
D02*
G37*
G36*
X0082627D02*
Y0055127D01*
X0083047D01*
X00829697Y00553138D01*
X00828138Y00554697D01*
X0082627Y0055547D01*
D02*
G37*
G36*
X0082373D02*
X00821862Y00554697D01*
X00820303Y00553138D01*
X0081953Y0055127D01*
X0082373D01*
Y0055547D01*
D02*
G37*
G36*
X0077627D02*
Y0055127D01*
X0078047D01*
X00779697Y00553138D01*
X00778138Y00554697D01*
X0077627Y0055547D01*
D02*
G37*
G36*
X0077373D02*
X00771862Y00554697D01*
X00770303Y00553138D01*
X0076953Y0055127D01*
X0077373D01*
Y0055547D01*
D02*
G37*
G36*
X0062627D02*
Y0055127D01*
X0063047D01*
X00629697Y00553138D01*
X00628138Y00554697D01*
X0062627Y0055547D01*
D02*
G37*
G36*
X0062373D02*
X00621862Y00554697D01*
X00620303Y00553138D01*
X0061953Y0055127D01*
X0062373D01*
Y0055547D01*
D02*
G37*
G36*
X0057627D02*
Y0055127D01*
X0058047D01*
X00579697Y00553138D01*
X00578138Y00554697D01*
X0057627Y0055547D01*
D02*
G37*
G36*
X0057373D02*
X00571862Y00554697D01*
X00570303Y00553138D01*
X0056953Y0055127D01*
X0057373D01*
Y0055547D01*
D02*
G37*
G36*
X0052627D02*
Y0055127D01*
X0053047D01*
X00529697Y00553138D01*
X00528138Y00554697D01*
X0052627Y0055547D01*
D02*
G37*
G36*
X0052373D02*
X00521862Y00554697D01*
X00520303Y00553138D01*
X0051953Y0055127D01*
X0052373D01*
Y0055547D01*
D02*
G37*
G36*
X0047627D02*
Y0055127D01*
X0048047D01*
X00479697Y00553138D01*
X00478138Y00554697D01*
X0047627Y0055547D01*
D02*
G37*
G36*
X0047373D02*
X00471862Y00554697D01*
X00470303Y00553138D01*
X0046953Y0055127D01*
X0047373D01*
Y0055547D01*
D02*
G37*
G36*
X01201402Y0057145D02*
X01198598D01*
X01195889Y00570724D01*
X01193461Y00569322D01*
X01191478Y00567339D01*
X01190076Y00564911D01*
X0118935Y00562202D01*
Y00559398D01*
X01190076Y00556689D01*
X01191478Y00554261D01*
X01193461Y00552278D01*
X01195889Y00550876D01*
X01198598Y0055015D01*
X01201402D01*
X01204111Y00550876D01*
X01206539Y00552278D01*
X01208522Y00554261D01*
X01209924Y00556689D01*
X0121065Y00559398D01*
Y00562202D01*
X01209924Y00564911D01*
X01208522Y00567339D01*
X01206539Y00569322D01*
X01204111Y00570724D01*
X01201402Y0057145D01*
D02*
G37*
G36*
X00947402D02*
X00944598D01*
X00941889Y00570724D01*
X00939461Y00569322D01*
X00937478Y00567339D01*
X00936076Y00564911D01*
X0093535Y00562202D01*
Y00559398D01*
X00936076Y00556689D01*
X00937478Y00554261D01*
X00939461Y00552278D01*
X00941889Y00550876D01*
X00944598Y0055015D01*
X00947402D01*
X00950111Y00550876D01*
X00952539Y00552278D01*
X00954522Y00554261D01*
X00955924Y00556689D01*
X0095665Y00559398D01*
Y00562202D01*
X00955924Y00564911D01*
X00954522Y00567339D01*
X00952539Y00569322D01*
X00950111Y00570724D01*
X00947402Y0057145D01*
D02*
G37*
G36*
X0123047Y0054873D02*
X0122627D01*
Y0054453D01*
X01228138Y00545303D01*
X01229697Y00546862D01*
X0123047Y0054873D01*
D02*
G37*
G36*
X0122373D02*
X0121953D01*
X01220303Y00546862D01*
X01221862Y00545303D01*
X0122373Y0054453D01*
Y0054873D01*
D02*
G37*
G36*
X0113047D02*
X0112627D01*
Y0054453D01*
X01128138Y00545303D01*
X01129697Y00546862D01*
X0113047Y0054873D01*
D02*
G37*
G36*
X0112373D02*
X0111953D01*
X01120303Y00546862D01*
X01121862Y00545303D01*
X0112373Y0054453D01*
Y0054873D01*
D02*
G37*
G36*
X0108047D02*
X0107627D01*
Y0054453D01*
X01078138Y00545303D01*
X01079697Y00546862D01*
X0108047Y0054873D01*
D02*
G37*
G36*
X0107373D02*
X0106953D01*
X01070303Y00546862D01*
X01071862Y00545303D01*
X0107373Y0054453D01*
Y0054873D01*
D02*
G37*
G36*
X0103047D02*
X0102627D01*
Y0054453D01*
X01028138Y00545303D01*
X01029697Y00546862D01*
X0103047Y0054873D01*
D02*
G37*
G36*
X0102373D02*
X0101953D01*
X01020303Y00546862D01*
X01021862Y00545303D01*
X0102373Y0054453D01*
Y0054873D01*
D02*
G37*
G36*
X0098047D02*
X0097627D01*
Y0054453D01*
X00978138Y00545303D01*
X00979697Y00546862D01*
X0098047Y0054873D01*
D02*
G37*
G36*
X0097373D02*
X0096953D01*
X00970303Y00546862D01*
X00971862Y00545303D01*
X0097373Y0054453D01*
Y0054873D01*
D02*
G37*
G36*
X0083047D02*
X0082627D01*
Y0054453D01*
X00828138Y00545303D01*
X00829697Y00546862D01*
X0083047Y0054873D01*
D02*
G37*
G36*
X0082373D02*
X0081953D01*
X00820303Y00546862D01*
X00821862Y00545303D01*
X0082373Y0054453D01*
Y0054873D01*
D02*
G37*
G36*
X0078047D02*
X0077627D01*
Y0054453D01*
X00778138Y00545303D01*
X00779697Y00546862D01*
X0078047Y0054873D01*
D02*
G37*
G36*
X0077373D02*
X0076953D01*
X00770303Y00546862D01*
X00771862Y00545303D01*
X0077373Y0054453D01*
Y0054873D01*
D02*
G37*
G36*
X0063047D02*
X0062627D01*
Y0054453D01*
X00628138Y00545303D01*
X00629697Y00546862D01*
X0063047Y0054873D01*
D02*
G37*
G36*
X0062373D02*
X0061953D01*
X00620303Y00546862D01*
X00621862Y00545303D01*
X0062373Y0054453D01*
Y0054873D01*
D02*
G37*
G36*
X0058047D02*
X0057627D01*
Y0054453D01*
X00578138Y00545303D01*
X00579697Y00546862D01*
X0058047Y0054873D01*
D02*
G37*
G36*
X0057373D02*
X0056953D01*
X00570303Y00546862D01*
X00571862Y00545303D01*
X0057373Y0054453D01*
Y0054873D01*
D02*
G37*
G36*
X0053047D02*
X0052627D01*
Y0054453D01*
X00528138Y00545303D01*
X00529697Y00546862D01*
X0053047Y0054873D01*
D02*
G37*
G36*
X0052373D02*
X0051953D01*
X00520303Y00546862D01*
X00521862Y00545303D01*
X0052373Y0054453D01*
Y0054873D01*
D02*
G37*
G36*
X0048047D02*
X0047627D01*
Y0054453D01*
X00478138Y00545303D01*
X00479697Y00546862D01*
X0048047Y0054873D01*
D02*
G37*
G36*
X0047373D02*
X0046953D01*
X00470303Y00546862D01*
X00471862Y00545303D01*
X0047373Y0054453D01*
Y0054873D01*
D02*
G37*
G36*
X01201402Y0054605D02*
X01198598D01*
X01195889Y00545324D01*
X01193461Y00543922D01*
X01191478Y00541939D01*
X01190076Y00539511D01*
X0118935Y00536802D01*
Y00533998D01*
X01190076Y00531289D01*
X01191478Y00528861D01*
X01193461Y00526878D01*
X01195889Y00525476D01*
X01198598Y0052475D01*
X01201402D01*
X01204111Y00525476D01*
X01206539Y00526878D01*
X01208522Y00528861D01*
X01209924Y00531289D01*
X0121065Y00533998D01*
Y00536802D01*
X01209924Y00539511D01*
X01208522Y00541939D01*
X01206539Y00543922D01*
X01204111Y00545324D01*
X01201402Y0054605D01*
D02*
G37*
G36*
X00947402D02*
X00944598D01*
X00941889Y00545324D01*
X00939461Y00543922D01*
X00937478Y00541939D01*
X00936076Y00539511D01*
X0093535Y00536802D01*
Y00533998D01*
X00936076Y00531289D01*
X00937478Y00528861D01*
X00939461Y00526878D01*
X00941889Y00525476D01*
X00944598Y0052475D01*
X00947402D01*
X00950111Y00525476D01*
X00952539Y00526878D01*
X00954522Y00528861D01*
X00955924Y00531289D01*
X0095665Y00533998D01*
Y00536802D01*
X00955924Y00539511D01*
X00954522Y00541939D01*
X00952539Y00543922D01*
X00950111Y00545324D01*
X00947402Y0054605D01*
D02*
G37*
G36*
X0115127Y0050547D02*
Y0050127D01*
X0115547D01*
X01154697Y00503138D01*
X01153138Y00504697D01*
X0115127Y0050547D01*
D02*
G37*
G36*
X0114873D02*
X01146862Y00504697D01*
X01145303Y00503138D01*
X0114453Y0050127D01*
X0114873D01*
Y0050547D01*
D02*
G37*
G36*
X0110127D02*
Y0050127D01*
X0110547D01*
X01104697Y00503138D01*
X01103138Y00504697D01*
X0110127Y0050547D01*
D02*
G37*
G36*
X0109873D02*
X01096862Y00504697D01*
X01095303Y00503138D01*
X0109453Y0050127D01*
X0109873D01*
Y0050547D01*
D02*
G37*
G36*
X0105127D02*
Y0050127D01*
X0105547D01*
X01054697Y00503138D01*
X01053138Y00504697D01*
X0105127Y0050547D01*
D02*
G37*
G36*
X0104873D02*
X01046862Y00504697D01*
X01045303Y00503138D01*
X0104453Y0050127D01*
X0104873D01*
Y0050547D01*
D02*
G37*
G36*
X0100127D02*
Y0050127D01*
X0100547D01*
X01004697Y00503138D01*
X01003138Y00504697D01*
X0100127Y0050547D01*
D02*
G37*
G36*
X0099873D02*
X00996862Y00504697D01*
X00995303Y00503138D01*
X0099453Y0050127D01*
X0099873D01*
Y0050547D01*
D02*
G37*
G36*
X0080127D02*
Y0050127D01*
X0080547D01*
X00804697Y00503138D01*
X00803138Y00504697D01*
X0080127Y0050547D01*
D02*
G37*
G36*
X0079873D02*
X00796862Y00504697D01*
X00795303Y00503138D01*
X0079453Y0050127D01*
X0079873D01*
Y0050547D01*
D02*
G37*
G36*
X0055127D02*
Y0050127D01*
X0055547D01*
X00554697Y00503138D01*
X00553138Y00504697D01*
X0055127Y0050547D01*
D02*
G37*
G36*
X0054873D02*
X00546862Y00504697D01*
X00545303Y00503138D01*
X0054453Y0050127D01*
X0054873D01*
Y0050547D01*
D02*
G37*
G36*
X0050127D02*
Y0050127D01*
X0050547D01*
X00504697Y00503138D01*
X00503138Y00504697D01*
X0050127Y0050547D01*
D02*
G37*
G36*
X0049873D02*
X00496862Y00504697D01*
X00495303Y00503138D01*
X0049453Y0050127D01*
X0049873D01*
Y0050547D01*
D02*
G37*
G36*
X01201402Y0052065D02*
X01198598D01*
X01195889Y00519924D01*
X01193461Y00518522D01*
X01191478Y00516539D01*
X01190076Y00514111D01*
X0118935Y00511402D01*
Y00508598D01*
X01190076Y00505889D01*
X01191478Y00503461D01*
X01193461Y00501478D01*
X01195889Y00500076D01*
X01198598Y0049935D01*
X01201402D01*
X01204111Y00500076D01*
X01206539Y00501478D01*
X01208522Y00503461D01*
X01209924Y00505889D01*
X0121065Y00508598D01*
Y00511402D01*
X01209924Y00514111D01*
X01208522Y00516539D01*
X01206539Y00518522D01*
X01204111Y00519924D01*
X01201402Y0052065D01*
D02*
G37*
G36*
X00947402D02*
X00944598D01*
X00941889Y00519924D01*
X00939461Y00518522D01*
X00937478Y00516539D01*
X00936076Y00514111D01*
X0093535Y00511402D01*
Y00508598D01*
X00936076Y00505889D01*
X00937478Y00503461D01*
X00939461Y00501478D01*
X00941889Y00500076D01*
X00944598Y0049935D01*
X00947402D01*
X00950111Y00500076D01*
X00952539Y00501478D01*
X00954522Y00503461D01*
X00955924Y00505889D01*
X0095665Y00508598D01*
Y00511402D01*
X00955924Y00514111D01*
X00954522Y00516539D01*
X00952539Y00518522D01*
X00950111Y00519924D01*
X00947402Y0052065D01*
D02*
G37*
G36*
X0115547Y0049873D02*
X0115127D01*
Y0049453D01*
X01153138Y00495303D01*
X01154697Y00496862D01*
X0115547Y0049873D01*
D02*
G37*
G36*
X0114873D02*
X0114453D01*
X01145303Y00496862D01*
X01146862Y00495303D01*
X0114873Y0049453D01*
Y0049873D01*
D02*
G37*
G36*
X0110547D02*
X0110127D01*
Y0049453D01*
X01103138Y00495303D01*
X01104697Y00496862D01*
X0110547Y0049873D01*
D02*
G37*
G36*
X0109873D02*
X0109453D01*
X01095303Y00496862D01*
X01096862Y00495303D01*
X0109873Y0049453D01*
Y0049873D01*
D02*
G37*
G36*
X0105547D02*
X0105127D01*
Y0049453D01*
X01053138Y00495303D01*
X01054697Y00496862D01*
X0105547Y0049873D01*
D02*
G37*
G36*
X0104873D02*
X0104453D01*
X01045303Y00496862D01*
X01046862Y00495303D01*
X0104873Y0049453D01*
Y0049873D01*
D02*
G37*
G36*
X0100547D02*
X0100127D01*
Y0049453D01*
X01003138Y00495303D01*
X01004697Y00496862D01*
X0100547Y0049873D01*
D02*
G37*
G36*
X0099873D02*
X0099453D01*
X00995303Y00496862D01*
X00996862Y00495303D01*
X0099873Y0049453D01*
Y0049873D01*
D02*
G37*
G36*
X0080547D02*
X0080127D01*
Y0049453D01*
X00803138Y00495303D01*
X00804697Y00496862D01*
X0080547Y0049873D01*
D02*
G37*
G36*
X0079873D02*
X0079453D01*
X00795303Y00496862D01*
X00796862Y00495303D01*
X0079873Y0049453D01*
Y0049873D01*
D02*
G37*
G36*
X0055547D02*
X0055127D01*
Y0049453D01*
X00553138Y00495303D01*
X00554697Y00496862D01*
X0055547Y0049873D01*
D02*
G37*
G36*
X0054873D02*
X0054453D01*
X00545303Y00496862D01*
X00546862Y00495303D01*
X0054873Y0049453D01*
Y0049873D01*
D02*
G37*
G36*
X0050547D02*
X0050127D01*
Y0049453D01*
X00503138Y00495303D01*
X00504697Y00496862D01*
X0050547Y0049873D01*
D02*
G37*
G36*
X0049873D02*
X0049453D01*
X00495303Y00496862D01*
X00496862Y00495303D01*
X0049873Y0049453D01*
Y0049873D01*
D02*
G37*
G36*
X01261322Y0051004D02*
X01258678D01*
X01256125Y00509356D01*
X01253835Y00508034D01*
X01251966Y00506165D01*
X01250644Y00503875D01*
X0124996Y00501322D01*
Y00498678D01*
X01250644Y00496124D01*
X01251966Y00493835D01*
X01253835Y00491966D01*
X01256125Y00490644D01*
X01258678Y0048996D01*
X01261322D01*
X01263875Y00490644D01*
X01266165Y00491966D01*
X01268034Y00493835D01*
X01269356Y00496124D01*
X0127004Y00498678D01*
Y00501322D01*
X01269356Y00503875D01*
X01268034Y00506165D01*
X01266165Y00508034D01*
X01263875Y00509356D01*
X01261322Y0051004D01*
D02*
G37*
G36*
X01201402Y0049525D02*
X01198598D01*
X01195889Y00494524D01*
X01193461Y00493122D01*
X01191478Y00491139D01*
X01190076Y00488711D01*
X0118935Y00486002D01*
Y00483198D01*
X01190076Y00480489D01*
X01191478Y00478061D01*
X01193461Y00476078D01*
X01195889Y00474676D01*
X01198598Y0047395D01*
X01201402D01*
X01204111Y00474676D01*
X01206539Y00476078D01*
X01208522Y00478061D01*
X01209924Y00480489D01*
X0121065Y00483198D01*
Y00486002D01*
X01209924Y00488711D01*
X01208522Y00491139D01*
X01206539Y00493122D01*
X01204111Y00494524D01*
X01201402Y0049525D01*
D02*
G37*
G36*
X00947402D02*
X00944598D01*
X00941889Y00494524D01*
X00939461Y00493122D01*
X00937478Y00491139D01*
X00936076Y00488711D01*
X0093535Y00486002D01*
Y00483198D01*
X00936076Y00480489D01*
X00937478Y00478061D01*
X00939461Y00476078D01*
X00941889Y00474676D01*
X00944598Y0047395D01*
X00947402D01*
X00950111Y00474676D01*
X00952539Y00476078D01*
X00954522Y00478061D01*
X00955924Y00480489D01*
X0095665Y00483198D01*
Y00486002D01*
X00955924Y00488711D01*
X00954522Y00491139D01*
X00952539Y00493122D01*
X00950111Y00494524D01*
X00947402Y0049525D01*
D02*
G37*
G36*
X01261322Y0048504D02*
X01258678D01*
X01256125Y00484356D01*
X01253835Y00483034D01*
X01251966Y00481165D01*
X01250644Y00478875D01*
X0124996Y00476322D01*
Y00473678D01*
X01250644Y00471125D01*
X01251966Y00468835D01*
X01253835Y00466966D01*
X01256125Y00465644D01*
X01258678Y0046496D01*
X01261322D01*
X01263875Y00465644D01*
X01266165Y00466966D01*
X01268034Y00468835D01*
X01269356Y00471125D01*
X0127004Y00473678D01*
Y00476322D01*
X01269356Y00478875D01*
X01268034Y00481165D01*
X01266165Y00483034D01*
X01263875Y00484356D01*
X01261322Y0048504D01*
D02*
G37*
G36*
X0107627Y0045547D02*
Y0045127D01*
X0108047D01*
X01079697Y00453138D01*
X01078138Y00454697D01*
X0107627Y0045547D01*
D02*
G37*
G36*
X0107373D02*
X01071862Y00454697D01*
X01070303Y00453138D01*
X0106953Y0045127D01*
X0107373D01*
Y0045547D01*
D02*
G37*
G36*
X0102627D02*
Y0045127D01*
X0103047D01*
X01029697Y00453138D01*
X01028138Y00454697D01*
X0102627Y0045547D01*
D02*
G37*
G36*
X0102373D02*
X01021862Y00454697D01*
X01020303Y00453138D01*
X0101953Y0045127D01*
X0102373D01*
Y0045547D01*
D02*
G37*
G36*
X0097627D02*
Y0045127D01*
X0098047D01*
X00979697Y00453138D01*
X00978138Y00454697D01*
X0097627Y0045547D01*
D02*
G37*
G36*
X0097373D02*
X00971862Y00454697D01*
X00970303Y00453138D01*
X0096953Y0045127D01*
X0097373D01*
Y0045547D01*
D02*
G37*
G36*
X0077627D02*
Y0045127D01*
X0078047D01*
X00779697Y00453138D01*
X00778138Y00454697D01*
X0077627Y0045547D01*
D02*
G37*
G36*
X0077373D02*
X00771862Y00454697D01*
X00770303Y00453138D01*
X0076953Y0045127D01*
X0077373D01*
Y0045547D01*
D02*
G37*
G36*
X0062627D02*
Y0045127D01*
X0063047D01*
X00629697Y00453138D01*
X00628138Y00454697D01*
X0062627Y0045547D01*
D02*
G37*
G36*
X0062373D02*
X00621862Y00454697D01*
X00620303Y00453138D01*
X0061953Y0045127D01*
X0062373D01*
Y0045547D01*
D02*
G37*
G36*
X0037627D02*
Y0045127D01*
X0038047D01*
X00379697Y00453138D01*
X00378138Y00454697D01*
X0037627Y0045547D01*
D02*
G37*
G36*
X0037373D02*
X00371862Y00454697D01*
X00370303Y00453138D01*
X0036953Y0045127D01*
X0037373D01*
Y0045547D01*
D02*
G37*
G36*
X01201402Y0046985D02*
X01198598D01*
X01195889Y00469124D01*
X01193461Y00467722D01*
X01191478Y00465739D01*
X01190076Y00463311D01*
X0118935Y00460602D01*
Y00457798D01*
X01190076Y00455089D01*
X01191478Y00452661D01*
X01193461Y00450678D01*
X01195889Y00449276D01*
X01198598Y0044855D01*
X01201402D01*
X01204111Y00449276D01*
X01206539Y00450678D01*
X01208522Y00452661D01*
X01209924Y00455089D01*
X0121065Y00457798D01*
Y00460602D01*
X01209924Y00463311D01*
X01208522Y00465739D01*
X01206539Y00467722D01*
X01204111Y00469124D01*
X01201402Y0046985D01*
D02*
G37*
G36*
X00947402D02*
X00944598D01*
X00941889Y00469124D01*
X00939461Y00467722D01*
X00937478Y00465739D01*
X00936076Y00463311D01*
X0093535Y00460602D01*
Y00457798D01*
X00936076Y00455089D01*
X00937478Y00452661D01*
X00939461Y00450678D01*
X00941889Y00449276D01*
X00944598Y0044855D01*
X00947402D01*
X00950111Y00449276D01*
X00952539Y00450678D01*
X00954522Y00452661D01*
X00955924Y00455089D01*
X0095665Y00457798D01*
Y00460602D01*
X00955924Y00463311D01*
X00954522Y00465739D01*
X00952539Y00467722D01*
X00950111Y00469124D01*
X00947402Y0046985D01*
D02*
G37*
G36*
X0108047Y0044873D02*
X0107627D01*
Y0044453D01*
X01078138Y00445303D01*
X01079697Y00446862D01*
X0108047Y0044873D01*
D02*
G37*
G36*
X0107373D02*
X0106953D01*
X01070303Y00446862D01*
X01071862Y00445303D01*
X0107373Y0044453D01*
Y0044873D01*
D02*
G37*
G36*
X0103047D02*
X0102627D01*
Y0044453D01*
X01028138Y00445303D01*
X01029697Y00446862D01*
X0103047Y0044873D01*
D02*
G37*
G36*
X0102373D02*
X0101953D01*
X01020303Y00446862D01*
X01021862Y00445303D01*
X0102373Y0044453D01*
Y0044873D01*
D02*
G37*
G36*
X0098047D02*
X0097627D01*
Y0044453D01*
X00978138Y00445303D01*
X00979697Y00446862D01*
X0098047Y0044873D01*
D02*
G37*
G36*
X0097373D02*
X0096953D01*
X00970303Y00446862D01*
X00971862Y00445303D01*
X0097373Y0044453D01*
Y0044873D01*
D02*
G37*
G36*
X0083047D02*
X0082627D01*
Y0044453D01*
X00828138Y00445303D01*
X00829697Y00446862D01*
X0083047Y0044873D01*
D02*
G37*
G36*
X0082373D02*
X0081953D01*
X00820303Y00446862D01*
X00821862Y00445303D01*
X0082373Y0044453D01*
Y0044873D01*
D02*
G37*
G36*
X0078047D02*
X0077627D01*
Y0044453D01*
X00778138Y00445303D01*
X00779697Y00446862D01*
X0078047Y0044873D01*
D02*
G37*
G36*
X0077373D02*
X0076953D01*
X00770303Y00446862D01*
X00771862Y00445303D01*
X0077373Y0044453D01*
Y0044873D01*
D02*
G37*
G36*
X0063047D02*
X0062627D01*
Y0044453D01*
X00628138Y00445303D01*
X00629697Y00446862D01*
X0063047Y0044873D01*
D02*
G37*
G36*
X0062373D02*
X0061953D01*
X00620303Y00446862D01*
X00621862Y00445303D01*
X0062373Y0044453D01*
Y0044873D01*
D02*
G37*
G36*
X0047373D02*
X0046953D01*
X00470303Y00446862D01*
X00471862Y00445303D01*
X0047373Y0044453D01*
Y0044873D01*
D02*
G37*
G36*
X0038047D02*
X0037627D01*
Y0044453D01*
X00378138Y00445303D01*
X00379697Y00446862D01*
X0038047Y0044873D01*
D02*
G37*
G36*
X0037373D02*
X0036953D01*
X00370303Y00446862D01*
X00371862Y00445303D01*
X0037373Y0044453D01*
Y0044873D01*
D02*
G37*
G36*
X01261322Y0046004D02*
X01258678D01*
X01256125Y00459356D01*
X01253835Y00458034D01*
X01251966Y00456165D01*
X01250644Y00453875D01*
X0124996Y00451322D01*
Y00448678D01*
X01250644Y00446125D01*
X01251966Y00443835D01*
X01253835Y00441966D01*
X01256125Y00440644D01*
X01258678Y0043996D01*
X01261322D01*
X01263875Y00440644D01*
X01266165Y00441966D01*
X01268034Y00443835D01*
X01269356Y00446125D01*
X0127004Y00448678D01*
Y00451322D01*
X01269356Y00453875D01*
X01268034Y00456165D01*
X01266165Y00458034D01*
X01263875Y00459356D01*
X01261322Y0046004D01*
D02*
G37*
G36*
X01201402Y0044445D02*
X01198598D01*
X01195889Y00443724D01*
X01193461Y00442322D01*
X01191478Y00440339D01*
X01190076Y00437911D01*
X0118935Y00435202D01*
Y00432398D01*
X01190076Y00429689D01*
X01191478Y00427261D01*
X01193461Y00425278D01*
X01195889Y00423876D01*
X01198598Y0042315D01*
X01201402D01*
X01204111Y00423876D01*
X01206539Y00425278D01*
X01208522Y00427261D01*
X01209924Y00429689D01*
X0121065Y00432398D01*
Y00435202D01*
X01209924Y00437911D01*
X01208522Y00440339D01*
X01206539Y00442322D01*
X01204111Y00443724D01*
X01201402Y0044445D01*
D02*
G37*
G36*
X00947402D02*
X00944598D01*
X00941889Y00443724D01*
X00939461Y00442322D01*
X00937478Y00440339D01*
X00936076Y00437911D01*
X0093535Y00435202D01*
Y00432398D01*
X00936076Y00429689D01*
X00937478Y00427261D01*
X00939461Y00425278D01*
X00941889Y00423876D01*
X00944598Y0042315D01*
X00947402D01*
X00950111Y00423876D01*
X00952539Y00425278D01*
X00954522Y00427261D01*
X00955924Y00429689D01*
X0095665Y00432398D01*
Y00435202D01*
X00955924Y00437911D01*
X00954522Y00440339D01*
X00952539Y00442322D01*
X00950111Y00443724D01*
X00947402Y0044445D01*
D02*
G37*
G36*
X01261322Y0043504D02*
X01258678D01*
X01256125Y00434356D01*
X01253835Y00433034D01*
X01251966Y00431164D01*
X01250644Y00428875D01*
X0124996Y00426321D01*
Y00423678D01*
X01250644Y00421124D01*
X01251966Y00418835D01*
X01253835Y00416966D01*
X01256125Y00415644D01*
X01258678Y0041496D01*
X01261322D01*
X01263875Y00415644D01*
X01266165Y00416966D01*
X01268034Y00418835D01*
X01269356Y00421124D01*
X0127004Y00423678D01*
Y00426321D01*
X01269356Y00428875D01*
X01268034Y00431164D01*
X01266165Y00433034D01*
X01263875Y00434356D01*
X01261322Y0043504D01*
D02*
G37*
G36*
X0115127Y0040547D02*
Y0040127D01*
X0115547D01*
X01154697Y00403138D01*
X01153138Y00404697D01*
X0115127Y0040547D01*
D02*
G37*
G36*
X0114873D02*
X01146862Y00404697D01*
X01145303Y00403138D01*
X0114453Y0040127D01*
X0114873D01*
Y0040547D01*
D02*
G37*
G36*
X0105127D02*
Y0040127D01*
X0105547D01*
X01054697Y00403138D01*
X01053138Y00404697D01*
X0105127Y0040547D01*
D02*
G37*
G36*
X0104873D02*
X01046862Y00404697D01*
X01045303Y00403138D01*
X0104453Y0040127D01*
X0104873D01*
Y0040547D01*
D02*
G37*
G36*
X0100127D02*
Y0040127D01*
X0100547D01*
X01004697Y00403138D01*
X01003138Y00404697D01*
X0100127Y0040547D01*
D02*
G37*
G36*
X0099873D02*
X00996862Y00404697D01*
X00995303Y00403138D01*
X0099453Y0040127D01*
X0099873D01*
Y0040547D01*
D02*
G37*
G36*
X0085127D02*
Y0040127D01*
X0085547D01*
X00854697Y00403138D01*
X00853138Y00404697D01*
X0085127Y0040547D01*
D02*
G37*
G36*
X0084873D02*
X00846862Y00404697D01*
X00845303Y00403138D01*
X0084453Y0040127D01*
X0084873D01*
Y0040547D01*
D02*
G37*
G36*
X0080127D02*
Y0040127D01*
X0080547D01*
X00804697Y00403138D01*
X00803138Y00404697D01*
X0080127Y0040547D01*
D02*
G37*
G36*
X0079873D02*
X00796862Y00404697D01*
X00795303Y00403138D01*
X0079453Y0040127D01*
X0079873D01*
Y0040547D01*
D02*
G37*
G36*
X0075127D02*
Y0040127D01*
X0075547D01*
X00754697Y00403138D01*
X00753138Y00404697D01*
X0075127Y0040547D01*
D02*
G37*
G36*
X0074873D02*
X00746862Y00404697D01*
X00745303Y00403138D01*
X0074453Y0040127D01*
X0074873D01*
Y0040547D01*
D02*
G37*
G36*
X0060127D02*
Y0040127D01*
X0060547D01*
X00604697Y00403138D01*
X00603138Y00404697D01*
X0060127Y0040547D01*
D02*
G37*
G36*
X0059873D02*
X00596862Y00404697D01*
X00595303Y00403138D01*
X0059453Y0040127D01*
X0059873D01*
Y0040547D01*
D02*
G37*
G36*
X0050127D02*
Y0040127D01*
X0050547D01*
X00504697Y00403138D01*
X00503138Y00404697D01*
X0050127Y0040547D01*
D02*
G37*
G36*
X0049873D02*
X00496862Y00404697D01*
X00495303Y00403138D01*
X0049453Y0040127D01*
X0049873D01*
Y0040547D01*
D02*
G37*
G36*
X01201402Y0041905D02*
X01198598D01*
X01195889Y00418324D01*
X01193461Y00416922D01*
X01191478Y00414939D01*
X01190076Y00412511D01*
X0118935Y00409802D01*
Y00406998D01*
X01190076Y00404289D01*
X01191478Y00401861D01*
X01193461Y00399878D01*
X01195889Y00398476D01*
X01198598Y0039775D01*
X01201402D01*
X01204111Y00398476D01*
X01206539Y00399878D01*
X01208522Y00401861D01*
X01209924Y00404289D01*
X0121065Y00406998D01*
Y00409802D01*
X01209924Y00412511D01*
X01208522Y00414939D01*
X01206539Y00416922D01*
X01204111Y00418324D01*
X01201402Y0041905D01*
D02*
G37*
G36*
X0115547Y0039873D02*
X0115127D01*
Y0039453D01*
X01153138Y00395303D01*
X01154697Y00396862D01*
X0115547Y0039873D01*
D02*
G37*
G36*
X0114873D02*
X0114453D01*
X01145303Y00396862D01*
X01146862Y00395303D01*
X0114873Y0039453D01*
Y0039873D01*
D02*
G37*
G36*
X0105547D02*
X0105127D01*
Y0039453D01*
X01053138Y00395303D01*
X01054697Y00396862D01*
X0105547Y0039873D01*
D02*
G37*
G36*
X0104873D02*
X0104453D01*
X01045303Y00396862D01*
X01046862Y00395303D01*
X0104873Y0039453D01*
Y0039873D01*
D02*
G37*
G36*
X0100547D02*
X0100127D01*
Y0039453D01*
X01003138Y00395303D01*
X01004697Y00396862D01*
X0100547Y0039873D01*
D02*
G37*
G36*
X0099873D02*
X0099453D01*
X00995303Y00396862D01*
X00996862Y00395303D01*
X0099873Y0039453D01*
Y0039873D01*
D02*
G37*
G36*
X0085547D02*
X0085127D01*
Y0039453D01*
X00853138Y00395303D01*
X00854697Y00396862D01*
X0085547Y0039873D01*
D02*
G37*
G36*
X0084873D02*
X0084453D01*
X00845303Y00396862D01*
X00846862Y00395303D01*
X0084873Y0039453D01*
Y0039873D01*
D02*
G37*
G36*
X0080547D02*
X0080127D01*
Y0039453D01*
X00803138Y00395303D01*
X00804697Y00396862D01*
X0080547Y0039873D01*
D02*
G37*
G36*
X0079873D02*
X0079453D01*
X00795303Y00396862D01*
X00796862Y00395303D01*
X0079873Y0039453D01*
Y0039873D01*
D02*
G37*
G36*
X0075547D02*
X0075127D01*
Y0039453D01*
X00753138Y00395303D01*
X00754697Y00396862D01*
X0075547Y0039873D01*
D02*
G37*
G36*
X0074873D02*
X0074453D01*
X00745303Y00396862D01*
X00746862Y00395303D01*
X0074873Y0039453D01*
Y0039873D01*
D02*
G37*
G36*
X0060547D02*
X0060127D01*
Y0039453D01*
X00603138Y00395303D01*
X00604697Y00396862D01*
X0060547Y0039873D01*
D02*
G37*
G36*
X0059873D02*
X0059453D01*
X00595303Y00396862D01*
X00596862Y00395303D01*
X0059873Y0039453D01*
Y0039873D01*
D02*
G37*
G36*
X0050547D02*
X0050127D01*
Y0039453D01*
X00503138Y00395303D01*
X00504697Y00396862D01*
X0050547Y0039873D01*
D02*
G37*
G36*
X0049873D02*
X0049453D01*
X00495303Y00396862D01*
X00496862Y00395303D01*
X0049873Y0039453D01*
Y0039873D01*
D02*
G37*
G36*
X01261322Y0041004D02*
X01258678D01*
X01256125Y00409356D01*
X01253835Y00408034D01*
X01251966Y00406165D01*
X01250644Y00403875D01*
X0124996Y00401322D01*
Y00398678D01*
X01250644Y00396125D01*
X01251966Y00393835D01*
X01253835Y00391966D01*
X01256125Y00390644D01*
X01258678Y0038996D01*
X01261322D01*
X01263875Y00390644D01*
X01266165Y00391966D01*
X01268034Y00393835D01*
X01269356Y00396125D01*
X0127004Y00398678D01*
Y00401322D01*
X01269356Y00403875D01*
X01268034Y00406165D01*
X01266165Y00408034D01*
X01263875Y00409356D01*
X01261322Y0041004D01*
D02*
G37*
G36*
X01201402Y0039365D02*
X01198598D01*
X01195889Y00392924D01*
X01193461Y00391522D01*
X01191478Y00389539D01*
X01190076Y00387111D01*
X0118935Y00384402D01*
Y00381598D01*
X01190076Y00378889D01*
X01191478Y00376461D01*
X01193461Y00374478D01*
X01195889Y00373076D01*
X01198598Y0037235D01*
X01201402D01*
X01204111Y00373076D01*
X01206539Y00374478D01*
X01208522Y00376461D01*
X01209924Y00378889D01*
X0121065Y00381598D01*
Y00384402D01*
X01209924Y00387111D01*
X01208522Y00389539D01*
X01206539Y00391522D01*
X01204111Y00392924D01*
X01201402Y0039365D01*
D02*
G37*
G36*
X00947402D02*
X00944598D01*
X00941889Y00392924D01*
X00939461Y00391522D01*
X00937478Y00389539D01*
X00936076Y00387111D01*
X0093535Y00384402D01*
Y00381598D01*
X00936076Y00378889D01*
X00937478Y00376461D01*
X00939461Y00374478D01*
X00941889Y00373076D01*
X00944598Y0037235D01*
X00947402D01*
X00950111Y00373076D01*
X00952539Y00374478D01*
X00954522Y00376461D01*
X00955924Y00378889D01*
X0095665Y00381598D01*
Y00384402D01*
X00955924Y00387111D01*
X00954522Y00389539D01*
X00952539Y00391522D01*
X00950111Y00392924D01*
X00947402Y0039365D01*
D02*
G37*
G36*
X01261322Y0038504D02*
X01258678D01*
X01256125Y00384356D01*
X01253835Y00383034D01*
X01251966Y00381165D01*
X01250644Y00378875D01*
X0124996Y00376322D01*
Y00373678D01*
X01250644Y00371124D01*
X01251966Y00368835D01*
X01253835Y00366966D01*
X01256125Y00365644D01*
X01258678Y0036496D01*
X01261322D01*
X01263875Y00365644D01*
X01266165Y00366966D01*
X01268034Y00368835D01*
X01269356Y00371124D01*
X0127004Y00373678D01*
Y00376322D01*
X01269356Y00378875D01*
X01268034Y00381165D01*
X01266165Y00383034D01*
X01263875Y00384356D01*
X01261322Y0038504D01*
D02*
G37*
G36*
X0112627Y0035547D02*
Y0035127D01*
X0113047D01*
X01129697Y00353138D01*
X01128138Y00354697D01*
X0112627Y0035547D01*
D02*
G37*
G36*
X0112373D02*
X01121862Y00354697D01*
X01120303Y00353138D01*
X0111953Y0035127D01*
X0112373D01*
Y0035547D01*
D02*
G37*
G36*
X0052627D02*
Y0035127D01*
X0053047D01*
X00529697Y00353138D01*
X00528138Y00354697D01*
X0052627Y0035547D01*
D02*
G37*
G36*
X0052373D02*
X00521862Y00354697D01*
X00520303Y00353138D01*
X0051953Y0035127D01*
X0052373D01*
Y0035547D01*
D02*
G37*
G36*
X0047627D02*
Y0035127D01*
X0048047D01*
X00479697Y00353138D01*
X00478138Y00354697D01*
X0047627Y0035547D01*
D02*
G37*
G36*
X0047373D02*
X00471862Y00354697D01*
X00470303Y00353138D01*
X0046953Y0035127D01*
X0047373D01*
Y0035547D01*
D02*
G37*
G36*
X01201402Y0036825D02*
X01198598D01*
X01195889Y00367524D01*
X01193461Y00366122D01*
X01191478Y00364139D01*
X01190076Y00361711D01*
X0118935Y00359002D01*
Y00356198D01*
X01190076Y00353489D01*
X01191478Y00351061D01*
X01193461Y00349078D01*
X01195889Y00347676D01*
X01198598Y0034695D01*
X01201402D01*
X01204111Y00347676D01*
X01206539Y00349078D01*
X01208522Y00351061D01*
X01209924Y00353489D01*
X0121065Y00356198D01*
Y00359002D01*
X01209924Y00361711D01*
X01208522Y00364139D01*
X01206539Y00366122D01*
X01204111Y00367524D01*
X01201402Y0036825D01*
D02*
G37*
G36*
X00947402D02*
X00944598D01*
X00941889Y00367524D01*
X00939461Y00366122D01*
X00937478Y00364139D01*
X00936076Y00361711D01*
X0093535Y00359002D01*
Y00356198D01*
X00936076Y00353489D01*
X00937478Y00351061D01*
X00939461Y00349078D01*
X00941889Y00347676D01*
X00944598Y0034695D01*
X00947402D01*
X00950111Y00347676D01*
X00952539Y00349078D01*
X00954522Y00351061D01*
X00955924Y00353489D01*
X0095665Y00356198D01*
Y00359002D01*
X00955924Y00361711D01*
X00954522Y00364139D01*
X00952539Y00366122D01*
X00950111Y00367524D01*
X00947402Y0036825D01*
D02*
G37*
G36*
X0113047Y0034873D02*
X0112627D01*
Y0034453D01*
X01128138Y00345303D01*
X01129697Y00346862D01*
X0113047Y0034873D01*
D02*
G37*
G36*
X0112373D02*
X0111953D01*
X01120303Y00346862D01*
X01121862Y00345303D01*
X0112373Y0034453D01*
Y0034873D01*
D02*
G37*
G36*
X0057373D02*
X0056953D01*
X00570303Y00346862D01*
X00571862Y00345303D01*
X0057373Y0034453D01*
Y0034873D01*
D02*
G37*
G36*
X0053047D02*
X0052627D01*
Y0034453D01*
X00528138Y00345303D01*
X00529697Y00346862D01*
X0053047Y0034873D01*
D02*
G37*
G36*
X0052373D02*
X0051953D01*
X00520303Y00346862D01*
X00521862Y00345303D01*
X0052373Y0034453D01*
Y0034873D01*
D02*
G37*
G36*
X0048047D02*
X0047627D01*
Y0034453D01*
X00478138Y00345303D01*
X00479697Y00346862D01*
X0048047Y0034873D01*
D02*
G37*
G36*
X0047373D02*
X0046953D01*
X00470303Y00346862D01*
X00471862Y00345303D01*
X0047373Y0034453D01*
Y0034873D01*
D02*
G37*
G36*
X01201402Y0034285D02*
X01198598D01*
X01195889Y00342124D01*
X01193461Y00340722D01*
X01191478Y00338739D01*
X01190076Y00336311D01*
X0118935Y00333602D01*
Y00330798D01*
X01190076Y00328089D01*
X01191478Y00325661D01*
X01193461Y00323678D01*
X01195889Y00322276D01*
X01198598Y0032155D01*
X01201402D01*
X01204111Y00322276D01*
X01206539Y00323678D01*
X01208522Y00325661D01*
X01209924Y00328089D01*
X0121065Y00330798D01*
Y00333602D01*
X01209924Y00336311D01*
X01208522Y00338739D01*
X01206539Y00340722D01*
X01204111Y00342124D01*
X01201402Y0034285D01*
D02*
G37*
G36*
X0115127Y0030547D02*
Y0030127D01*
X0115547D01*
X01154697Y00303138D01*
X01153138Y00304697D01*
X0115127Y0030547D01*
D02*
G37*
G36*
X0114873D02*
X01146862Y00304697D01*
X01145303Y00303138D01*
X0114453Y0030127D01*
X0114873D01*
Y0030547D01*
D02*
G37*
G36*
X0110127D02*
Y0030127D01*
X0110547D01*
X01104697Y00303138D01*
X01103138Y00304697D01*
X0110127Y0030547D01*
D02*
G37*
G36*
X0109873D02*
X01096862Y00304697D01*
X01095303Y00303138D01*
X0109453Y0030127D01*
X0109873D01*
Y0030547D01*
D02*
G37*
G36*
X0105127D02*
Y0030127D01*
X0105547D01*
X01054697Y00303138D01*
X01053138Y00304697D01*
X0105127Y0030547D01*
D02*
G37*
G36*
X0104873D02*
X01046862Y00304697D01*
X01045303Y00303138D01*
X0104453Y0030127D01*
X0104873D01*
Y0030547D01*
D02*
G37*
G36*
X0100127D02*
Y0030127D01*
X0100547D01*
X01004697Y00303138D01*
X01003138Y00304697D01*
X0100127Y0030547D01*
D02*
G37*
G36*
X0099873D02*
X00996862Y00304697D01*
X00995303Y00303138D01*
X0099453Y0030127D01*
X0099873D01*
Y0030547D01*
D02*
G37*
G36*
X0060127D02*
Y0030127D01*
X0060547D01*
X00604697Y00303138D01*
X00603138Y00304697D01*
X0060127Y0030547D01*
D02*
G37*
G36*
X0059873D02*
X00596862Y00304697D01*
X00595303Y00303138D01*
X0059453Y0030127D01*
X0059873D01*
Y0030547D01*
D02*
G37*
G36*
X0050127D02*
Y0030127D01*
X0050547D01*
X00504697Y00303138D01*
X00503138Y00304697D01*
X0050127Y0030547D01*
D02*
G37*
G36*
X0049873D02*
X00496862Y00304697D01*
X00495303Y00303138D01*
X0049453Y0030127D01*
X0049873D01*
Y0030547D01*
D02*
G37*
G36*
X0045127D02*
Y0030127D01*
X0045547D01*
X00454697Y00303138D01*
X00453138Y00304697D01*
X0045127Y0030547D01*
D02*
G37*
G36*
X0044873D02*
X00446862Y00304697D01*
X00445303Y00303138D01*
X0044453Y0030127D01*
X0044873D01*
Y0030547D01*
D02*
G37*
G36*
X00443084Y00881957D02*
X00440046Y00881658D01*
X00437124Y00880771D01*
X00434431Y00879332D01*
X00432071Y00877395D01*
X00430134Y00875035D01*
X00428695Y00872342D01*
X00427808Y0086942D01*
X00427509Y00866382D01*
Y00844645D01*
X00427808Y00841606D01*
X00428695Y00838684D01*
X00430134Y00835992D01*
X00432071Y00833632D01*
X00446716Y00818987D01*
X00449076Y0081705D01*
X00451768Y00815611D01*
X0045469Y00814724D01*
X00457729Y00814425D01*
X00705339D01*
X00705825Y00813252D01*
X00696237Y00803663D01*
X006943Y00801303D01*
X0069286Y0079861D01*
X00691974Y00795688D01*
X00691675Y0079265D01*
Y0073595D01*
Y0071055D01*
X00691974Y00707512D01*
X0069286Y0070459D01*
X006943Y00701897D01*
X00696237Y00699537D01*
X00698597Y006976D01*
X0070129Y00696161D01*
X00704211Y00695274D01*
X0070725Y00694975D01*
X0089275D01*
X00893098Y0069501D01*
X00893641Y00693861D01*
X00874294Y00674514D01*
X00873012Y00672843D01*
X00872206Y00670897D01*
X00871931Y00668809D01*
Y006422D01*
X00872206Y00640112D01*
X00873012Y00638166D01*
X00874294Y00636494D01*
X0088225Y00628539D01*
Y00628068D01*
X00882966Y00625397D01*
X00884348Y00623003D01*
X00886303Y00621048D01*
X00888697Y00619666D01*
X00891368Y0061895D01*
X00894132D01*
X00896803Y00619666D01*
X00899197Y00621048D01*
X00901152Y00623003D01*
X0090167Y00623899D01*
X0090294Y00623559D01*
Y00609941D01*
X0090167Y00609601D01*
X00901152Y00610497D01*
X00899197Y00612452D01*
X00896803Y00613834D01*
X00894132Y0061455D01*
X00891368D01*
X00888697Y00613834D01*
X00886303Y00612452D01*
X00884348Y00610497D01*
X00882966Y00608103D01*
X0088225Y00605432D01*
Y00602668D01*
X00882966Y00599997D01*
X00884348Y00597603D01*
X00886303Y00595648D01*
X00888697Y00594266D01*
X00891368Y0059355D01*
X00894132D01*
X00896803Y00594266D01*
X00899197Y00595648D01*
X00901152Y00597603D01*
X0090167Y00598499D01*
X0090294Y00598159D01*
Y00332924D01*
X00887076Y0031706D01*
X00632924D01*
X00429593Y00520392D01*
X0042813Y00521515D01*
X00426427Y0052222D01*
X004246Y0052246D01*
X00413379D01*
X0041229Y0052388D01*
X00409806Y00525786D01*
X00409384Y00525961D01*
X00409167Y00527425D01*
X00410813Y00528777D01*
X00411013Y00528977D01*
X0041295Y00531337D01*
X00414389Y0053403D01*
X00415276Y00536951D01*
X00415575Y0053999D01*
Y005408D01*
X00415276Y00543839D01*
X00414771Y00545503D01*
X00415894Y00546175D01*
X00636035Y00326035D01*
X00637854Y00324819D01*
X0064Y00324392D01*
X00862441D01*
X00862518Y00324259D01*
X00864259Y00322518D01*
X00866391Y00321287D01*
X00868769Y0032065D01*
X00871231D01*
X00873609Y00321287D01*
X00875741Y00322518D01*
X00877482Y00324259D01*
X00878713Y00326391D01*
X0087935Y00328769D01*
Y00331231D01*
X00878713Y00333609D01*
X00877482Y00335741D01*
X00875741Y00337482D01*
X00873609Y00338713D01*
X00871231Y0033935D01*
X00868769D01*
X00866391Y00338713D01*
X00864259Y00337482D01*
X00862518Y00335741D01*
X00862441Y00335608D01*
X00668649D01*
X00668331Y00336878D01*
X00668653Y0033705D01*
X00671013Y00338987D01*
X0067295Y00341347D01*
X00674389Y0034404D01*
X00675276Y00346962D01*
X00675575Y0035D01*
Y0047917D01*
X00709727Y00513321D01*
X007109Y00512835D01*
Y00511802D01*
X00711779Y00508521D01*
X00713477Y00505579D01*
X00715879Y00503177D01*
X00718821Y00501479D01*
X0071979Y00501219D01*
Y00499905D01*
X00718998Y00499692D01*
X00716162Y00498055D01*
X00713845Y00495738D01*
X00712208Y00492902D01*
X0071136Y00489738D01*
Y0048937D01*
X007238D01*
X0073624D01*
Y00489738D01*
X00735392Y00492902D01*
X00733754Y00495738D01*
X00731438Y00498055D01*
X00728602Y00499692D01*
X0072781Y00499905D01*
Y00501219D01*
X00728779Y00501479D01*
X00731721Y00503177D01*
X00733974Y00505431D01*
X0074714D01*
X00795576Y00456994D01*
X00797247Y00455712D01*
X00799193Y00454906D01*
X00801282Y00454631D01*
X00820137D01*
X00820623Y00453458D01*
X00820303Y00453138D01*
X0081953Y0045127D01*
X0083047D01*
X00829697Y00453138D01*
X00829377Y00453458D01*
X00829863Y00454631D01*
X00866026D01*
X00868279Y00452377D01*
X00871221Y00450679D01*
X00871385Y00450635D01*
Y00449365D01*
X00871221Y00449321D01*
X00868279Y00447622D01*
X00865877Y00445221D01*
X00864179Y00442279D01*
X008633Y00438998D01*
Y00435602D01*
X00864179Y00432321D01*
X00865877Y00429379D01*
X00868279Y00426977D01*
X00871221Y00425279D01*
X00871385Y00425235D01*
Y00423965D01*
X00871221Y00423921D01*
X00868279Y00422223D01*
X00865877Y00419821D01*
X00864179Y00416879D01*
X008633Y00413598D01*
Y00410202D01*
X00864179Y00406921D01*
X00865877Y00403979D01*
X00868279Y00401577D01*
X00871221Y00399879D01*
X00871385Y00399835D01*
Y00398565D01*
X00871221Y00398521D01*
X00868279Y00396823D01*
X00865877Y00394421D01*
X00864179Y00391479D01*
X008633Y00388198D01*
Y00384802D01*
X00864179Y00381521D01*
X00865877Y00378579D01*
X00866608Y00377848D01*
X00866122Y00376675D01*
X00733878D01*
X00733392Y00377848D01*
X00734122Y00378579D01*
X00735821Y00381521D01*
X007367Y00384802D01*
Y00388198D01*
X00735821Y00391479D01*
X00734122Y00394421D01*
X00731721Y00396823D01*
X00728779Y00398521D01*
X00728615Y00398565D01*
Y00399835D01*
X00728779Y00399879D01*
X00731721Y00401577D01*
X00734122Y00403979D01*
X00735821Y00406921D01*
X007367Y00410202D01*
Y00413598D01*
X00735821Y00416879D01*
X00734122Y00419821D01*
X00731721Y00422223D01*
X00728779Y00423921D01*
X00728615Y00423965D01*
Y00425235D01*
X00728779Y00425279D01*
X00731721Y00426977D01*
X00734122Y00429379D01*
X00735821Y00432321D01*
X007367Y00435602D01*
Y00438998D01*
X00735821Y00442279D01*
X00734122Y00445221D01*
X00731721Y00447622D01*
X00728779Y00449321D01*
X00728615Y00449365D01*
Y00450635D01*
X00728779Y00450679D01*
X00731721Y00452377D01*
X00734122Y00454779D01*
X00735821Y00457721D01*
X007367Y00461002D01*
Y00464398D01*
X00735821Y00467679D01*
X00734122Y00470621D01*
X00731721Y00473022D01*
X00728779Y00474721D01*
X0072781Y00474981D01*
Y00476296D01*
X00728602Y00476508D01*
X00731438Y00478145D01*
X00733754Y00480462D01*
X00735392Y00483298D01*
X0073624Y00486462D01*
Y0048683D01*
X007238D01*
X0071136D01*
Y00486462D01*
X00712208Y00483298D01*
X00713845Y00480462D01*
X00716162Y00478145D01*
X00718998Y00476508D01*
X0071979Y00476296D01*
Y00474981D01*
X00718821Y00474721D01*
X00715879Y00473022D01*
X00713477Y00470621D01*
X00711779Y00467679D01*
X007109Y00464398D01*
Y00461002D01*
X00711779Y00457721D01*
X00713477Y00454779D01*
X00715879Y00452377D01*
X00718821Y00450679D01*
X00718985Y00450635D01*
Y00449365D01*
X00718821Y00449321D01*
X00715879Y00447622D01*
X00713477Y00445221D01*
X00711779Y00442279D01*
X007109Y00438998D01*
Y00435602D01*
X00711779Y00432321D01*
X00713477Y00429379D01*
X00715879Y00426977D01*
X00718821Y00425279D01*
X00718985Y00425235D01*
Y00423965D01*
X00718821Y00423921D01*
X00715879Y00422223D01*
X00713477Y00419821D01*
X00711779Y00416879D01*
X007109Y00413598D01*
Y00410202D01*
X00711779Y00406921D01*
X00713477Y00403979D01*
X00715879Y00401577D01*
X00718821Y00399879D01*
X00718985Y00399835D01*
Y00398565D01*
X00718821Y00398521D01*
X00715879Y00396823D01*
X00713477Y00394421D01*
X00711779Y00391479D01*
X007109Y00388198D01*
Y00384802D01*
X00711779Y00381521D01*
X00713477Y00378579D01*
X00715879Y00376177D01*
X00716308Y0037593D01*
X00716288Y0037466D01*
X00715147Y0037405D01*
X00712787Y00372113D01*
X0071085Y00369753D01*
X0070941Y0036706D01*
X00708524Y00364138D01*
X00708225Y003611D01*
X00708524Y00358061D01*
X0070941Y0035514D01*
X0071085Y00352447D01*
X00712787Y00350087D01*
X00715147Y0034815D01*
X0071784Y00346711D01*
X00720761Y00345824D01*
X007238Y00345525D01*
X008762D01*
X00879238Y00345824D01*
X0088216Y00346711D01*
X00884853Y0034815D01*
X00887213Y00350087D01*
X0088915Y00352447D01*
X00890589Y0035514D01*
X00891476Y00358061D01*
X00891775Y003611D01*
X00891476Y00364138D01*
X00890589Y0036706D01*
X0088915Y00369753D01*
X00887213Y00372113D01*
X00884853Y0037405D01*
X00883712Y0037466D01*
X00883691Y0037593D01*
X00884121Y00376177D01*
X00886523Y00378579D01*
X00888221Y00381521D01*
X008891Y00384802D01*
Y00388198D01*
X00888221Y00391479D01*
X00886523Y00394421D01*
X00884121Y00396823D01*
X00881179Y00398521D01*
X00881014Y00398565D01*
Y00399835D01*
X00881179Y00399879D01*
X00884121Y00401577D01*
X00886523Y00403979D01*
X00888221Y00406921D01*
X008891Y00410202D01*
Y00413598D01*
X00888221Y00416879D01*
X00886523Y00419821D01*
X00884121Y00422223D01*
X00881179Y00423921D01*
X00881014Y00423965D01*
Y00425235D01*
X00881179Y00425279D01*
X00884121Y00426977D01*
X00886523Y00429379D01*
X00888221Y00432321D01*
X008891Y00435602D01*
Y00438998D01*
X00888221Y00442279D01*
X00886523Y00445221D01*
X00884121Y00447622D01*
X00881179Y00449321D01*
X00881014Y00449365D01*
Y00450635D01*
X00881179Y00450679D01*
X00884121Y00452377D01*
X00886523Y00454779D01*
X00888221Y00457721D01*
X008891Y00461002D01*
Y00464398D01*
X00888221Y00467679D01*
X00886523Y00470621D01*
X00884121Y00473022D01*
X00881179Y00474721D01*
X00881014Y00474765D01*
Y00476035D01*
X00881179Y00476079D01*
X00884121Y00477777D01*
X00886523Y00480179D01*
X00888221Y00483121D01*
X008891Y00486402D01*
Y00489798D01*
X00888221Y00493079D01*
X00886523Y00496021D01*
X00884121Y00498423D01*
X00881179Y00500121D01*
X00881014Y00500165D01*
Y00501435D01*
X00881179Y00501479D01*
X00884121Y00503177D01*
X00886523Y00505579D01*
X00888221Y00508521D01*
X008891Y00511802D01*
Y00515198D01*
X00888221Y00518479D01*
X00886523Y00521421D01*
X00884121Y00523823D01*
X00881179Y00525521D01*
X00881014Y00525565D01*
Y00526835D01*
X00881179Y00526879D01*
X00884121Y00528577D01*
X00886523Y00530979D01*
X00888221Y00533921D01*
X008891Y00537202D01*
Y00540598D01*
X00888221Y00543879D01*
X00886523Y00546821D01*
X00884121Y00549222D01*
X00881179Y00550921D01*
X00877898Y005518D01*
X00874502D01*
X00871221Y00550921D01*
X00868279Y00549222D01*
X00865877Y00546821D01*
X00864179Y00543879D01*
X008633Y00540598D01*
Y00537202D01*
X00864179Y00533921D01*
X00865877Y00530979D01*
X00868279Y00528577D01*
X00871221Y00526879D01*
X00871385Y00526835D01*
Y00525565D01*
X00871221Y00525521D01*
X00868279Y00523823D01*
X00865877Y00521421D01*
X00864179Y00518479D01*
X008633Y00515198D01*
Y00511802D01*
X00864179Y00508521D01*
X00865877Y00505579D01*
X00868279Y00503177D01*
X00871221Y00501479D01*
X00871385Y00501435D01*
Y00500165D01*
X00871221Y00500121D01*
X00868279Y00498423D01*
X00865877Y00496021D01*
X00864179Y00493079D01*
X008633Y00489798D01*
Y00486402D01*
X00864179Y00483121D01*
X00865877Y00480179D01*
X00868279Y00477777D01*
X00871221Y00476079D01*
X00871385Y00476035D01*
Y00474765D01*
X00871221Y00474721D01*
X00868279Y00473022D01*
X00866026Y00470769D01*
X00804624D01*
X00756188Y00519206D01*
X00754516Y00520488D01*
X0075257Y00521294D01*
X00750482Y00521569D01*
X00748531D01*
X00748045Y00522742D01*
X00757264Y00531962D01*
X00758547Y00533633D01*
X00759353Y00535579D01*
X00759628Y00537668D01*
Y00562583D01*
X00759353Y00564672D01*
X00758547Y00566618D01*
X00757264Y00568289D01*
X00751407Y00574147D01*
X00749735Y00575429D01*
X00747789Y00576235D01*
X00745701Y0057651D01*
X00674901D01*
X00595706Y00655706D01*
X00594035Y00656988D01*
X00592088Y00657794D01*
X0059Y00658069D01*
X0042D01*
X00417912Y00657794D01*
X00415965Y00656988D01*
X00414294Y00655706D01*
X00407635Y00649046D01*
X00406391Y00648713D01*
X00404259Y00647482D01*
X00402518Y00645741D01*
X00401287Y00643609D01*
X0040065Y00641231D01*
Y00638769D01*
X00401287Y00636391D01*
X00402518Y00634259D01*
X00404259Y00632518D01*
X00406391Y00631287D01*
X00408769Y0063065D01*
X00411231D01*
X00413609Y00631287D01*
X00415741Y00632518D01*
X00417482Y00634259D01*
X00418713Y00636391D01*
X00419046Y00637635D01*
X00423342Y00641931D01*
X00586658D01*
X00665853Y00562735D01*
X00667524Y00561453D01*
X0066947Y00560647D01*
X00671559Y00560372D01*
X00742359D01*
X0074349Y00559241D01*
Y0054101D01*
X00740489Y00538009D01*
X00739341Y00538552D01*
X00739375Y005389D01*
X00739076Y00541939D01*
X00738189Y0054486D01*
X0073675Y00547553D01*
X00734813Y00549913D01*
X00732453Y0055185D01*
X0072976Y00553289D01*
X00726838Y00554176D01*
X007238Y00554475D01*
X00713279D01*
X0071024Y00554176D01*
X00707319Y00553289D01*
X00704626Y0055185D01*
X00702266Y00549913D01*
X00648987Y00496634D01*
X0064705Y00494274D01*
X00645611Y00491581D01*
X00644724Y0048866D01*
X00644425Y00485621D01*
Y0035D01*
X00644724Y00346962D01*
X00645611Y0034404D01*
X0064705Y00341347D01*
X00648987Y00338987D01*
X00651347Y0033705D01*
X00651669Y00336878D01*
X00651351Y00335608D01*
X00642323D01*
X00423808Y00554123D01*
Y0057216D01*
X00423381Y00574306D01*
X00422165Y00576126D01*
X00415808Y00582483D01*
Y0058521D01*
X004157Y00585752D01*
Y0060349D01*
X003843D01*
Y0057971D01*
X00403631D01*
X00403709Y00579529D01*
X00403707Y00579376D01*
X00402905Y00578193D01*
X0039619D01*
X00393086Y00577784D01*
X00390194Y00576586D01*
X0038771Y0057468D01*
X00385804Y00572196D01*
X00384606Y00569304D01*
X00384197Y005662D01*
X00384606Y00563096D01*
X00385804Y00560204D01*
X0038771Y0055772D01*
X00389124Y00556635D01*
X00388693Y00555365D01*
X00386087D01*
X00383049Y00555066D01*
X00380127Y00554179D01*
X00377434Y0055274D01*
X00375074Y00550803D01*
X00360787Y00536516D01*
X0035885Y00534156D01*
X00357411Y00531463D01*
X00356524Y00528541D01*
X00356225Y00525503D01*
Y00505297D01*
X00356524Y00502259D01*
X00357411Y00499337D01*
X0035885Y00496644D01*
X00360787Y00494284D01*
X00375074Y00479997D01*
X00377434Y0047806D01*
X00380127Y00476621D01*
X00383049Y00475734D01*
X00386087Y00475435D01*
X00389126Y00475734D01*
X00389644Y00474564D01*
X0038771Y0047308D01*
X00385804Y00470596D01*
X00384606Y00467704D01*
X00384197Y004646D01*
X00384606Y00461496D01*
X00385804Y00458604D01*
X0038771Y0045612D01*
X00390194Y00454214D01*
X00393086Y00453016D01*
X0039619Y00452607D01*
X00401917D01*
X00402004Y00452463D01*
X00401285Y00451193D01*
X0039619D01*
X00393086Y00450784D01*
X00390194Y00449586D01*
X0038771Y0044768D01*
X00385804Y00445196D01*
X00384606Y00442304D01*
X00384197Y004392D01*
X00384606Y00436096D01*
X00385804Y00433204D01*
X00385921Y00433051D01*
X00376035Y00423165D01*
X00374819Y00421346D01*
X00374392Y004192D01*
Y00072929D01*
X00374819Y00070783D01*
X00376035Y00068964D01*
X00378964Y00066035D01*
X00380783Y00064819D01*
X00382929Y00064392D01*
X0076D01*
X00762146Y00064819D01*
X00763965Y00066035D01*
X00973965Y00276035D01*
X00975181Y00277854D01*
X00975608Y0028D01*
Y003844D01*
X00975181Y00386546D01*
X00973965Y00388365D01*
X00956372Y00405959D01*
X0095665Y00406998D01*
Y00409802D01*
X00955924Y00412511D01*
X00954522Y00414939D01*
X00952539Y00416922D01*
X00950111Y00418324D01*
X00947402Y0041905D01*
X00944598D01*
X00941889Y00418324D01*
X00939461Y00416922D01*
X00937478Y00414939D01*
X00936076Y00412511D01*
X0093535Y00409802D01*
Y00406998D01*
X00936076Y00404289D01*
X00937478Y00401861D01*
X00939461Y00399878D01*
X00941889Y00398476D01*
X00944598Y0039775D01*
X00947402D01*
X00948441Y00398028D01*
X00964392Y00382077D01*
Y00282323D01*
X0083181Y0014974D01*
X0083054Y00150267D01*
Y00151102D01*
X00829697Y00153138D01*
X00828138Y00154697D01*
X0082627Y0015547D01*
Y0015D01*
X00825D01*
Y0014873D01*
X0081953D01*
X00820303Y00146862D01*
X00821862Y00145303D01*
X00823898Y0014446D01*
X00824733D01*
X00825259Y0014319D01*
X00757677Y00075608D01*
X00385608D01*
Y00416877D01*
X00395967Y00427237D01*
X0039619Y00427207D01*
X00402441D01*
X00402967Y00425937D01*
X00396035Y00419005D01*
X00394819Y00417186D01*
X00394392Y00415039D01*
Y00092929D01*
X00394819Y00090783D01*
X00396035Y00088964D01*
X00398964Y00086035D01*
X00400783Y00084819D01*
X00402929Y00084392D01*
X0073D01*
X00732146Y00084819D01*
X00733965Y00086035D01*
X00936815Y00288885D01*
X00938031Y00290704D01*
X00938458Y0029285D01*
Y00297658D01*
X00939728Y00298124D01*
X00941889Y00296876D01*
X00944598Y0029615D01*
X00947402D01*
X00950111Y00296876D01*
X00952539Y00298278D01*
X00954522Y00300261D01*
X00955924Y00302689D01*
X0095665Y00305398D01*
Y00308202D01*
X00955924Y00310911D01*
X00954522Y00313339D01*
X00952539Y00315322D01*
X00950111Y00316724D01*
X00947402Y0031745D01*
X00944598D01*
X00943608Y003185D01*
Y0031909D01*
X00946068Y0032155D01*
X00947402D01*
X00950111Y00322276D01*
X00952539Y00323678D01*
X00954522Y00325661D01*
X00955924Y00328089D01*
X0095665Y00330798D01*
Y00333602D01*
X00955924Y00336311D01*
X00954522Y00338739D01*
X00952539Y00340722D01*
X00950111Y00342124D01*
X00947402Y0034285D01*
X00944598D01*
X00941889Y00342124D01*
X00939461Y00340722D01*
X00937478Y00338739D01*
X00936076Y00336311D01*
X0093535Y00333602D01*
Y00330798D01*
X00936076Y00328089D01*
X00936321Y00327664D01*
X00934035Y00325378D01*
X00932819Y00323559D01*
X00932392Y00321413D01*
Y00319857D01*
X00931651Y0031926D01*
X00930458Y00319783D01*
Y00638927D01*
X00943559Y00652028D01*
X00944598Y0065175D01*
X00947402D01*
X00950111Y00652476D01*
X00952539Y00653878D01*
X00954522Y00655861D01*
X00955924Y00658289D01*
X0095665Y00660998D01*
Y00663802D01*
X00955924Y00666511D01*
X00954522Y00668939D01*
X00952539Y00670922D01*
X00950111Y00672324D01*
X00947402Y0067305D01*
X00944598D01*
X00941889Y00672324D01*
X00939461Y00670922D01*
X00937478Y00668939D01*
X00936076Y00666511D01*
X0093535Y00663802D01*
Y00660998D01*
X00935628Y00659959D01*
X00920885Y00645215D01*
X00919669Y00643396D01*
X00919242Y0064125D01*
Y00299808D01*
X00808877D01*
X00806731Y00299381D01*
X00804912Y00298165D01*
X00786905Y00280158D01*
X00785676Y00281101D01*
X00782938Y00282235D01*
X0078Y00282622D01*
X00777062Y00282235D01*
X00774324Y00281101D01*
X00771973Y00279297D01*
X00770169Y00276946D01*
X00769035Y00274208D01*
X00768648Y0027127D01*
Y0026873D01*
X00769035Y00265792D01*
X00770169Y00263054D01*
X00771973Y00260703D01*
X00774324Y00258899D01*
X00777062Y00257765D01*
X0078Y00257378D01*
X00782938Y00257765D01*
X00785676Y00258899D01*
X00788027Y00260703D01*
X00789831Y00263054D01*
X00790965Y00265792D01*
X00791352Y0026873D01*
Y00268997D01*
X00792115Y00269507D01*
X00792778Y0027017D01*
X00794048Y00269644D01*
Y0026873D01*
X00794435Y00265792D01*
X00795569Y00263054D01*
X00797373Y00260703D01*
X00799724Y00258899D01*
X00802462Y00257765D01*
X008054Y00257378D01*
X00808338Y00257765D01*
X00811076Y00258899D01*
X00813427Y00260703D01*
X00815231Y00263054D01*
X00816365Y00265792D01*
X00816752Y0026873D01*
Y0027127D01*
X00816365Y00274208D01*
X00815231Y00276946D01*
X00813427Y00279297D01*
X00811076Y00281101D01*
X00808338Y00282235D01*
X00806837Y00282433D01*
X00806382Y00283774D01*
X008112Y00288592D01*
X00919002D01*
X00919488Y00287419D01*
X0088181Y00249741D01*
X0088054Y00250267D01*
Y00251102D01*
X00879697Y00253138D01*
X00878138Y00254697D01*
X0087627Y0025547D01*
Y0025D01*
X00875D01*
Y0024873D01*
X0086953D01*
X00870303Y00246862D01*
X00871862Y00245303D01*
X00873898Y0024446D01*
X00874733D01*
X00875259Y0024319D01*
X0078181Y0014974D01*
X0078054Y00150267D01*
Y00151102D01*
X00779697Y00153138D01*
X00778138Y00154697D01*
X0077627Y0015547D01*
Y0015D01*
X00775D01*
Y0014873D01*
X0076953D01*
X00770303Y00146862D01*
X00771862Y00145303D01*
X00773898Y0014446D01*
X00774733D01*
X00775259Y0014319D01*
X00727677Y00095608D01*
X00705102D01*
X00704616Y00096781D01*
X00704697Y00096862D01*
X0070547Y0009873D01*
X0069453D01*
X00695303Y00096862D01*
X00695384Y00096781D01*
X00694898Y00095608D01*
X00655102D01*
X00654616Y00096781D01*
X00654697Y00096862D01*
X0065547Y0009873D01*
X0064453D01*
X00645303Y00096862D01*
X00645384Y00096781D01*
X00644898Y00095608D01*
X00605102D01*
X00604616Y00096781D01*
X00604697Y00096862D01*
X0060547Y0009873D01*
X0059453D01*
X00595303Y00096862D01*
X00595384Y00096781D01*
X00594898Y00095608D01*
X00555102D01*
X00554616Y00096781D01*
X00554697Y00096862D01*
X0055547Y0009873D01*
X0054453D01*
X00545303Y00096862D01*
X00545384Y00096781D01*
X00544898Y00095608D01*
X00505102D01*
X00504616Y00096781D01*
X00504697Y00096862D01*
X0050547Y0009873D01*
X0049453D01*
X00495303Y00096862D01*
X00495384Y00096781D01*
X00494898Y00095608D01*
X00455102D01*
X00454616Y00096781D01*
X00454697Y00096862D01*
X0045547Y0009873D01*
X0044453D01*
X00445303Y00096862D01*
X00445384Y00096781D01*
X00444898Y00095608D01*
X00405608D01*
Y00412717D01*
X00422165Y00429274D01*
X00423381Y00431093D01*
X00423808Y0043324D01*
Y0044516D01*
X00423381Y00447307D01*
X00422165Y00449126D01*
X00413541Y0045775D01*
X00414196Y00458604D01*
X00415394Y00461496D01*
X00415649Y00463432D01*
X0041699Y00463887D01*
X00425985Y00454891D01*
Y00350508D01*
X00426284Y00347469D01*
X00427171Y00344548D01*
X0042861Y00341855D01*
X00430547Y00339495D01*
X00432907Y00337558D01*
X004356Y00336119D01*
X00438521Y00335232D01*
X0044156Y00334933D01*
X00444599Y00335232D01*
X0044752Y00336119D01*
X00450213Y00337558D01*
X00452573Y00339495D01*
X0045451Y00341855D01*
X00455949Y00344548D01*
X00456836Y00347469D01*
X00457135Y00350508D01*
Y00461343D01*
X00456836Y00464381D01*
X00455949Y00467303D01*
X0045451Y00469996D01*
X00452573Y00472356D01*
X00424926Y00500003D01*
X00422566Y0050194D01*
X00419873Y00503379D01*
X00416951Y00504266D01*
X00413913Y00504565D01*
X00411307D01*
X00410876Y00505835D01*
X0041229Y0050692D01*
X00413379Y0050834D01*
X00421675D01*
X00473334Y00456681D01*
X00473036Y00455183D01*
X00471862Y00454697D01*
X00470303Y00453138D01*
X0046953Y0045127D01*
X00475D01*
Y0045D01*
X0047627D01*
Y0044453D01*
X00478138Y00445303D01*
X00479697Y00446862D01*
X00480183Y00448036D01*
X00481681Y00448334D01*
X00573334Y00356681D01*
X00573036Y00355183D01*
X00571862Y00354697D01*
X00570303Y00353138D01*
X0056953Y0035127D01*
X00575D01*
Y0035D01*
X0057627D01*
Y0034453D01*
X00578138Y00345303D01*
X00579697Y00346862D01*
X00580183Y00348036D01*
X00581681Y00348334D01*
X00625008Y00305007D01*
X0062647Y00303885D01*
X00628173Y0030318D01*
X0063Y0030294D01*
X0089D01*
X00891827Y0030318D01*
X0089353Y00303885D01*
X00894992Y00305007D01*
X00914993Y00325008D01*
X00916115Y0032647D01*
X0091682Y00328173D01*
X0091706Y0033D01*
Y00678914D01*
X00930242Y00692096D01*
X00931365Y00693558D01*
X0093207Y00695261D01*
X0093231Y00697088D01*
Y00735644D01*
X00934212Y00737545D01*
X00935416Y00736953D01*
X00936076Y00734489D01*
X00937478Y00732061D01*
X00939461Y00730078D01*
X00941889Y00728676D01*
X00944598Y0072795D01*
X00947402D01*
X00950111Y00728676D01*
X00952539Y00730078D01*
X00954522Y00732061D01*
X00955924Y00734489D01*
X00956584Y00736953D01*
X00957788Y00737545D01*
X0116294Y00532394D01*
Y003114D01*
X0116318Y00309573D01*
X01163885Y0030787D01*
X01165008Y00306408D01*
X0118935Y00282065D01*
Y0027075D01*
X0121065D01*
Y0029205D01*
X01199335D01*
X011958Y00295585D01*
X01196457Y00296724D01*
X01198598Y0029615D01*
X01201402D01*
X01204111Y00296876D01*
X01206539Y00298278D01*
X01208522Y00300261D01*
X01209924Y00302689D01*
X0121065Y00305398D01*
Y00308202D01*
X01209924Y00310911D01*
X01208522Y00313339D01*
X01206539Y00315322D01*
X01204111Y00316724D01*
X01201402Y0031745D01*
X01198598D01*
X01195889Y00316724D01*
X01193461Y00315322D01*
X01191478Y00313339D01*
X01190076Y00310911D01*
X0118935Y00308202D01*
Y00305398D01*
X01189924Y00303257D01*
X01188785Y003026D01*
X0117706Y00314324D01*
Y00535318D01*
Y00773838D01*
X01177482Y00774259D01*
X01178713Y00776391D01*
X0117935Y00778769D01*
Y00781231D01*
X01178713Y00783609D01*
X01177482Y00785741D01*
X01175741Y00787482D01*
X01173609Y00788713D01*
X01171231Y0078935D01*
X01168769D01*
X01166391Y00788713D01*
X01164259Y00787482D01*
X01162518Y00785741D01*
X01161287Y00783609D01*
X0116065Y00781231D01*
Y00778769D01*
X01161287Y00776391D01*
X01162518Y00774259D01*
X0116294Y00773838D01*
Y00554023D01*
X01161766Y00553537D01*
X00957061Y00758242D01*
X00955598Y00759364D01*
X00953895Y0076007D01*
X00952068Y0076031D01*
X00939932D01*
X00938104Y0076007D01*
X00936402Y00759364D01*
X00934939Y00758242D01*
X00922313Y00745616D01*
X00921111Y00746024D01*
X00921044Y0074653D01*
X00920238Y00748476D01*
X00918956Y00750147D01*
X00906947Y00762156D01*
X00905276Y00763438D01*
X0090333Y00764244D01*
X00901241Y00764519D01*
X008892D01*
X00888069Y0076565D01*
Y007808D01*
X008892Y00781931D01*
X01106658D01*
X01110954Y00777635D01*
X01111287Y00776391D01*
X01112518Y00774259D01*
X01114259Y00772518D01*
X01116391Y00771287D01*
X01118769Y0077065D01*
X01121231D01*
X01123609Y00771287D01*
X01125741Y00772518D01*
X01127482Y00774259D01*
X01128713Y00776391D01*
X0112935Y00778769D01*
Y00781231D01*
X01128713Y00783609D01*
X01127482Y00785741D01*
X01125741Y00787482D01*
X01123609Y00788713D01*
X01122365Y00789046D01*
X01115706Y00795706D01*
X01114035Y00796988D01*
X01112088Y00797794D01*
X0111Y00798069D01*
X00885858D01*
X0088377Y00797794D01*
X00881823Y00796988D01*
X00880152Y00795706D01*
X00874294Y00789848D01*
X00873012Y00788177D01*
X00872206Y0078623D01*
X00871931Y00784142D01*
Y00762308D01*
X00871994Y00761828D01*
X00870791Y00761235D01*
X00855575Y00776451D01*
Y00799434D01*
X00861096Y00804955D01*
X01118934D01*
X01121973Y00805255D01*
X01124895Y00806141D01*
X01127588Y0080758D01*
X01129948Y00809517D01*
X01154937Y00834506D01*
X0115702Y00835369D01*
X01159725Y00837176D01*
X01162024Y00839476D01*
X01163831Y0084218D01*
X01165076Y00845184D01*
X0116571Y00848374D01*
Y0084873D01*
X011492D01*
Y0085D01*
X0114793D01*
Y0086651D01*
X01147574D01*
X01144384Y00865876D01*
X0114138Y00864631D01*
X01138676Y00862824D01*
X01136376Y00860525D01*
X01135315Y00858937D01*
X01112483Y00836105D01*
X010769D01*
X01076374Y00837375D01*
X01078181Y00839183D01*
X01080039Y00841962D01*
X01081318Y0084505D01*
X0108197Y00848329D01*
Y00851672D01*
X01081318Y0085495D01*
X01080039Y00858038D01*
X01078181Y00860818D01*
X01075818Y00863182D01*
X01073038Y00865039D01*
X0106995Y00866318D01*
X01066671Y0086697D01*
X01063329D01*
X0106005Y00866318D01*
X01056962Y00865039D01*
X01054182Y00863182D01*
X01051818Y00860818D01*
X01049961Y00858038D01*
X01048682Y0085495D01*
X0104803Y00851672D01*
Y00848329D01*
X01048682Y0084505D01*
X01049961Y00841962D01*
X01051818Y00839183D01*
X01053626Y00837375D01*
X010531Y00836105D01*
X010261D01*
X01025574Y00837375D01*
X01027381Y00839183D01*
X01029239Y00841962D01*
X01030518Y0084505D01*
X0103117Y00848329D01*
Y00851672D01*
X01030518Y0085495D01*
X01029239Y00858038D01*
X01027381Y00860818D01*
X01025018Y00863182D01*
X01022238Y00865039D01*
X0101915Y00866318D01*
X01015871Y0086697D01*
X01012529D01*
X0100925Y00866318D01*
X01006162Y00865039D01*
X01003382Y00863182D01*
X01001019Y00860818D01*
X00999161Y00858038D01*
X00997882Y0085495D01*
X0099723Y00851672D01*
Y00848329D01*
X00997882Y0084505D01*
X00999161Y00841962D01*
X01001019Y00839183D01*
X01002826Y00837375D01*
X010023Y00836105D01*
X009419D01*
X00941374Y00837375D01*
X00943181Y00839183D01*
X00945039Y00841962D01*
X00946318Y0084505D01*
X0094697Y00848329D01*
Y00851672D01*
X00946318Y0085495D01*
X00945039Y00858038D01*
X00943181Y00860818D01*
X00940818Y00863182D01*
X00938038Y00865039D01*
X0093495Y00866318D01*
X00931671Y0086697D01*
X00928328D01*
X0092505Y00866318D01*
X00921962Y00865039D01*
X00919182Y00863182D01*
X00916818Y00860818D01*
X00914961Y00858038D01*
X00913682Y0085495D01*
X0091303Y00851672D01*
Y00848329D01*
X00913682Y0084505D01*
X00914961Y00841962D01*
X00916818Y00839183D01*
X00918626Y00837375D01*
X009181Y00836105D01*
X008911D01*
X00890574Y00837375D01*
X00892381Y00839183D01*
X00894239Y00841962D01*
X00895518Y0084505D01*
X0089617Y00848329D01*
Y00851672D01*
X00895518Y0085495D01*
X00894239Y00858038D01*
X00892381Y00860818D01*
X00890018Y00863182D01*
X00887238Y00865039D01*
X0088415Y00866318D01*
X00880871Y0086697D01*
X00877529D01*
X0087425Y00866318D01*
X00871162Y00865039D01*
X00868382Y00863182D01*
X00866019Y00860818D01*
X00864161Y00858038D01*
X00862882Y0085495D01*
X0086223Y00851672D01*
Y00848329D01*
X00862882Y0084505D01*
X00864161Y00841962D01*
X00866019Y00839183D01*
X00867826Y00837375D01*
X008673Y00836105D01*
X00854645D01*
X00851606Y00835806D01*
X00848684Y0083492D01*
X00845992Y0083348D01*
X00843632Y00831543D01*
X00828987Y00816899D01*
X0082705Y00814539D01*
X00825611Y00811846D01*
X00824724Y00808924D01*
X00824425Y00805886D01*
Y0077D01*
X00824724Y00766962D01*
X00825611Y0076404D01*
X0082705Y00761347D01*
X00828987Y00758987D01*
X00860675Y00727299D01*
X00860189Y00726125D01*
X00722825D01*
Y0073595D01*
Y00786198D01*
X00755613Y00818987D01*
X0075755Y00821347D01*
X00758989Y0082404D01*
X00759087Y00824362D01*
X00760462Y0082452D01*
X00761198Y00823246D01*
X00763246Y00821198D01*
X00765754Y0081975D01*
X00768552Y00819D01*
X00771448D01*
X00774246Y0081975D01*
X00776754Y00821198D01*
X00778802Y00823246D01*
X0078025Y00825754D01*
X00781Y00828552D01*
Y00831448D01*
X0078025Y00834246D01*
X00778802Y00836754D01*
X00776754Y00838802D01*
X00774246Y0084025D01*
X00771448Y00841D01*
X00768552D01*
X00765754Y0084025D01*
X00763246Y00838802D01*
X00761198Y00836754D01*
X00760462Y0083548D01*
X00759087Y00835638D01*
X00758989Y0083596D01*
X0075755Y00838653D01*
X00755613Y00841013D01*
X00753253Y0084295D01*
X0075056Y00844389D01*
X00747638Y00845276D01*
X007446Y00845575D01*
X00730069D01*
X00729583Y00846748D01*
X00729697Y00846862D01*
X0073047Y0084873D01*
X0071953D01*
X00720303Y00846862D01*
X00720417Y00846748D01*
X00719931Y00845575D01*
X00680069D01*
X00679583Y00846748D01*
X00679697Y00846862D01*
X0068047Y0084873D01*
X0066953D01*
X00670303Y00846862D01*
X00670417Y00846748D01*
X00669931Y00845575D01*
X00630069D01*
X00629583Y00846748D01*
X00629697Y00846862D01*
X0063047Y0084873D01*
X0061953D01*
X00620303Y00846862D01*
X00620417Y00846748D01*
X00619931Y00845575D01*
X00530069D01*
X00529583Y00846748D01*
X00529697Y00846862D01*
X0053047Y0084873D01*
X0051953D01*
X00520303Y00846862D01*
X00520417Y00846748D01*
X00519931Y00845575D01*
X00480069D01*
X00479583Y00846748D01*
X00479697Y00846862D01*
X0048047Y0084873D01*
X0046953D01*
X00470303Y00846862D01*
X00470417Y00846748D01*
X00469931Y00845575D01*
X0046418D01*
X00458659Y00851096D01*
Y00866382D01*
X0045836Y0086942D01*
X00457473Y00872342D01*
X00456034Y00875035D01*
X00454097Y00877395D01*
X00451737Y00879332D01*
X00449044Y00880771D01*
X00446123Y00881658D01*
X00443084Y00881957D01*
D02*
G37*
G36*
X0115547Y0029873D02*
X0115127D01*
Y0029453D01*
X01153138Y00295303D01*
X01154697Y00296862D01*
X0115547Y0029873D01*
D02*
G37*
G36*
X0114873D02*
X0114453D01*
X01145303Y00296862D01*
X01146862Y00295303D01*
X0114873Y0029453D01*
Y0029873D01*
D02*
G37*
G36*
X0110547D02*
X0110127D01*
Y0029453D01*
X01103138Y00295303D01*
X01104697Y00296862D01*
X0110547Y0029873D01*
D02*
G37*
G36*
X0109873D02*
X0109453D01*
X01095303Y00296862D01*
X01096862Y00295303D01*
X0109873Y0029453D01*
Y0029873D01*
D02*
G37*
G36*
X0105547D02*
X0105127D01*
Y0029453D01*
X01053138Y00295303D01*
X01054697Y00296862D01*
X0105547Y0029873D01*
D02*
G37*
G36*
X0104873D02*
X0104453D01*
X01045303Y00296862D01*
X01046862Y00295303D01*
X0104873Y0029453D01*
Y0029873D01*
D02*
G37*
G36*
X0100547D02*
X0100127D01*
Y0029453D01*
X01003138Y00295303D01*
X01004697Y00296862D01*
X0100547Y0029873D01*
D02*
G37*
G36*
X0099873D02*
X0099453D01*
X00995303Y00296862D01*
X00996862Y00295303D01*
X0099873Y0029453D01*
Y0029873D01*
D02*
G37*
G36*
X0060547D02*
X0060127D01*
Y0029453D01*
X00603138Y00295303D01*
X00604697Y00296862D01*
X0060547Y0029873D01*
D02*
G37*
G36*
X0059873D02*
X0059453D01*
X00595303Y00296862D01*
X00596862Y00295303D01*
X0059873Y0029453D01*
Y0029873D01*
D02*
G37*
G36*
X0050547D02*
X0050127D01*
Y0029453D01*
X00503138Y00295303D01*
X00504697Y00296862D01*
X0050547Y0029873D01*
D02*
G37*
G36*
X0049873D02*
X0049453D01*
X00495303Y00296862D01*
X00496862Y00295303D01*
X0049873Y0029453D01*
Y0029873D01*
D02*
G37*
G36*
X0045547D02*
X0045127D01*
Y0029453D01*
X00453138Y00295303D01*
X00454697Y00296862D01*
X0045547Y0029873D01*
D02*
G37*
G36*
X0044873D02*
X0044453D01*
X00445303Y00296862D01*
X00446862Y00295303D01*
X0044873Y0029453D01*
Y0029873D01*
D02*
G37*
G36*
X00947342Y0029159D02*
X0094727D01*
Y0028267D01*
X0095619D01*
Y00282742D01*
X00955496Y00285333D01*
X00954154Y00287657D01*
X00952257Y00289554D01*
X00949933Y00290896D01*
X00947342Y0029159D01*
D02*
G37*
G36*
X0094473D02*
X00944658D01*
X00942067Y00290896D01*
X00939743Y00289554D01*
X00937846Y00287657D01*
X00936504Y00285333D01*
X0093581Y00282742D01*
Y0028267D01*
X0094473D01*
Y0029159D01*
D02*
G37*
G36*
X0075587Y00281991D02*
Y0027127D01*
X00765488D01*
X00765117Y00274088D01*
X00764029Y00276714D01*
X00762299Y00278969D01*
X00760044Y00280699D01*
X00757418Y00281787D01*
X0075587Y00281991D01*
D02*
G37*
G36*
X0075333D02*
X00751782Y00281787D01*
X00749156Y00280699D01*
X00746901Y00278969D01*
X00745171Y00276714D01*
X00744083Y00274088D01*
X00743712Y0027127D01*
X0075333D01*
Y00281991D01*
D02*
G37*
G36*
X0095619Y0028013D02*
X0094727D01*
Y0027121D01*
X00947342D01*
X00949933Y00271904D01*
X00952257Y00273246D01*
X00954154Y00275143D01*
X00955496Y00277467D01*
X0095619Y00280058D01*
Y0028013D01*
D02*
G37*
G36*
X0094473D02*
X0093581D01*
Y00280058D01*
X00936504Y00277467D01*
X00937846Y00275143D01*
X00939743Y00273246D01*
X00942067Y00271904D01*
X00944658Y0027121D01*
X0094473D01*
Y0028013D01*
D02*
G37*
G36*
X006445Y002827D02*
X005955D01*
X00592472Y00282302D01*
X0058965Y00281133D01*
X00587227Y00279273D01*
X00585367Y0027685D01*
X00584198Y00274028D01*
X005838Y00271D01*
X00584198Y00267972D01*
X00585367Y0026515D01*
X00587227Y00262727D01*
X0058965Y00260868D01*
X00592472Y00259699D01*
X005955Y002593D01*
X006445D01*
X00647528Y00259699D01*
X0065035Y00260868D01*
X00652773Y00262727D01*
X00654632Y0026515D01*
X00655801Y00267972D01*
X006562Y00271D01*
X00655801Y00274028D01*
X00654632Y0027685D01*
X00652773Y00279273D01*
X0065035Y00281133D01*
X00647528Y00282302D01*
X006445Y002827D01*
D02*
G37*
G36*
X004745Y002827D02*
X004255D01*
X00422472Y00282302D01*
X0041965Y00281133D01*
X00417227Y00279273D01*
X00415367Y0027685D01*
X00414199Y00274028D01*
X004138Y00271D01*
X00414199Y00267972D01*
X00415367Y0026515D01*
X00417227Y00262727D01*
X0041965Y00260868D01*
X00422472Y00259699D01*
X004255Y002593D01*
X004745D01*
X00477528Y00259699D01*
X0048035Y00260868D01*
X00482773Y00262727D01*
X00484633Y0026515D01*
X00485801Y00267972D01*
X004862Y00271D01*
X00485801Y00274028D01*
X00484633Y0027685D01*
X00482773Y00279273D01*
X0048035Y00281133D01*
X00477528Y00282302D01*
X004745Y002827D01*
D02*
G37*
G36*
X00765488Y0026873D02*
X0075587D01*
Y00258009D01*
X00757418Y00258213D01*
X00760044Y00259301D01*
X00762299Y00261031D01*
X00764029Y00263286D01*
X00765117Y00265912D01*
X00765488Y0026873D01*
D02*
G37*
G36*
X0075333D02*
X00743712D01*
X00744083Y00265912D01*
X00745171Y00263286D01*
X00746901Y00261031D01*
X00749156Y00259301D01*
X00751782Y00258213D01*
X0075333Y00258009D01*
Y0026873D01*
D02*
G37*
G36*
X0112627Y0025547D02*
Y0025127D01*
X0113047D01*
X01129697Y00253138D01*
X01128138Y00254697D01*
X0112627Y0025547D01*
D02*
G37*
G36*
X0112373D02*
X01121862Y00254697D01*
X01120303Y00253138D01*
X0111953Y0025127D01*
X0112373D01*
Y0025547D01*
D02*
G37*
G36*
X0097627D02*
Y0025127D01*
X0098047D01*
X00979697Y00253138D01*
X00978138Y00254697D01*
X0097627Y0025547D01*
D02*
G37*
G36*
X0097373D02*
X00971862Y00254697D01*
X00970303Y00253138D01*
X0096953Y0025127D01*
X0097373D01*
Y0025547D01*
D02*
G37*
G36*
X0087373D02*
X00871862Y00254697D01*
X00870303Y00253138D01*
X0086953Y0025127D01*
X0087373D01*
Y0025547D01*
D02*
G37*
G36*
X0082627D02*
Y0025127D01*
X0083047D01*
X00829697Y00253138D01*
X00828138Y00254697D01*
X0082627Y0025547D01*
D02*
G37*
G36*
X0082373D02*
X00821862Y00254697D01*
X00820303Y00253138D01*
X0081953Y0025127D01*
X0082373D01*
Y0025547D01*
D02*
G37*
G36*
X0077627D02*
Y0025127D01*
X0078047D01*
X00779697Y00253138D01*
X00778138Y00254697D01*
X0077627Y0025547D01*
D02*
G37*
G36*
X0077373D02*
X00771862Y00254697D01*
X00770303Y00253138D01*
X0076953Y0025127D01*
X0077373D01*
Y0025547D01*
D02*
G37*
G36*
X0072627D02*
Y0025127D01*
X0073047D01*
X00729697Y00253138D01*
X00728138Y00254697D01*
X0072627Y0025547D01*
D02*
G37*
G36*
X0072373D02*
X00721862Y00254697D01*
X00720303Y00253138D01*
X0071953Y0025127D01*
X0072373D01*
Y0025547D01*
D02*
G37*
G36*
X0062627D02*
Y0025127D01*
X0063047D01*
X00629697Y00253138D01*
X00628138Y00254697D01*
X0062627Y0025547D01*
D02*
G37*
G36*
X0062373D02*
X00621862Y00254697D01*
X00620303Y00253138D01*
X0061953Y0025127D01*
X0062373D01*
Y0025547D01*
D02*
G37*
G36*
X0057627D02*
Y0025127D01*
X0058047D01*
X00579697Y00253138D01*
X00578138Y00254697D01*
X0057627Y0025547D01*
D02*
G37*
G36*
X0057373D02*
X00571862Y00254697D01*
X00570303Y00253138D01*
X0056953Y0025127D01*
X0057373D01*
Y0025547D01*
D02*
G37*
G36*
X0052627D02*
Y0025127D01*
X0053047D01*
X00529697Y00253138D01*
X00528138Y00254697D01*
X0052627Y0025547D01*
D02*
G37*
G36*
X0052373D02*
X00521862Y00254697D01*
X00520303Y00253138D01*
X0051953Y0025127D01*
X0052373D01*
Y0025547D01*
D02*
G37*
G36*
X0047627D02*
Y0025127D01*
X0048047D01*
X00479697Y00253138D01*
X00478138Y00254697D01*
X0047627Y0025547D01*
D02*
G37*
G36*
X0047373D02*
X00471862Y00254697D01*
X00470303Y00253138D01*
X0046953Y0025127D01*
X0047373D01*
Y0025547D01*
D02*
G37*
G36*
X0042627D02*
Y0025127D01*
X0043047D01*
X00429697Y00253138D01*
X00428138Y00254697D01*
X0042627Y0025547D01*
D02*
G37*
G36*
X0042373D02*
X00421862Y00254697D01*
X00420303Y00253138D01*
X0041953Y0025127D01*
X0042373D01*
Y0025547D01*
D02*
G37*
G36*
X0113047Y0024873D02*
X0112627D01*
Y0024453D01*
X01128138Y00245303D01*
X01129697Y00246862D01*
X0113047Y0024873D01*
D02*
G37*
G36*
X0112373D02*
X0111953D01*
X01120303Y00246862D01*
X01121862Y00245303D01*
X0112373Y0024453D01*
Y0024873D01*
D02*
G37*
G36*
X0098047D02*
X0097627D01*
Y0024453D01*
X00978138Y00245303D01*
X00979697Y00246862D01*
X0098047Y0024873D01*
D02*
G37*
G36*
X0097373D02*
X0096953D01*
X00970303Y00246862D01*
X00971862Y00245303D01*
X0097373Y0024453D01*
Y0024873D01*
D02*
G37*
G36*
X0083047D02*
X0082627D01*
Y0024453D01*
X00828138Y00245303D01*
X00829697Y00246862D01*
X0083047Y0024873D01*
D02*
G37*
G36*
X0082373D02*
X0081953D01*
X00820303Y00246862D01*
X00821862Y00245303D01*
X0082373Y0024453D01*
Y0024873D01*
D02*
G37*
G36*
X0078047D02*
X0077627D01*
Y0024453D01*
X00778138Y00245303D01*
X00779697Y00246862D01*
X0078047Y0024873D01*
D02*
G37*
G36*
X0077373D02*
X0076953D01*
X00770303Y00246862D01*
X00771862Y00245303D01*
X0077373Y0024453D01*
Y0024873D01*
D02*
G37*
G36*
X0073047D02*
X0072627D01*
Y0024453D01*
X00728138Y00245303D01*
X00729697Y00246862D01*
X0073047Y0024873D01*
D02*
G37*
G36*
X0072373D02*
X0071953D01*
X00720303Y00246862D01*
X00721862Y00245303D01*
X0072373Y0024453D01*
Y0024873D01*
D02*
G37*
G36*
X0063047D02*
X0062627D01*
Y0024453D01*
X00628138Y00245303D01*
X00629697Y00246862D01*
X0063047Y0024873D01*
D02*
G37*
G36*
X0062373D02*
X0061953D01*
X00620303Y00246862D01*
X00621862Y00245303D01*
X0062373Y0024453D01*
Y0024873D01*
D02*
G37*
G36*
X0058047D02*
X0057627D01*
Y0024453D01*
X00578138Y00245303D01*
X00579697Y00246862D01*
X0058047Y0024873D01*
D02*
G37*
G36*
X0057373D02*
X0056953D01*
X00570303Y00246862D01*
X00571862Y00245303D01*
X0057373Y0024453D01*
Y0024873D01*
D02*
G37*
G36*
X0053047D02*
X0052627D01*
Y0024453D01*
X00528138Y00245303D01*
X00529697Y00246862D01*
X0053047Y0024873D01*
D02*
G37*
G36*
X0052373D02*
X0051953D01*
X00520303Y00246862D01*
X00521862Y00245303D01*
X0052373Y0024453D01*
Y0024873D01*
D02*
G37*
G36*
X0048047D02*
X0047627D01*
Y0024453D01*
X00478138Y00245303D01*
X00479697Y00246862D01*
X0048047Y0024873D01*
D02*
G37*
G36*
X0047373D02*
X0046953D01*
X00470303Y00246862D01*
X00471862Y00245303D01*
X0047373Y0024453D01*
Y0024873D01*
D02*
G37*
G36*
X0043047D02*
X0042627D01*
Y0024453D01*
X00428138Y00245303D01*
X00429697Y00246862D01*
X0043047Y0024873D01*
D02*
G37*
G36*
X0042373D02*
X0041953D01*
X00420303Y00246862D01*
X00421862Y00245303D01*
X0042373Y0024453D01*
Y0024873D01*
D02*
G37*
G36*
X0120127Y0020547D02*
Y0020127D01*
X0120547D01*
X01204697Y00203138D01*
X01203138Y00204697D01*
X0120127Y0020547D01*
D02*
G37*
G36*
X0119873D02*
X01196862Y00204697D01*
X01195303Y00203138D01*
X0119453Y0020127D01*
X0119873D01*
Y0020547D01*
D02*
G37*
G36*
X0110127D02*
Y0020127D01*
X0110547D01*
X01104697Y00203138D01*
X01103138Y00204697D01*
X0110127Y0020547D01*
D02*
G37*
G36*
X0109873D02*
X01096862Y00204697D01*
X01095303Y00203138D01*
X0109453Y0020127D01*
X0109873D01*
Y0020547D01*
D02*
G37*
G36*
X0105127D02*
Y0020127D01*
X0105547D01*
X01054697Y00203138D01*
X01053138Y00204697D01*
X0105127Y0020547D01*
D02*
G37*
G36*
X0104873D02*
X01046862Y00204697D01*
X01045303Y00203138D01*
X0104453Y0020127D01*
X0104873D01*
Y0020547D01*
D02*
G37*
G36*
X0100127D02*
Y0020127D01*
X0100547D01*
X01004697Y00203138D01*
X01003138Y00204697D01*
X0100127Y0020547D01*
D02*
G37*
G36*
X0099873D02*
X00996862Y00204697D01*
X00995303Y00203138D01*
X0099453Y0020127D01*
X0099873D01*
Y0020547D01*
D02*
G37*
G36*
X0095127D02*
Y0020127D01*
X0095547D01*
X00954697Y00203138D01*
X00953138Y00204697D01*
X0095127Y0020547D01*
D02*
G37*
G36*
X0094873D02*
X00946862Y00204697D01*
X00945303Y00203138D01*
X0094453Y0020127D01*
X0094873D01*
Y0020547D01*
D02*
G37*
G36*
X0075127D02*
Y0020127D01*
X0075547D01*
X00754697Y00203138D01*
X00753138Y00204697D01*
X0075127Y0020547D01*
D02*
G37*
G36*
X0074873D02*
X00746862Y00204697D01*
X00745303Y00203138D01*
X0074453Y0020127D01*
X0074873D01*
Y0020547D01*
D02*
G37*
G36*
X0070127D02*
Y0020127D01*
X0070547D01*
X00704697Y00203138D01*
X00703138Y00204697D01*
X0070127Y0020547D01*
D02*
G37*
G36*
X0069873D02*
X00696862Y00204697D01*
X00695303Y00203138D01*
X0069453Y0020127D01*
X0069873D01*
Y0020547D01*
D02*
G37*
G36*
X0035127D02*
Y0020127D01*
X0035547D01*
X00354697Y00203138D01*
X00353138Y00204697D01*
X0035127Y0020547D01*
D02*
G37*
G36*
X0034873D02*
X00346862Y00204697D01*
X00345303Y00203138D01*
X0034453Y0020127D01*
X0034873D01*
Y0020547D01*
D02*
G37*
G36*
X0120547Y0019873D02*
X0120127D01*
Y0019453D01*
X01203138Y00195303D01*
X01204697Y00196862D01*
X0120547Y0019873D01*
D02*
G37*
G36*
X0119873D02*
X0119453D01*
X01195303Y00196862D01*
X01196862Y00195303D01*
X0119873Y0019453D01*
Y0019873D01*
D02*
G37*
G36*
X0110547D02*
X0110127D01*
Y0019453D01*
X01103138Y00195303D01*
X01104697Y00196862D01*
X0110547Y0019873D01*
D02*
G37*
G36*
X0109873D02*
X0109453D01*
X01095303Y00196862D01*
X01096862Y00195303D01*
X0109873Y0019453D01*
Y0019873D01*
D02*
G37*
G36*
X0105547D02*
X0105127D01*
Y0019453D01*
X01053138Y00195303D01*
X01054697Y00196862D01*
X0105547Y0019873D01*
D02*
G37*
G36*
X0104873D02*
X0104453D01*
X01045303Y00196862D01*
X01046862Y00195303D01*
X0104873Y0019453D01*
Y0019873D01*
D02*
G37*
G36*
X0100547D02*
X0100127D01*
Y0019453D01*
X01003138Y00195303D01*
X01004697Y00196862D01*
X0100547Y0019873D01*
D02*
G37*
G36*
X0099873D02*
X0099453D01*
X00995303Y00196862D01*
X00996862Y00195303D01*
X0099873Y0019453D01*
Y0019873D01*
D02*
G37*
G36*
X0095547D02*
X0095127D01*
Y0019453D01*
X00953138Y00195303D01*
X00954697Y00196862D01*
X0095547Y0019873D01*
D02*
G37*
G36*
X0094873D02*
X0094453D01*
X00945303Y00196862D01*
X00946862Y00195303D01*
X0094873Y0019453D01*
Y0019873D01*
D02*
G37*
G36*
X0075547D02*
X0075127D01*
Y0019453D01*
X00753138Y00195303D01*
X00754697Y00196862D01*
X0075547Y0019873D01*
D02*
G37*
G36*
X0074873D02*
X0074453D01*
X00745303Y00196862D01*
X00746862Y00195303D01*
X0074873Y0019453D01*
Y0019873D01*
D02*
G37*
G36*
X0070547D02*
X0070127D01*
Y0019453D01*
X00703138Y00195303D01*
X00704697Y00196862D01*
X0070547Y0019873D01*
D02*
G37*
G36*
X0069873D02*
X0069453D01*
X00695303Y00196862D01*
X00696862Y00195303D01*
X0069873Y0019453D01*
Y0019873D01*
D02*
G37*
G36*
X0035547D02*
X0035127D01*
Y0019453D01*
X00353138Y00195303D01*
X00354697Y00196862D01*
X0035547Y0019873D01*
D02*
G37*
G36*
X0034873D02*
X0034453D01*
X00345303Y00196862D01*
X00346862Y00195303D01*
X0034873Y0019453D01*
Y0019873D01*
D02*
G37*
G36*
X006445Y002117D02*
X005955D01*
X00592472Y00211301D01*
X0058965Y00210133D01*
X00587227Y00208273D01*
X00585367Y0020585D01*
X00584198Y00203028D01*
X005838Y002D01*
X00584198Y00196972D01*
X00585367Y0019415D01*
X00587227Y00191727D01*
X0058965Y00189867D01*
X00592472Y00188699D01*
X005955Y001883D01*
X006445D01*
X00647528Y00188699D01*
X0065035Y00189867D01*
X00652773Y00191727D01*
X00654632Y0019415D01*
X00655801Y00196972D01*
X006562Y002D01*
X00655801Y00203028D01*
X00654632Y0020585D01*
X00652773Y00208273D01*
X0065035Y00210133D01*
X00647528Y00211301D01*
X006445Y002117D01*
D02*
G37*
G36*
X004745Y002117D02*
X004255D01*
X00422472Y00211301D01*
X0041965Y00210133D01*
X00417227Y00208273D01*
X00415367Y0020585D01*
X00414199Y00203028D01*
X004138Y002D01*
X00414199Y00196972D01*
X00415367Y0019415D01*
X00417227Y00191727D01*
X0041965Y00189867D01*
X00422472Y00188699D01*
X004255Y001883D01*
X004745D01*
X00477528Y00188699D01*
X0048035Y00189867D01*
X00482773Y00191727D01*
X00484633Y0019415D01*
X00485801Y00196972D01*
X004862Y002D01*
X00485801Y00203028D01*
X00484633Y0020585D01*
X00482773Y00208273D01*
X0048035Y00210133D01*
X00477528Y00211301D01*
X004745Y002117D01*
D02*
G37*
G36*
X0117627Y0015547D02*
Y0015127D01*
X0118047D01*
X01179697Y00153138D01*
X01178138Y00154697D01*
X0117627Y0015547D01*
D02*
G37*
G36*
X0117373D02*
X01171862Y00154697D01*
X01170303Y00153138D01*
X0116953Y0015127D01*
X0117373D01*
Y0015547D01*
D02*
G37*
G36*
X0112627D02*
Y0015127D01*
X0113047D01*
X01129697Y00153138D01*
X01128138Y00154697D01*
X0112627Y0015547D01*
D02*
G37*
G36*
X0112373D02*
X01121862Y00154697D01*
X01120303Y00153138D01*
X0111953Y0015127D01*
X0112373D01*
Y0015547D01*
D02*
G37*
G36*
X0097627D02*
Y0015127D01*
X0098047D01*
X00979697Y00153138D01*
X00978138Y00154697D01*
X0097627Y0015547D01*
D02*
G37*
G36*
X0097373D02*
X00971862Y00154697D01*
X00970303Y00153138D01*
X0096953Y0015127D01*
X0097373D01*
Y0015547D01*
D02*
G37*
G36*
X0087627D02*
Y0015127D01*
X0088047D01*
X00879697Y00153138D01*
X00878138Y00154697D01*
X0087627Y0015547D01*
D02*
G37*
G36*
X0087373D02*
X00871862Y00154697D01*
X00870303Y00153138D01*
X0086953Y0015127D01*
X0087373D01*
Y0015547D01*
D02*
G37*
G36*
X0082373D02*
X00821862Y00154697D01*
X00820303Y00153138D01*
X0081953Y0015127D01*
X0082373D01*
Y0015547D01*
D02*
G37*
G36*
X0077373D02*
X00771862Y00154697D01*
X00770303Y00153138D01*
X0076953Y0015127D01*
X0077373D01*
Y0015547D01*
D02*
G37*
G36*
X0072627D02*
Y0015127D01*
X0073047D01*
X00729697Y00153138D01*
X00728138Y00154697D01*
X0072627Y0015547D01*
D02*
G37*
G36*
X0072373D02*
X00721862Y00154697D01*
X00720303Y00153138D01*
X0071953Y0015127D01*
X0072373D01*
Y0015547D01*
D02*
G37*
G36*
X0067627D02*
Y0015127D01*
X0068047D01*
X00679697Y00153138D01*
X00678138Y00154697D01*
X0067627Y0015547D01*
D02*
G37*
G36*
X0067373D02*
X00671862Y00154697D01*
X00670303Y00153138D01*
X0066953Y0015127D01*
X0067373D01*
Y0015547D01*
D02*
G37*
G36*
X0062627D02*
Y0015127D01*
X0063047D01*
X00629697Y00153138D01*
X00628138Y00154697D01*
X0062627Y0015547D01*
D02*
G37*
G36*
X0062373D02*
X00621862Y00154697D01*
X00620303Y00153138D01*
X0061953Y0015127D01*
X0062373D01*
Y0015547D01*
D02*
G37*
G36*
X0057627D02*
Y0015127D01*
X0058047D01*
X00579697Y00153138D01*
X00578138Y00154697D01*
X0057627Y0015547D01*
D02*
G37*
G36*
X0057373D02*
X00571862Y00154697D01*
X00570303Y00153138D01*
X0056953Y0015127D01*
X0057373D01*
Y0015547D01*
D02*
G37*
G36*
X0052627D02*
Y0015127D01*
X0053047D01*
X00529697Y00153138D01*
X00528138Y00154697D01*
X0052627Y0015547D01*
D02*
G37*
G36*
X0052373D02*
X00521862Y00154697D01*
X00520303Y00153138D01*
X0051953Y0015127D01*
X0052373D01*
Y0015547D01*
D02*
G37*
G36*
X0047627D02*
Y0015127D01*
X0048047D01*
X00479697Y00153138D01*
X00478138Y00154697D01*
X0047627Y0015547D01*
D02*
G37*
G36*
X0047373D02*
X00471862Y00154697D01*
X00470303Y00153138D01*
X0046953Y0015127D01*
X0047373D01*
Y0015547D01*
D02*
G37*
G36*
X0042627D02*
Y0015127D01*
X0043047D01*
X00429697Y00153138D01*
X00428138Y00154697D01*
X0042627Y0015547D01*
D02*
G37*
G36*
X0042373D02*
X00421862Y00154697D01*
X00420303Y00153138D01*
X0041953Y0015127D01*
X0042373D01*
Y0015547D01*
D02*
G37*
G36*
X0118047Y0014873D02*
X0117627D01*
Y0014453D01*
X01178138Y00145303D01*
X01179697Y00146862D01*
X0118047Y0014873D01*
D02*
G37*
G36*
X0117373D02*
X0116953D01*
X01170303Y00146862D01*
X01171862Y00145303D01*
X0117373Y0014453D01*
Y0014873D01*
D02*
G37*
G36*
X0113047D02*
X0112627D01*
Y0014453D01*
X01128138Y00145303D01*
X01129697Y00146862D01*
X0113047Y0014873D01*
D02*
G37*
G36*
X0112373D02*
X0111953D01*
X01120303Y00146862D01*
X01121862Y00145303D01*
X0112373Y0014453D01*
Y0014873D01*
D02*
G37*
G36*
X0098047D02*
X0097627D01*
Y0014453D01*
X00978138Y00145303D01*
X00979697Y00146862D01*
X0098047Y0014873D01*
D02*
G37*
G36*
X0097373D02*
X0096953D01*
X00970303Y00146862D01*
X00971862Y00145303D01*
X0097373Y0014453D01*
Y0014873D01*
D02*
G37*
G36*
X0088047D02*
X0087627D01*
Y0014453D01*
X00878138Y00145303D01*
X00879697Y00146862D01*
X0088047Y0014873D01*
D02*
G37*
G36*
X0087373D02*
X0086953D01*
X00870303Y00146862D01*
X00871862Y00145303D01*
X0087373Y0014453D01*
Y0014873D01*
D02*
G37*
G36*
X0073047D02*
X0072627D01*
Y0014453D01*
X00728138Y00145303D01*
X00729697Y00146862D01*
X0073047Y0014873D01*
D02*
G37*
G36*
X0072373D02*
X0071953D01*
X00720303Y00146862D01*
X00721862Y00145303D01*
X0072373Y0014453D01*
Y0014873D01*
D02*
G37*
G36*
X0068047D02*
X0067627D01*
Y0014453D01*
X00678138Y00145303D01*
X00679697Y00146862D01*
X0068047Y0014873D01*
D02*
G37*
G36*
X0067373D02*
X0066953D01*
X00670303Y00146862D01*
X00671862Y00145303D01*
X0067373Y0014453D01*
Y0014873D01*
D02*
G37*
G36*
X0063047D02*
X0062627D01*
Y0014453D01*
X00628138Y00145303D01*
X00629697Y00146862D01*
X0063047Y0014873D01*
D02*
G37*
G36*
X0062373D02*
X0061953D01*
X00620303Y00146862D01*
X00621862Y00145303D01*
X0062373Y0014453D01*
Y0014873D01*
D02*
G37*
G36*
X0058047D02*
X0057627D01*
Y0014453D01*
X00578138Y00145303D01*
X00579697Y00146862D01*
X0058047Y0014873D01*
D02*
G37*
G36*
X0057373D02*
X0056953D01*
X00570303Y00146862D01*
X00571862Y00145303D01*
X0057373Y0014453D01*
Y0014873D01*
D02*
G37*
G36*
X0053047D02*
X0052627D01*
Y0014453D01*
X00528138Y00145303D01*
X00529697Y00146862D01*
X0053047Y0014873D01*
D02*
G37*
G36*
X0052373D02*
X0051953D01*
X00520303Y00146862D01*
X00521862Y00145303D01*
X0052373Y0014453D01*
Y0014873D01*
D02*
G37*
G36*
X0048047D02*
X0047627D01*
Y0014453D01*
X00478138Y00145303D01*
X00479697Y00146862D01*
X0048047Y0014873D01*
D02*
G37*
G36*
X0047373D02*
X0046953D01*
X00470303Y00146862D01*
X00471862Y00145303D01*
X0047373Y0014453D01*
Y0014873D01*
D02*
G37*
G36*
X0043047D02*
X0042627D01*
Y0014453D01*
X00428138Y00145303D01*
X00429697Y00146862D01*
X0043047Y0014873D01*
D02*
G37*
G36*
X0042373D02*
X0041953D01*
X00420303Y00146862D01*
X00421862Y00145303D01*
X0042373Y0014453D01*
Y0014873D01*
D02*
G37*
G36*
X01261322Y0036004D02*
X01258678D01*
X01256125Y00359356D01*
X01253835Y00358034D01*
X01251966Y00356165D01*
X01250644Y00353875D01*
X0124996Y00351322D01*
Y00348678D01*
X01250644Y00346125D01*
X01251966Y00343835D01*
X01253835Y00341966D01*
X01255325Y00341106D01*
X01255166Y00339731D01*
X0125404Y00339389D01*
X01251655Y00338115D01*
X0124654D01*
X01243501Y00337815D01*
X01240579Y00336929D01*
X01237887Y0033549D01*
X01235527Y00333553D01*
X01226447Y00324473D01*
X0122451Y00322113D01*
X01223071Y0031942D01*
X01222184Y00316499D01*
X01221885Y0031346D01*
Y00166542D01*
X01199605Y00144262D01*
X01198879Y00143961D01*
X01196175Y00142154D01*
X01193876Y00139855D01*
X01192069Y00137151D01*
X01190824Y00134146D01*
X0119019Y00130956D01*
Y001306D01*
X012067D01*
Y0012933D01*
X0120797D01*
Y0011282D01*
X01208326D01*
X01211516Y00113455D01*
X0121452Y00114699D01*
X01217225Y00116506D01*
X01219524Y00118806D01*
X01221331Y0012151D01*
X01221631Y00122235D01*
X01248473Y00149077D01*
X0125041Y00151437D01*
X01251849Y0015413D01*
X01252736Y00157052D01*
X01253035Y0016009D01*
Y0028996D01*
X0127004D01*
Y0031004D01*
X01268626D01*
X01268198Y00311235D01*
X01268553Y00311527D01*
X01271013Y00313987D01*
X0127295Y00316347D01*
X01274389Y0031904D01*
X01275276Y00321961D01*
X01275575Y00325D01*
X01275276Y00328038D01*
X01274389Y0033096D01*
X0127295Y00333653D01*
X01271013Y00336013D01*
X01268653Y0033795D01*
X0126596Y00339389D01*
X01264834Y00339731D01*
X01264675Y00341106D01*
X01266165Y00341966D01*
X01268034Y00343835D01*
X01269356Y00346125D01*
X0127004Y00348678D01*
Y00351322D01*
X01269356Y00353875D01*
X01268034Y00356165D01*
X01266165Y00358034D01*
X01263875Y00359356D01*
X01261322Y0036004D01*
D02*
G37*
G36*
X0120543Y0012806D02*
X0119019D01*
Y00127704D01*
X01190824Y00124514D01*
X01192069Y0012151D01*
X01193876Y00118806D01*
X01196175Y00116506D01*
X01198879Y00114699D01*
X01201884Y00113455D01*
X01205074Y0011282D01*
X0120543D01*
Y0012806D01*
D02*
G37*
G36*
X01157571Y001463D02*
X01154229D01*
X0115095Y00145648D01*
X01147862Y00144369D01*
X01145082Y00142512D01*
X01142719Y00140148D01*
X01140861Y00137368D01*
X01139582Y0013428D01*
X0113893Y00131002D01*
Y00127659D01*
X01139582Y0012438D01*
X01140861Y00121292D01*
X01142719Y00118512D01*
X01145082Y00116149D01*
X01147862Y00114292D01*
X0115095Y00113012D01*
X01154229Y0011236D01*
X01157571D01*
X0116085Y00113012D01*
X01163938Y00114292D01*
X01166718Y00116149D01*
X01169081Y00118512D01*
X01170939Y00121292D01*
X01172218Y0012438D01*
X0117287Y00127659D01*
Y00131002D01*
X01172218Y0013428D01*
X01170939Y00137368D01*
X01169081Y00140148D01*
X01166718Y00142512D01*
X01163938Y00144369D01*
X0116085Y00145648D01*
X01157571Y001463D01*
D02*
G37*
G36*
X01075496D02*
X01072153D01*
X01068875Y00145648D01*
X01065787Y00144369D01*
X01063007Y00142512D01*
X01060643Y00140148D01*
X01058786Y00137368D01*
X01057507Y0013428D01*
X01056855Y00131002D01*
Y00127659D01*
X01057507Y0012438D01*
X01058786Y00121292D01*
X01060643Y00118512D01*
X01063007Y00116149D01*
X01065787Y00114292D01*
X01068875Y00113012D01*
X01072153Y0011236D01*
X01075496D01*
X01078775Y00113012D01*
X01081863Y00114292D01*
X01084643Y00116149D01*
X01087006Y00118512D01*
X01088864Y00121292D01*
X01090143Y0012438D01*
X01090795Y00127659D01*
Y00131002D01*
X01090143Y0013428D01*
X01088864Y00137368D01*
X01087006Y00140148D01*
X01084643Y00142512D01*
X01081863Y00144369D01*
X01078775Y00145648D01*
X01075496Y001463D01*
D02*
G37*
G36*
X01024696D02*
X01021354D01*
X01018075Y00145648D01*
X01014987Y00144369D01*
X01012207Y00142512D01*
X01009844Y00140148D01*
X01007986Y00137368D01*
X01006707Y0013428D01*
X01006055Y00131002D01*
Y00127659D01*
X01006707Y0012438D01*
X01007986Y00121292D01*
X01009844Y00118512D01*
X01012207Y00116149D01*
X01014987Y00114292D01*
X01018075Y00113012D01*
X01021354Y0011236D01*
X01024696D01*
X01027975Y00113012D01*
X01031063Y00114292D01*
X01033843Y00116149D01*
X01036206Y00118512D01*
X01038064Y00121292D01*
X01039343Y0012438D01*
X01039995Y00127659D01*
Y00131002D01*
X01039343Y0013428D01*
X01038064Y00137368D01*
X01036206Y00140148D01*
X01033843Y00142512D01*
X01031063Y00144369D01*
X01027975Y00145648D01*
X01024696Y001463D01*
D02*
G37*
G36*
X00942621D02*
X00939278D01*
X00936Y00145648D01*
X00932912Y00144369D01*
X00930132Y00142512D01*
X00927768Y00140148D01*
X00925911Y00137368D01*
X00924632Y0013428D01*
X0092398Y00131002D01*
Y00127659D01*
X00924632Y0012438D01*
X00925911Y00121292D01*
X00927768Y00118512D01*
X00930132Y00116149D01*
X00932912Y00114292D01*
X00936Y00113012D01*
X00939278Y0011236D01*
X00942621D01*
X009459Y00113012D01*
X00948988Y00114292D01*
X00951768Y00116149D01*
X00954131Y00118512D01*
X00955988Y00121292D01*
X00957268Y0012438D01*
X0095792Y00127659D01*
Y00131002D01*
X00957268Y0013428D01*
X00955988Y00137368D01*
X00954131Y00140148D01*
X00951768Y00142512D01*
X00948988Y00144369D01*
X009459Y00145648D01*
X00942621Y001463D01*
D02*
G37*
G36*
X00891821D02*
X00888478D01*
X008852Y00145648D01*
X00882112Y00144369D01*
X00879332Y00142512D01*
X00876969Y00140148D01*
X00875111Y00137368D01*
X00873832Y0013428D01*
X0087318Y00131002D01*
Y00127659D01*
X00873832Y0012438D01*
X00875111Y00121292D01*
X00876969Y00118512D01*
X00879332Y00116149D01*
X00882112Y00114292D01*
X008852Y00113012D01*
X00888478Y0011236D01*
X00891821D01*
X008951Y00113012D01*
X00898188Y00114292D01*
X00900968Y00116149D01*
X00903331Y00118512D01*
X00905189Y00121292D01*
X00906468Y0012438D01*
X0090712Y00127659D01*
Y00131002D01*
X00906468Y0013428D01*
X00905189Y00137368D01*
X00903331Y00140148D01*
X00900968Y00142512D01*
X00898188Y00144369D01*
X008951Y00145648D01*
X00891821Y001463D01*
D02*
G37*
G36*
X0120127Y0010547D02*
Y0010127D01*
X0120547D01*
X01204697Y00103138D01*
X01203138Y00104697D01*
X0120127Y0010547D01*
D02*
G37*
G36*
X0119873D02*
X01196862Y00104697D01*
X01195303Y00103138D01*
X0119453Y0010127D01*
X0119873D01*
Y0010547D01*
D02*
G37*
G36*
X0115127D02*
Y0010127D01*
X0115547D01*
X01154697Y00103138D01*
X01153138Y00104697D01*
X0115127Y0010547D01*
D02*
G37*
G36*
X0114873D02*
X01146862Y00104697D01*
X01145303Y00103138D01*
X0114453Y0010127D01*
X0114873D01*
Y0010547D01*
D02*
G37*
G36*
X0110127D02*
Y0010127D01*
X0110547D01*
X01104697Y00103138D01*
X01103138Y00104697D01*
X0110127Y0010547D01*
D02*
G37*
G36*
X0109873D02*
X01096862Y00104697D01*
X01095303Y00103138D01*
X0109453Y0010127D01*
X0109873D01*
Y0010547D01*
D02*
G37*
G36*
X0105127D02*
Y0010127D01*
X0105547D01*
X01054697Y00103138D01*
X01053138Y00104697D01*
X0105127Y0010547D01*
D02*
G37*
G36*
X0104873D02*
X01046862Y00104697D01*
X01045303Y00103138D01*
X0104453Y0010127D01*
X0104873D01*
Y0010547D01*
D02*
G37*
G36*
X0100127D02*
Y0010127D01*
X0100547D01*
X01004697Y00103138D01*
X01003138Y00104697D01*
X0100127Y0010547D01*
D02*
G37*
G36*
X0099873D02*
X00996862Y00104697D01*
X00995303Y00103138D01*
X0099453Y0010127D01*
X0099873D01*
Y0010547D01*
D02*
G37*
G36*
X0095127D02*
Y0010127D01*
X0095547D01*
X00954697Y00103138D01*
X00953138Y00104697D01*
X0095127Y0010547D01*
D02*
G37*
G36*
X0094873D02*
X00946862Y00104697D01*
X00945303Y00103138D01*
X0094453Y0010127D01*
X0094873D01*
Y0010547D01*
D02*
G37*
G36*
X0090127D02*
Y0010127D01*
X0090547D01*
X00904697Y00103138D01*
X00903138Y00104697D01*
X0090127Y0010547D01*
D02*
G37*
G36*
X0089873D02*
X00896862Y00104697D01*
X00895303Y00103138D01*
X0089453Y0010127D01*
X0089873D01*
Y0010547D01*
D02*
G37*
G36*
X0085127D02*
Y0010127D01*
X0085547D01*
X00854697Y00103138D01*
X00853138Y00104697D01*
X0085127Y0010547D01*
D02*
G37*
G36*
X0084873D02*
X00846862Y00104697D01*
X00845303Y00103138D01*
X0084453Y0010127D01*
X0084873D01*
Y0010547D01*
D02*
G37*
G36*
X0070127D02*
Y0010127D01*
X0070547D01*
X00704697Y00103138D01*
X00703138Y00104697D01*
X0070127Y0010547D01*
D02*
G37*
G36*
X0069873D02*
X00696862Y00104697D01*
X00695303Y00103138D01*
X0069453Y0010127D01*
X0069873D01*
Y0010547D01*
D02*
G37*
G36*
X0065127D02*
Y0010127D01*
X0065547D01*
X00654697Y00103138D01*
X00653138Y00104697D01*
X0065127Y0010547D01*
D02*
G37*
G36*
X0064873D02*
X00646862Y00104697D01*
X00645303Y00103138D01*
X0064453Y0010127D01*
X0064873D01*
Y0010547D01*
D02*
G37*
G36*
X0060127D02*
Y0010127D01*
X0060547D01*
X00604697Y00103138D01*
X00603138Y00104697D01*
X0060127Y0010547D01*
D02*
G37*
G36*
X0059873D02*
X00596862Y00104697D01*
X00595303Y00103138D01*
X0059453Y0010127D01*
X0059873D01*
Y0010547D01*
D02*
G37*
G36*
X0055127D02*
Y0010127D01*
X0055547D01*
X00554697Y00103138D01*
X00553138Y00104697D01*
X0055127Y0010547D01*
D02*
G37*
G36*
X0054873D02*
X00546862Y00104697D01*
X00545303Y00103138D01*
X0054453Y0010127D01*
X0054873D01*
Y0010547D01*
D02*
G37*
G36*
X0050127D02*
Y0010127D01*
X0050547D01*
X00504697Y00103138D01*
X00503138Y00104697D01*
X0050127Y0010547D01*
D02*
G37*
G36*
X0049873D02*
X00496862Y00104697D01*
X00495303Y00103138D01*
X0049453Y0010127D01*
X0049873D01*
Y0010547D01*
D02*
G37*
G36*
X0045127D02*
Y0010127D01*
X0045547D01*
X00454697Y00103138D01*
X00453138Y00104697D01*
X0045127Y0010547D01*
D02*
G37*
G36*
X0044873D02*
X00446862Y00104697D01*
X00445303Y00103138D01*
X0044453Y0010127D01*
X0044873D01*
Y0010547D01*
D02*
G37*
G36*
X0120547Y0009873D02*
X0120127D01*
Y0009453D01*
X01203138Y00095303D01*
X01204697Y00096862D01*
X0120547Y0009873D01*
D02*
G37*
G36*
X0119873D02*
X0119453D01*
X01195303Y00096862D01*
X01196862Y00095303D01*
X0119873Y0009453D01*
Y0009873D01*
D02*
G37*
G36*
X0115547D02*
X0115127D01*
Y0009453D01*
X01153138Y00095303D01*
X01154697Y00096862D01*
X0115547Y0009873D01*
D02*
G37*
G36*
X0114873D02*
X0114453D01*
X01145303Y00096862D01*
X01146862Y00095303D01*
X0114873Y0009453D01*
Y0009873D01*
D02*
G37*
G36*
X0110547D02*
X0110127D01*
Y0009453D01*
X01103138Y00095303D01*
X01104697Y00096862D01*
X0110547Y0009873D01*
D02*
G37*
G36*
X0109873D02*
X0109453D01*
X01095303Y00096862D01*
X01096862Y00095303D01*
X0109873Y0009453D01*
Y0009873D01*
D02*
G37*
G36*
X0105547D02*
X0105127D01*
Y0009453D01*
X01053138Y00095303D01*
X01054697Y00096862D01*
X0105547Y0009873D01*
D02*
G37*
G36*
X0104873D02*
X0104453D01*
X01045303Y00096862D01*
X01046862Y00095303D01*
X0104873Y0009453D01*
Y0009873D01*
D02*
G37*
G36*
X0100547D02*
X0100127D01*
Y0009453D01*
X01003138Y00095303D01*
X01004697Y00096862D01*
X0100547Y0009873D01*
D02*
G37*
G36*
X0099873D02*
X0099453D01*
X00995303Y00096862D01*
X00996862Y00095303D01*
X0099873Y0009453D01*
Y0009873D01*
D02*
G37*
G36*
X0095547D02*
X0095127D01*
Y0009453D01*
X00953138Y00095303D01*
X00954697Y00096862D01*
X0095547Y0009873D01*
D02*
G37*
G36*
X0094873D02*
X0094453D01*
X00945303Y00096862D01*
X00946862Y00095303D01*
X0094873Y0009453D01*
Y0009873D01*
D02*
G37*
G36*
X0090547D02*
X0090127D01*
Y0009453D01*
X00903138Y00095303D01*
X00904697Y00096862D01*
X0090547Y0009873D01*
D02*
G37*
G36*
X0089873D02*
X0089453D01*
X00895303Y00096862D01*
X00896862Y00095303D01*
X0089873Y0009453D01*
Y0009873D01*
D02*
G37*
G36*
X0085547D02*
X0085127D01*
Y0009453D01*
X00853138Y00095303D01*
X00854697Y00096862D01*
X0085547Y0009873D01*
D02*
G37*
G36*
X0084873D02*
X0084453D01*
X00845303Y00096862D01*
X00846862Y00095303D01*
X0084873Y0009453D01*
Y0009873D01*
D02*
G37*
G36*
X01271625Y00099559D02*
X01268375D01*
X01268079Y000995D01*
X01267778D01*
X0126459Y00098866D01*
X01264312Y00098751D01*
X01264017Y00098692D01*
X01261014Y00097448D01*
X01260763Y00097281D01*
X01260485Y00097165D01*
X01257783Y0009536D01*
X0125757Y00095147D01*
X01257319Y00094979D01*
X01255021Y00092681D01*
X01254853Y0009243D01*
X0125464Y00092218D01*
X01252835Y00089515D01*
X01252719Y00089237D01*
X01252552Y00088986D01*
X01251308Y00085983D01*
X01251249Y00085688D01*
X01251134Y0008541D01*
X012505Y00082222D01*
Y00081921D01*
X01250441Y00081625D01*
Y00078375D01*
X012505Y00078079D01*
Y00077778D01*
X01251134Y0007459D01*
X01251249Y00074312D01*
X01251308Y00074017D01*
X01252552Y00071014D01*
X01252719Y00070763D01*
X01252835Y00070485D01*
X0125464Y00067783D01*
X01254853Y00067569D01*
X01255021Y00067319D01*
X01257319Y00065021D01*
X0125757Y00064853D01*
X01257783Y0006464D01*
X01260485Y00062835D01*
X01260763Y00062719D01*
X01261014Y00062552D01*
X01264016Y00061308D01*
X01264312Y00061249D01*
X0126459Y00061134D01*
X01267778Y000605D01*
X01268079D01*
X01268375Y00060441D01*
X01271625D01*
X01271921Y000605D01*
X01272222D01*
X0127541Y00061134D01*
X01275688Y00061249D01*
X01275983Y00061308D01*
X01278986Y00062552D01*
X01279237Y00062719D01*
X01279515Y00062835D01*
X01282218Y0006464D01*
X01282431Y00064853D01*
X01282681Y00065021D01*
X01284979Y00067319D01*
X01285147Y00067569D01*
X0128536Y00067783D01*
X01287165Y00070485D01*
X01287281Y00070763D01*
X01287448Y00071014D01*
X01288692Y00074016D01*
X01288751Y00074312D01*
X01288866Y0007459D01*
X012895Y00077778D01*
Y00078079D01*
X01289559Y00078375D01*
Y00081625D01*
X012895Y00081921D01*
Y00082222D01*
X01288866Y0008541D01*
X01288751Y00085688D01*
X01288692Y00085983D01*
X01287448Y00088986D01*
X01287281Y00089237D01*
X01287165Y00089515D01*
X0128536Y00092218D01*
X01285147Y0009243D01*
X01284979Y00092681D01*
X01282681Y00094979D01*
X01282431Y00095147D01*
X01282218Y0009536D01*
X01279515Y00097165D01*
X01279237Y00097281D01*
X01278986Y00097448D01*
X01275983Y00098692D01*
X01275688Y00098751D01*
X0127541Y00098866D01*
X01272222Y000995D01*
X01271921D01*
X01271625Y00099559D01*
D02*
G37*
G36*
X00351625Y00099559D02*
X00348375D01*
X00348079Y000995D01*
X00347778D01*
X0034459Y00098866D01*
X00344312Y00098751D01*
X00344017Y00098692D01*
X00341014Y00097448D01*
X00340763Y00097281D01*
X00340485Y00097165D01*
X00337783Y0009536D01*
X0033757Y00095147D01*
X00337319Y00094979D01*
X00335021Y00092681D01*
X00334853Y0009243D01*
X0033464Y00092218D01*
X00332835Y00089515D01*
X00332719Y00089237D01*
X00332552Y00088986D01*
X00331308Y00085983D01*
X00331249Y00085688D01*
X00331134Y0008541D01*
X003305Y00082222D01*
Y0008192D01*
X00330441Y00081625D01*
Y00078375D01*
X003305Y00078079D01*
Y00077778D01*
X00331134Y0007459D01*
X00331249Y00074312D01*
X00331308Y00074016D01*
X00332552Y00071014D01*
X00332719Y00070763D01*
X00332835Y00070485D01*
X0033464Y00067783D01*
X00334853Y00067569D01*
X00335021Y00067319D01*
X00337319Y00065021D01*
X0033757Y00064853D01*
X00337783Y0006464D01*
X00340485Y00062835D01*
X00340763Y00062719D01*
X00341014Y00062552D01*
X00344016Y00061308D01*
X00344312Y00061249D01*
X0034459Y00061134D01*
X00347778Y000605D01*
X00348079D01*
X00348375Y00060441D01*
X00351625D01*
X00351921Y000605D01*
X00352222D01*
X0035541Y00061134D01*
X00355688Y00061249D01*
X00355983Y00061308D01*
X00358986Y00062552D01*
X00359237Y00062719D01*
X00359515Y00062835D01*
X00362217Y0006464D01*
X0036243Y00064853D01*
X00362681Y00065021D01*
X00364979Y00067319D01*
X00365147Y00067569D01*
X0036536Y00067782D01*
X00367165Y00070485D01*
X00367281Y00070763D01*
X00367448Y00071014D01*
X00368692Y00074016D01*
X00368751Y00074312D01*
X00368866Y0007459D01*
X003695Y00077778D01*
Y00078079D01*
X00369559Y00078375D01*
Y00081625D01*
X003695Y0008192D01*
Y00082222D01*
X00368866Y0008541D01*
X00368751Y00085688D01*
X00368692Y00085983D01*
X00367448Y00088986D01*
X00367281Y00089237D01*
X00367165Y00089515D01*
X0036536Y00092217D01*
X00365147Y0009243D01*
X00364979Y00092681D01*
X00362681Y00094979D01*
X0036243Y00095147D01*
X00362217Y0009536D01*
X00359515Y00097165D01*
X00359237Y00097281D01*
X00358986Y00097448D01*
X00355983Y00098692D01*
X00355688Y00098751D01*
X0035541Y00098866D01*
X00352222Y000995D01*
X00351921D01*
X00351625Y00099559D01*
D02*
G37*
%LPD*%
G36*
X0090294Y00678678D02*
Y00635341D01*
X0090167Y00635001D01*
X00901152Y00635897D01*
X00899197Y00637852D01*
X00896803Y00639234D01*
X00894132Y0063995D01*
X00893661D01*
X00888069Y00645542D01*
Y00665466D01*
X00901766Y00679164D01*
X0090294Y00678678D01*
D02*
G37*
D33*
X0092485Y0064125D02*
X00946Y006624D01*
X0092485Y00297129D02*
Y0064125D01*
X0064Y0033D02*
X0087D01*
X004182Y005518D02*
X0064Y0033D01*
X004182Y005518D02*
Y0057216D01*
X00808877Y002942D02*
X00921921D01*
X0092485Y00297129D01*
X0078815Y00273472D02*
X00808877Y002942D01*
X00938Y00317397D02*
Y00321413D01*
X00946Y00329413D02*
Y003322D01*
X0093285Y00312247D02*
X00938Y00317397D01*
X0073Y0009D02*
X0093285Y0029285D01*
Y00312247D01*
X00938Y00321413D02*
X00946Y00329413D01*
X00402929Y0009D02*
X0073D01*
X0076Y0007D02*
X0097Y0028D01*
X00382929Y0007D02*
X0076D01*
X0097Y0028D02*
Y003844D01*
X00946Y004084D02*
X0097Y003844D01*
X004Y005916D02*
X0040381D01*
X004102Y0058016D02*
X004182Y0057216D01*
X004102Y0058016D02*
Y0058521D01*
X0040381Y005916D02*
X004102Y0058521D01*
X00783472Y00273472D02*
X0078815D01*
X0078Y0027D02*
X00783472Y00273472D01*
X004Y004646D02*
X00400352D01*
X00407875Y00455486D02*
Y00457077D01*
X004Y00415039D02*
X004182Y0043324D01*
X00400352Y004646D02*
X00407875Y00457077D01*
X004Y00092929D02*
Y00415039D01*
X004182Y0043324D02*
Y0044516D01*
X00407875Y00455486D02*
X004182Y0044516D01*
X004Y00092929D02*
X00402929Y0009D01*
X0038Y00072929D02*
X00382929Y0007D01*
X0038Y00072929D02*
Y004192D01*
X00393745Y00432945D01*
Y00433296D01*
X00399648Y004392D02*
X004D01*
X00393745Y00433296D02*
X00399648Y004392D01*
D34*
X00751559Y00537668D02*
Y00562583D01*
X00732291Y005184D02*
X00751559Y00537668D01*
X00671559Y00568441D02*
X00745701D01*
X00751559Y00562583D01*
X007238Y005135D02*
X00750482D01*
X0041Y0064D02*
X0042Y0065D01*
X0059D02*
X00671559Y00568441D01*
X0042Y0065D02*
X0059D01*
X0088Y00784142D02*
X00885858Y0079D01*
X0088Y006422D02*
Y00668809D01*
X00885858Y0079D02*
X0111D01*
X0088Y00762308D02*
X00885858Y0075645D01*
X0088Y00762308D02*
Y00784142D01*
Y00668809D02*
X0091325Y00702059D01*
X00885858Y0075645D02*
X00901241D01*
X0091325Y00702059D02*
Y00744442D01*
X0088Y006422D02*
X0089275Y0062945D01*
X00901241Y0075645D02*
X0091325Y00744442D01*
X0111Y0079D02*
X0112Y0078D01*
X00750482Y005135D02*
X00801282Y004627D01*
X008762D01*
D35*
X0089Y0031D02*
X0091Y0033D01*
X0092525Y00697088D02*
Y00738568D01*
X0091Y0033D02*
Y00681838D01*
X0092525Y00697088D01*
X0063Y0031D02*
X0089D01*
X004246Y005154D02*
X0063Y0031D01*
X004Y005154D02*
X004246D01*
X0117Y00535318D02*
Y0078D01*
Y003114D02*
Y00535318D01*
X00952068Y0075325D02*
X0117Y00535318D01*
X00939932Y0075325D02*
X00952068D01*
X0092525Y00738568D02*
X00939932Y0075325D01*
X0117Y003114D02*
X012Y002814D01*
D36*
X00946D02*
D03*
Y003068D02*
D03*
Y003322D02*
D03*
Y003576D02*
D03*
Y00383D02*
D03*
Y004084D02*
D03*
Y004338D02*
D03*
Y004592D02*
D03*
Y004846D02*
D03*
Y0051D02*
D03*
Y005354D02*
D03*
Y005608D02*
D03*
Y005862D02*
D03*
Y006116D02*
D03*
Y00637D02*
D03*
Y006624D02*
D03*
Y006878D02*
D03*
Y007132D02*
D03*
Y007386D02*
D03*
X012D02*
D03*
Y007132D02*
D03*
Y006878D02*
D03*
Y006624D02*
D03*
Y00637D02*
D03*
Y006116D02*
D03*
Y005862D02*
D03*
Y005608D02*
D03*
Y005354D02*
D03*
Y0051D02*
D03*
Y004846D02*
D03*
Y004592D02*
D03*
Y004338D02*
D03*
Y004084D02*
D03*
Y00383D02*
D03*
Y003576D02*
D03*
Y003322D02*
D03*
Y003068D02*
D03*
D37*
Y002814D02*
D03*
D38*
X007546Y0027D02*
D03*
X008054D02*
D03*
X0078D02*
D03*
D39*
X0045Y002D02*
D03*
Y00271D02*
D03*
X0062Y002D02*
D03*
Y00271D02*
D03*
D40*
X0044156Y00350508D02*
D03*
X0066Y0035D02*
D03*
X00659746Y00867652D02*
D03*
X00443084Y00866382D02*
D03*
D41*
X004Y005916D02*
D03*
D42*
Y005662D02*
D03*
Y005408D02*
D03*
Y005154D02*
D03*
Y0049D02*
D03*
Y004646D02*
D03*
Y004392D02*
D03*
D43*
X008762Y003611D02*
D03*
Y003865D02*
D03*
Y004119D02*
D03*
Y004373D02*
D03*
Y004627D02*
D03*
Y004881D02*
D03*
Y005135D02*
D03*
Y005389D02*
D03*
X007238D02*
D03*
Y005135D02*
D03*
Y004881D02*
D03*
Y004627D02*
D03*
Y004373D02*
D03*
Y004119D02*
D03*
Y003865D02*
D03*
Y003611D02*
D03*
D44*
X0070725Y0073595D02*
D03*
Y0071055D02*
D03*
Y0060405D02*
D03*
Y0062945D02*
D03*
X0089275Y0060405D02*
D03*
Y0062945D02*
D03*
Y0073595D02*
D03*
Y0071055D02*
D03*
D45*
X007446Y0083D02*
D03*
D46*
X0077D02*
D03*
D47*
X0093Y0085D02*
D03*
X008792D02*
D03*
X011492D02*
D03*
X012D02*
D03*
X0094095Y0012933D02*
D03*
X0089015D02*
D03*
X01073825D02*
D03*
X01023025D02*
D03*
X012067D02*
D03*
X011559D02*
D03*
X01065Y0085D02*
D03*
X010142D02*
D03*
D48*
X0126Y005D02*
D03*
Y00475D02*
D03*
Y0045D02*
D03*
Y00425D02*
D03*
Y004D02*
D03*
Y00375D02*
D03*
Y0035D02*
D03*
Y00325D02*
D03*
D49*
Y003D02*
D03*
D50*
X0125Y008D02*
D03*
X01275Y0075D02*
D03*
X0125Y007D02*
D03*
Y006D02*
D03*
X01225Y0085D02*
D03*
Y0075D02*
D03*
Y0065D02*
D03*
Y0055D02*
D03*
X012Y002D02*
D03*
Y001D02*
D03*
X01175Y0085D02*
D03*
X0115Y008D02*
D03*
Y007D02*
D03*
Y005D02*
D03*
Y004D02*
D03*
Y003D02*
D03*
X01175Y0015D02*
D03*
X0115Y001D02*
D03*
X01125Y0075D02*
D03*
X011Y007D02*
D03*
X01125Y0065D02*
D03*
Y0055D02*
D03*
X011Y005D02*
D03*
X01125Y0035D02*
D03*
X011Y003D02*
D03*
X01125Y0025D02*
D03*
X011Y002D02*
D03*
X01125Y0015D02*
D03*
X011Y001D02*
D03*
X01075Y0065D02*
D03*
X0105Y006D02*
D03*
X01075Y0055D02*
D03*
X0105Y005D02*
D03*
X01075Y0045D02*
D03*
X0105Y004D02*
D03*
Y003D02*
D03*
Y002D02*
D03*
Y001D02*
D03*
X01025Y0075D02*
D03*
Y0065D02*
D03*
X01Y006D02*
D03*
X01025Y0055D02*
D03*
X01Y005D02*
D03*
X01025Y0045D02*
D03*
X01Y004D02*
D03*
Y003D02*
D03*
Y002D02*
D03*
Y001D02*
D03*
X00975Y0085D02*
D03*
Y0075D02*
D03*
Y0065D02*
D03*
Y0055D02*
D03*
Y0045D02*
D03*
Y0025D02*
D03*
X0095Y002D02*
D03*
X00975Y0015D02*
D03*
X0095Y001D02*
D03*
X009D02*
D03*
X0085Y006D02*
D03*
Y004D02*
D03*
X00875Y0025D02*
D03*
Y0015D02*
D03*
X0085Y001D02*
D03*
X00825Y0085D02*
D03*
X008Y008D02*
D03*
X00825Y0075D02*
D03*
Y0065D02*
D03*
X008Y006D02*
D03*
X00825Y0055D02*
D03*
X008Y005D02*
D03*
X00825Y0045D02*
D03*
X008Y004D02*
D03*
X00825Y0025D02*
D03*
Y0015D02*
D03*
X00775Y0085D02*
D03*
X0075Y008D02*
D03*
X00775Y0055D02*
D03*
Y0045D02*
D03*
X0075Y004D02*
D03*
X00775Y0025D02*
D03*
X0075Y002D02*
D03*
X00775Y0015D02*
D03*
X00725Y0085D02*
D03*
Y0065D02*
D03*
Y0025D02*
D03*
X007Y002D02*
D03*
X00725Y0015D02*
D03*
X007Y001D02*
D03*
X00675Y0085D02*
D03*
X0065Y008D02*
D03*
X00675Y0075D02*
D03*
X0065Y007D02*
D03*
X00675Y0065D02*
D03*
Y0015D02*
D03*
X0065Y001D02*
D03*
X00625Y0085D02*
D03*
X006Y008D02*
D03*
X00625Y0075D02*
D03*
X006Y007D02*
D03*
X00625Y0065D02*
D03*
X006Y006D02*
D03*
X00625Y0055D02*
D03*
Y0045D02*
D03*
X006Y004D02*
D03*
Y003D02*
D03*
X00625Y0025D02*
D03*
Y0015D02*
D03*
X006Y001D02*
D03*
X0055Y008D02*
D03*
X00575Y0075D02*
D03*
X0055Y007D02*
D03*
Y006D02*
D03*
X00575Y0055D02*
D03*
X0055Y005D02*
D03*
X00575Y0035D02*
D03*
Y0025D02*
D03*
Y0015D02*
D03*
X0055Y001D02*
D03*
X00525Y0085D02*
D03*
Y0075D02*
D03*
X005Y007D02*
D03*
Y006D02*
D03*
X00525Y0055D02*
D03*
X005Y005D02*
D03*
Y004D02*
D03*
X00525Y0035D02*
D03*
X005Y003D02*
D03*
X00525Y0025D02*
D03*
Y0015D02*
D03*
X005Y001D02*
D03*
X00475Y0085D02*
D03*
X0045Y008D02*
D03*
Y007D02*
D03*
Y006D02*
D03*
X00475Y0055D02*
D03*
Y0045D02*
D03*
Y0035D02*
D03*
X0045Y003D02*
D03*
X00475Y0025D02*
D03*
Y0015D02*
D03*
X0045Y001D02*
D03*
X004Y008D02*
D03*
X00425Y0075D02*
D03*
Y0025D02*
D03*
Y0015D02*
D03*
X00375Y0085D02*
D03*
X0035Y008D02*
D03*
X00375Y0075D02*
D03*
X0035Y007D02*
D03*
X00375Y0045D02*
D03*
X0035Y002D02*
D03*
D51*
X0087Y0033D02*
D03*
X0041Y0064D02*
D03*
X0112Y0078D02*
D03*
X0117D02*
D03*
D52*
X0084Y0077D02*
Y00805886D01*
X00854645Y0082053D01*
X01118934D02*
X01148404Y0085D01*
X00854645Y0082053D02*
X01118934D01*
X01148404Y0085D02*
X011492D01*
X0084Y0077D02*
X0087405Y0073595D01*
X0124654Y0032254D02*
X0125754D01*
X0123746Y0016009D02*
Y0031346D01*
X0125754Y0032254D02*
X0126Y00325D01*
X0123746Y0031346D02*
X0124654Y0032254D01*
X0066Y0035D02*
Y00485621D01*
X00713279Y005389D01*
X007238D01*
X004Y0048919D02*
Y0049D01*
Y0048919D02*
X004002Y0048899D01*
X00413913D01*
X0044156Y00461343D01*
X003718Y00505297D02*
X00386087Y0049101D01*
X0044156Y00350508D02*
Y00461343D01*
X0070725Y0071055D02*
X0089275D01*
X007238Y003611D02*
X008762D01*
X003718Y00505297D02*
Y00525503D01*
X00386087Y0053979D01*
X003998D01*
X004Y0053999D01*
Y005408D01*
X00443084Y00844645D02*
X00457729Y0083D01*
X007446D01*
X00443084Y00844645D02*
Y00866382D01*
X0070725Y0079265D02*
X007446Y0083D01*
X0070725Y0073595D02*
Y0079265D01*
Y0071055D02*
Y0073595D01*
X0089275Y0071055D02*
Y0073595D01*
X0087405D02*
X0089275D01*
X012067Y0012933D02*
X0123746Y0016009D01*
M02*
