G04*
G04 #@! TF.GenerationSoftware,Altium Limited,Altium Designer,24.1.2 (44)*
G04*
G04 Layer_Color=16711935*
%FSTAX44Y44*%
%MOMM*%
G71*
G04*
G04 #@! TF.SameCoordinates,15096EBA-7BDD-494B-A6EB-00B69F680517*
G04*
G04*
G04 #@! TF.FilePolarity,Positive*
G04*
G01*
G75*
%ADD10C,0.2000*%
%ADD12C,0.1270*%
D10*
X012197Y002802D02*
G03*
X012197Y002802I-00001J0D01*
G01*
X00451Y0031D02*
G03*
X00451Y0031I-00001J0D01*
G01*
X00621Y0031D02*
G03*
X00621Y0031I-00001J0D01*
G01*
X007248Y00557282D02*
G03*
X007248Y00557282I-00001J0D01*
G01*
X01235Y003D02*
G03*
X01235Y003I-00001J0D01*
G01*
D12*
X009335Y007509D02*
X010324D01*
Y007599D01*
X011137D01*
Y007509D02*
Y007599D01*
Y007509D02*
X012125D01*
X00983Y002069D02*
Y002689D01*
Y002069D02*
X01163D01*
Y002689D01*
X012125D01*
X00983D02*
X01163D01*
X009335D02*
X00983D01*
X009335D02*
Y007509D01*
X012125Y002689D02*
Y007509D01*
X00525Y00095D02*
Y00305D01*
X00375Y00095D02*
X00525D01*
X00375D02*
Y00305D01*
X00525D01*
X00695Y00095D02*
Y00305D01*
X00545Y00095D02*
X00695D01*
X00545D02*
Y00305D01*
X00695D01*
X006984Y005516D02*
X009016D01*
Y003484D02*
Y005516D01*
X006984Y003484D02*
X009016D01*
X006984D02*
Y005516D01*
X01282Y00275D02*
Y00525D01*
X01243999D02*
X01282D01*
X01243999Y00275D02*
Y00525D01*
Y00275D02*
X01282D01*
M02*
