G04*
G04 #@! TF.GenerationSoftware,Altium Limited,Altium Designer,24.1.2 (44)*
G04*
G04 Layer_Color=2752767*
%FSTAX44Y44*%
%MOMM*%
G71*
G04*
G04 #@! TF.SameCoordinates,15096EBA-7BDD-494B-A6EB-00B69F680517*
G04*
G04*
G04 #@! TF.FilePolarity,Positive*
G04*
G01*
G75*
%ADD12C,0.1270*%
%ADD54C,0.1693*%
%ADD55C,0.1016*%
D12*
X0094092Y0027632D02*
Y0028648D01*
X0095108D01*
Y0027632D01*
X0094092D01*
Y0030172D02*
Y0031188D01*
X0095108D01*
Y0030172D01*
X0094092D01*
Y0032712D02*
Y0033728D01*
X0095108D01*
Y0032712D01*
X0094092D01*
Y0035252D02*
Y0036268D01*
X0095108D01*
Y0035252D01*
X0094092D01*
Y0037792D02*
Y0038808D01*
X0095108D01*
Y0037792D01*
X0094092D01*
Y0040332D02*
Y0041348D01*
X0095108D01*
Y0040332D01*
X0094092D01*
Y0042872D02*
Y0043888D01*
X0095108D01*
Y0042872D01*
X0094092D01*
Y0045412D02*
Y0046428D01*
X0095108D01*
Y0045412D01*
X0094092D01*
Y0047952D02*
Y0048968D01*
X0095108D01*
Y0047952D01*
X0094092D01*
Y0050492D02*
Y0051508D01*
X0095108D01*
Y0050492D01*
X0094092D01*
Y0053032D02*
Y0054048D01*
X0095108D01*
Y0053032D01*
X0094092D01*
Y0055572D02*
Y0056588D01*
X0095108D01*
Y0055572D01*
X0094092D01*
Y0058112D02*
Y0059128D01*
X0095108D01*
Y0058112D01*
X0094092D01*
Y0060652D02*
Y0061668D01*
X0095108D01*
Y0060652D01*
X0094092D01*
Y0063192D02*
Y0064208D01*
X0095108D01*
Y0063192D01*
X0094092D01*
Y0065732D02*
Y0066748D01*
X0095108D01*
Y0065732D01*
X0094092D01*
Y0068272D02*
Y0069288D01*
X0095108D01*
Y0068272D01*
X0094092D01*
Y0070812D02*
Y0071828D01*
X0095108D01*
Y0070812D01*
X0094092D01*
Y0073352D02*
Y0074368D01*
X0095108D01*
Y0073352D01*
X0094092D01*
X0119492D02*
Y0074368D01*
X0120508D01*
Y0073352D01*
X0119492D01*
Y0070812D02*
Y0071828D01*
X0120508D01*
Y0070812D01*
X0119492D01*
Y0068272D02*
Y0069288D01*
X0120508D01*
Y0068272D01*
X0119492D01*
Y0065732D02*
Y0066748D01*
X0120508D01*
Y0065732D01*
X0119492D01*
Y0063192D02*
Y0064208D01*
X0120508D01*
Y0063192D01*
X0119492D01*
Y0060652D02*
Y0061668D01*
X0120508D01*
Y0060652D01*
X0119492D01*
Y0058112D02*
Y0059128D01*
X0120508D01*
Y0058112D01*
X0119492D01*
Y0055572D02*
Y0056588D01*
X0120508D01*
Y0055572D01*
X0119492D01*
Y0053032D02*
Y0054048D01*
X0120508D01*
Y0053032D01*
X0119492D01*
Y0050492D02*
Y0051508D01*
X0120508D01*
Y0050492D01*
X0119492D01*
Y0047952D02*
Y0048968D01*
X0120508D01*
Y0047952D01*
X0119492D01*
Y0045412D02*
Y0046428D01*
X0120508D01*
Y0045412D01*
X0119492D01*
Y0042872D02*
Y0043888D01*
X0120508D01*
Y0042872D01*
X0119492D01*
Y0040332D02*
Y0041348D01*
X0120508D01*
Y0040332D01*
X0119492D01*
Y0037792D02*
Y0038808D01*
X0120508D01*
Y0037792D01*
X0119492D01*
Y0035252D02*
Y0036268D01*
X0120508D01*
Y0035252D01*
X0119492D01*
Y0032712D02*
Y0033728D01*
X0120508D01*
Y0032712D01*
X0119492D01*
Y0030172D02*
Y0031188D01*
X0120508D01*
Y0030172D01*
X0119492D01*
Y0027632D02*
Y0028648D01*
X0120508D01*
Y0027632D01*
X0119492D01*
X0074952Y0026492D02*
Y0027508D01*
X0075968D01*
Y0026492D01*
X0074952D01*
X00751552Y00266952D02*
Y00273048D01*
X00757648D01*
Y00266952D01*
X00751552D01*
X0080032Y0026492D02*
Y0027508D01*
X0081048D01*
Y0026492D01*
X0080032D01*
X00802352Y00266952D02*
Y00273048D01*
X00808448D01*
Y00266952D01*
X00802352D01*
X0077492Y0026492D02*
Y0027508D01*
X0078508D01*
Y0026492D01*
X0077492D01*
X00776952Y00266952D02*
Y00273048D01*
X00783048D01*
Y00266952D01*
X00776952D01*
X0045Y0019492D02*
X0045254Y0019746D01*
X0045508D01*
X0045254Y002D01*
X0045508Y0020254D01*
X0045254D01*
X0045Y0020508D01*
X0044746Y0020254D01*
X0044492D01*
X0044746Y002D01*
X0044492Y0019746D01*
X0044746D01*
X0045Y0019492D01*
Y0026592D02*
X0045254Y0026846D01*
X0045508D01*
X0045254Y00271D01*
X0045508Y0027354D01*
X0045254D01*
X0045Y0027608D01*
X0044746Y0027354D01*
X0044492D01*
X0044746Y00271D01*
X0044492Y0026846D01*
X0044746D01*
X0045Y0026592D01*
X0044156Y00345428D02*
X0043648Y00355588D01*
X0044664D01*
X0044156Y00345428D01*
X0066Y0034492D02*
X0065492Y0035508D01*
X0066508D01*
X0066Y0034492D01*
X00659746Y00862572D02*
X00654666Y00872732D01*
X00664826D01*
X00659746Y00862572D01*
X00443084Y00861302D02*
X00438004Y00871462D01*
X00448164D01*
X00443084Y00861302D01*
X0039492Y0058652D02*
X0039746D01*
X004Y0058906D01*
X0040254Y0058652D01*
X0040508D01*
Y0058906D01*
X0040254Y005916D01*
X0040508Y0059414D01*
Y0059668D01*
X0040254D01*
X004Y0059414D01*
X0039746Y0059668D01*
X0039492D01*
Y0059414D01*
X0039746Y005916D01*
X0039492Y0058906D01*
Y0058652D01*
Y0056112D02*
X0039746D01*
X004Y0056366D01*
X0040254Y0056112D01*
X0040508D01*
Y0056366D01*
X0040254Y005662D01*
X0040508Y0056874D01*
Y0057128D01*
X0040254D01*
X004Y0056874D01*
X0039746Y0057128D01*
X0039492D01*
Y0056874D01*
X0039746Y005662D01*
X0039492Y0056366D01*
Y0056112D01*
Y0053572D02*
X0039746D01*
X004Y0053826D01*
X0040254Y0053572D01*
X0040508D01*
Y0053826D01*
X0040254Y005408D01*
X0040508Y0054334D01*
Y0054588D01*
X0040254D01*
X004Y0054334D01*
X0039746Y0054588D01*
X0039492D01*
Y0054334D01*
X0039746Y005408D01*
X0039492Y0053826D01*
Y0053572D01*
Y0051032D02*
X0039746D01*
X004Y0051286D01*
X0040254Y0051032D01*
X0040508D01*
Y0051286D01*
X0040254Y005154D01*
X0040508Y0051794D01*
Y0052048D01*
X0040254D01*
X004Y0051794D01*
X0039746Y0052048D01*
X0039492D01*
Y0051794D01*
X0039746Y005154D01*
X0039492Y0051286D01*
Y0051032D01*
Y0048492D02*
X0039746D01*
X004Y0048746D01*
X0040254Y0048492D01*
X0040508D01*
Y0048746D01*
X0040254Y0049D01*
X0040508Y0049254D01*
Y0049508D01*
X0040254D01*
X004Y0049254D01*
X0039746Y0049508D01*
X0039492D01*
Y0049254D01*
X0039746Y0049D01*
X0039492Y0048746D01*
Y0048492D01*
Y0045952D02*
X0039746D01*
X004Y0046206D01*
X0040254Y0045952D01*
X0040508D01*
Y0046206D01*
X0040254Y004646D01*
X0040508Y0046714D01*
Y0046968D01*
X0040254D01*
X004Y0046714D01*
X0039746Y0046968D01*
X0039492D01*
Y0046714D01*
X0039746Y004646D01*
X0039492Y0046206D01*
Y0045952D01*
Y0043412D02*
X0039746D01*
X004Y0043666D01*
X0040254Y0043412D01*
X0040508D01*
Y0043666D01*
X0040254Y004392D01*
X0040508Y0044174D01*
Y0044428D01*
X0040254D01*
X004Y0044174D01*
X0039746Y0044428D01*
X0039492D01*
Y0044174D01*
X0039746Y004392D01*
X0039492Y0043666D01*
Y0043412D01*
X0062Y0019492D02*
X0062254Y0019746D01*
X0062508D01*
X0062254Y002D01*
X0062508Y0020254D01*
X0062254D01*
X0062Y0020508D01*
X0061746Y0020254D01*
X0061492D01*
X0061746Y002D01*
X0061492Y0019746D01*
X0061746D01*
X0062Y0019492D01*
Y0026592D02*
X0062254Y0026846D01*
X0062508D01*
X0062254Y00271D01*
X0062508Y0027354D01*
X0062254D01*
X0062Y0027608D01*
X0061746Y0027354D01*
X0061492D01*
X0061746Y00271D01*
X0061492Y0026846D01*
X0061746D01*
X0062Y0026592D01*
X0087366Y0035856D02*
Y0035602D01*
X0087874D01*
Y0035856D01*
X0088128D01*
Y0036364D01*
X0087874D01*
Y0036618D01*
X0087366D01*
Y0036364D01*
X0087112D01*
Y0035856D01*
X0087366D01*
Y0038396D02*
Y0038142D01*
X0087874D01*
Y0038396D01*
X0088128D01*
Y0038904D01*
X0087874D01*
Y0039158D01*
X0087366D01*
Y0038904D01*
X0087112D01*
Y0038396D01*
X0087366D01*
Y0040936D02*
Y0040682D01*
X0087874D01*
Y0040936D01*
X0088128D01*
Y0041444D01*
X0087874D01*
Y0041698D01*
X0087366D01*
Y0041444D01*
X0087112D01*
Y0040936D01*
X0087366D01*
Y0043476D02*
Y0043222D01*
X0087874D01*
Y0043476D01*
X0088128D01*
Y0043984D01*
X0087874D01*
Y0044238D01*
X0087366D01*
Y0043984D01*
X0087112D01*
Y0043476D01*
X0087366D01*
Y0046016D02*
Y0045762D01*
X0087874D01*
Y0046016D01*
X0088128D01*
Y0046524D01*
X0087874D01*
Y0046778D01*
X0087366D01*
Y0046524D01*
X0087112D01*
Y0046016D01*
X0087366D01*
Y0048556D02*
Y0048302D01*
X0087874D01*
Y0048556D01*
X0088128D01*
Y0049064D01*
X0087874D01*
Y0049318D01*
X0087366D01*
Y0049064D01*
X0087112D01*
Y0048556D01*
X0087366D01*
Y0051096D02*
Y0050842D01*
X0087874D01*
Y0051096D01*
X0088128D01*
Y0051604D01*
X0087874D01*
Y0051858D01*
X0087366D01*
Y0051604D01*
X0087112D01*
Y0051096D01*
X0087366D01*
Y0053636D02*
Y0053382D01*
X0087874D01*
Y0053636D01*
X0088128D01*
Y0054144D01*
X0087874D01*
Y0054398D01*
X0087366D01*
Y0054144D01*
X0087112D01*
Y0053636D01*
X0087366D01*
X0072126D02*
Y0053382D01*
X0072634D01*
Y0053636D01*
X0072888D01*
Y0054144D01*
X0072634D01*
Y0054398D01*
X0072126D01*
Y0054144D01*
X0071872D01*
Y0053636D01*
X0072126D01*
Y0051096D02*
Y0050842D01*
X0072634D01*
Y0051096D01*
X0072888D01*
Y0051604D01*
X0072634D01*
Y0051858D01*
X0072126D01*
Y0051604D01*
X0071872D01*
Y0051096D01*
X0072126D01*
Y0048556D02*
Y0048302D01*
X0072634D01*
Y0048556D01*
X0072888D01*
Y0049064D01*
X0072634D01*
Y0049318D01*
X0072126D01*
Y0049064D01*
X0071872D01*
Y0048556D01*
X0072126D01*
Y0046016D02*
Y0045762D01*
X0072634D01*
Y0046016D01*
X0072888D01*
Y0046524D01*
X0072634D01*
Y0046778D01*
X0072126D01*
Y0046524D01*
X0071872D01*
Y0046016D01*
X0072126D01*
Y0043476D02*
Y0043222D01*
X0072634D01*
Y0043476D01*
X0072888D01*
Y0043984D01*
X0072634D01*
Y0044238D01*
X0072126D01*
Y0043984D01*
X0071872D01*
Y0043476D01*
X0072126D01*
Y0040936D02*
Y0040682D01*
X0072634D01*
Y0040936D01*
X0072888D01*
Y0041444D01*
X0072634D01*
Y0041698D01*
X0072126D01*
Y0041444D01*
X0071872D01*
Y0040936D01*
X0072126D01*
Y0038396D02*
Y0038142D01*
X0072634D01*
Y0038396D01*
X0072888D01*
Y0038904D01*
X0072634D01*
Y0039158D01*
X0072126D01*
Y0038904D01*
X0071872D01*
Y0038396D01*
X0072126D01*
Y0035856D02*
Y0035602D01*
X0072634D01*
Y0035856D01*
X0072888D01*
Y0036364D01*
X0072634D01*
Y0036618D01*
X0072126D01*
Y0036364D01*
X0071872D01*
Y0035856D01*
X0072126D01*
X0070725Y0073087D02*
X0070217Y0074103D01*
X0071233D01*
X0070725Y0073087D01*
Y0070547D02*
X0070217Y0071563D01*
X0071233D01*
X0070725Y0070547D01*
Y0059897D02*
X0070217Y0060913D01*
X0071233D01*
X0070725Y0059897D01*
Y0062437D02*
X0070217Y0063453D01*
X0071233D01*
X0070725Y0062437D01*
X0089275Y0059897D02*
X0088767Y0060913D01*
X0089783D01*
X0089275Y0059897D01*
Y0062437D02*
X0088767Y0063453D01*
X0089783D01*
X0089275Y0062437D01*
Y0073087D02*
X0088767Y0074103D01*
X0089783D01*
X0089275Y0073087D01*
Y0070547D02*
X0088767Y0071563D01*
X0089783D01*
X0089275Y0070547D01*
X0092492Y0084492D02*
X0092746Y0085D01*
X0092492Y0085508D01*
X0093Y0085254D01*
X0093508Y0085508D01*
X0093254Y0085D01*
X0093508Y0084492D01*
X0093Y0084746D01*
X0092492Y0084492D01*
X0087412D02*
X0087666Y0085D01*
X0087412Y0085508D01*
X008792Y0085254D01*
X0088428Y0085508D01*
X0088174Y0085D01*
X0088428Y0084492D01*
X008792Y0084746D01*
X0087412Y0084492D01*
X0114412D02*
X0114666Y0085D01*
X0114412Y0085508D01*
X011492Y0085254D01*
X0115428Y0085508D01*
X0115174Y0085D01*
X0115428Y0084492D01*
X011492Y0084746D01*
X0114412Y0084492D01*
X0119492D02*
X0119746Y0085D01*
X0119492Y0085508D01*
X012Y0085254D01*
X0120508Y0085508D01*
X0120254Y0085D01*
X0120508Y0084492D01*
X012Y0084746D01*
X0119492Y0084492D01*
X0093587Y0012425D02*
X0093841Y0012933D01*
X0093587Y0013441D01*
X0094095Y0013187D01*
X0094603Y0013441D01*
X0094349Y0012933D01*
X0094603Y0012425D01*
X0094095Y0012679D01*
X0093587Y0012425D01*
X0088507D02*
X0088761Y0012933D01*
X0088507Y0013441D01*
X0089015Y0013187D01*
X0089523Y0013441D01*
X0089269Y0012933D01*
X0089523Y0012425D01*
X0089015Y0012679D01*
X0088507Y0012425D01*
X01068745D02*
X01071285Y0012933D01*
X01068745Y0013441D01*
X01073825Y0013187D01*
X01078905Y0013441D01*
X01076365Y0012933D01*
X01078905Y0012425D01*
X01073825Y0012679D01*
X01068745Y0012425D01*
X01017945D02*
X01020485Y0012933D01*
X01017945Y0013441D01*
X01023025Y0013187D01*
X01028105Y0013441D01*
X01025565Y0012933D01*
X01028105Y0012425D01*
X01023025Y0012679D01*
X01017945Y0012425D01*
X0120162D02*
X0120416Y0012933D01*
X0120162Y0013441D01*
X012067Y0013187D01*
X0121178Y0013441D01*
X0120924Y0012933D01*
X0121178Y0012425D01*
X012067Y0012679D01*
X0120162Y0012425D01*
X0115082D02*
X0115336Y0012933D01*
X0115082Y0013441D01*
X011559Y0013187D01*
X0116098Y0013441D01*
X0115844Y0012933D01*
X0116098Y0012425D01*
X011559Y0012679D01*
X0115082Y0012425D01*
X0126Y0049492D02*
X0125492Y0050508D01*
X0126508D01*
X0126Y0049492D01*
Y0046992D02*
X0125492Y0048008D01*
X0126508D01*
X0126Y0046992D01*
Y0044492D02*
X0125492Y0045508D01*
X0126508D01*
X0126Y0044492D01*
Y0041992D02*
X0125492Y0043008D01*
X0126508D01*
X0126Y0041992D01*
Y0039492D02*
X0125492Y0040508D01*
X0126508D01*
X0126Y0039492D01*
Y0036992D02*
X0125492Y0038008D01*
X0126508D01*
X0126Y0036992D01*
Y0034492D02*
X0125492Y0035508D01*
X0126508D01*
X0126Y0034492D01*
Y0031992D02*
X0125492Y0033008D01*
X0126508D01*
X0126Y0031992D01*
Y0029492D02*
X0125492Y0030508D01*
X0126508D01*
X0126Y0029492D01*
X0105992Y0084492D02*
X0106246Y0085D01*
X0105992Y0085508D01*
X01065Y0085254D01*
X0107008Y0085508D01*
X0106754Y0085D01*
X0107008Y0084492D01*
X01065Y0084746D01*
X0105992Y0084492D01*
X0100912D02*
X0101166Y0085D01*
X0100912Y0085508D01*
X010142Y0085254D01*
X0101928Y0085508D01*
X0101674Y0085D01*
X0101928Y0084492D01*
X010142Y0084746D01*
X0100912Y0084492D01*
X0086492Y0033D02*
X0087Y0033508D01*
X0087508Y0033D01*
X0087Y0032492D01*
X0086492Y0033D01*
X0040492Y0064D02*
X0041Y0064508D01*
X0041508Y0064D01*
X0041Y0063492D01*
X0040492Y0064D01*
X0111492Y0078D02*
X0112Y0078508D01*
X0112508Y0078D01*
X0112Y0077492D01*
X0111492Y0078D01*
X0116492D02*
X0117Y0078508D01*
X0117508Y0078D01*
X0117Y0077492D01*
X0116492Y0078D01*
D54*
X0074968Y0083D02*
G03*
X0074968Y0083I-0000508J0D01*
G01*
X0077508D02*
G03*
X0077508Y0083I-0000508J0D01*
G01*
X0125508Y008D02*
G03*
X0125508Y008I-0000508J0D01*
G01*
X0128008Y0075D02*
G03*
X0128008Y0075I-0000508J0D01*
G01*
X0125508Y007D02*
G03*
X0125508Y007I-0000508J0D01*
G01*
Y006D02*
G03*
X0125508Y006I-0000508J0D01*
G01*
X0123008Y0085D02*
G03*
X0123008Y0085I-0000508J0D01*
G01*
Y0075D02*
G03*
X0123008Y0075I-0000508J0D01*
G01*
Y0065D02*
G03*
X0123008Y0065I-0000508J0D01*
G01*
Y0055D02*
G03*
X0123008Y0055I-0000508J0D01*
G01*
X0120508Y002D02*
G03*
X0120508Y002I-0000508J0D01*
G01*
Y001D02*
G03*
X0120508Y001I-0000508J0D01*
G01*
X0118008Y0085D02*
G03*
X0118008Y0085I-0000508J0D01*
G01*
X0115508Y008D02*
G03*
X0115508Y008I-0000508J0D01*
G01*
Y007D02*
G03*
X0115508Y007I-0000508J0D01*
G01*
Y005D02*
G03*
X0115508Y005I-0000508J0D01*
G01*
Y004D02*
G03*
X0115508Y004I-0000508J0D01*
G01*
Y003D02*
G03*
X0115508Y003I-0000508J0D01*
G01*
X0118008Y0015D02*
G03*
X0118008Y0015I-0000508J0D01*
G01*
X0115508Y001D02*
G03*
X0115508Y001I-0000508J0D01*
G01*
X0113008Y0075D02*
G03*
X0113008Y0075I-0000508J0D01*
G01*
X0110508Y007D02*
G03*
X0110508Y007I-0000508J0D01*
G01*
X0113008Y0065D02*
G03*
X0113008Y0065I-0000508J0D01*
G01*
Y0055D02*
G03*
X0113008Y0055I-0000508J0D01*
G01*
X0110508Y005D02*
G03*
X0110508Y005I-0000508J0D01*
G01*
X0113008Y0035D02*
G03*
X0113008Y0035I-0000508J0D01*
G01*
X0110508Y003D02*
G03*
X0110508Y003I-0000508J0D01*
G01*
X0113008Y0025D02*
G03*
X0113008Y0025I-0000508J0D01*
G01*
X0110508Y002D02*
G03*
X0110508Y002I-0000508J0D01*
G01*
X0113008Y0015D02*
G03*
X0113008Y0015I-0000508J0D01*
G01*
X0110508Y001D02*
G03*
X0110508Y001I-0000508J0D01*
G01*
X0108008Y0065D02*
G03*
X0108008Y0065I-0000508J0D01*
G01*
X0105508Y006D02*
G03*
X0105508Y006I-0000508J0D01*
G01*
X0108008Y0055D02*
G03*
X0108008Y0055I-0000508J0D01*
G01*
X0105508Y005D02*
G03*
X0105508Y005I-0000508J0D01*
G01*
X0108008Y0045D02*
G03*
X0108008Y0045I-0000508J0D01*
G01*
X0105508Y004D02*
G03*
X0105508Y004I-0000508J0D01*
G01*
Y003D02*
G03*
X0105508Y003I-0000508J0D01*
G01*
Y002D02*
G03*
X0105508Y002I-0000508J0D01*
G01*
Y001D02*
G03*
X0105508Y001I-0000508J0D01*
G01*
X0103008Y0075D02*
G03*
X0103008Y0075I-0000508J0D01*
G01*
Y0065D02*
G03*
X0103008Y0065I-0000508J0D01*
G01*
X0100508Y006D02*
G03*
X0100508Y006I-0000508J0D01*
G01*
X0103008Y0055D02*
G03*
X0103008Y0055I-0000508J0D01*
G01*
X0100508Y005D02*
G03*
X0100508Y005I-0000508J0D01*
G01*
X0103008Y0045D02*
G03*
X0103008Y0045I-0000508J0D01*
G01*
X0100508Y004D02*
G03*
X0100508Y004I-0000508J0D01*
G01*
Y003D02*
G03*
X0100508Y003I-0000508J0D01*
G01*
Y002D02*
G03*
X0100508Y002I-0000508J0D01*
G01*
Y001D02*
G03*
X0100508Y001I-0000508J0D01*
G01*
X0098008Y0085D02*
G03*
X0098008Y0085I-0000508J0D01*
G01*
Y0075D02*
G03*
X0098008Y0075I-0000508J0D01*
G01*
Y0065D02*
G03*
X0098008Y0065I-0000508J0D01*
G01*
Y0055D02*
G03*
X0098008Y0055I-0000508J0D01*
G01*
Y0045D02*
G03*
X0098008Y0045I-0000508J0D01*
G01*
Y0025D02*
G03*
X0098008Y0025I-0000508J0D01*
G01*
X0095508Y002D02*
G03*
X0095508Y002I-0000508J0D01*
G01*
X0098008Y0015D02*
G03*
X0098008Y0015I-0000508J0D01*
G01*
X0095508Y001D02*
G03*
X0095508Y001I-0000508J0D01*
G01*
X0090508D02*
G03*
X0090508Y001I-0000508J0D01*
G01*
X0085508Y006D02*
G03*
X0085508Y006I-0000508J0D01*
G01*
Y004D02*
G03*
X0085508Y004I-0000508J0D01*
G01*
X0088008Y0025D02*
G03*
X0088008Y0025I-0000508J0D01*
G01*
Y0015D02*
G03*
X0088008Y0015I-0000508J0D01*
G01*
X0085508Y001D02*
G03*
X0085508Y001I-0000508J0D01*
G01*
X0083008Y0085D02*
G03*
X0083008Y0085I-0000508J0D01*
G01*
X0080508Y008D02*
G03*
X0080508Y008I-0000508J0D01*
G01*
X0083008Y0075D02*
G03*
X0083008Y0075I-0000508J0D01*
G01*
Y0065D02*
G03*
X0083008Y0065I-0000508J0D01*
G01*
X0080508Y006D02*
G03*
X0080508Y006I-0000508J0D01*
G01*
X0083008Y0055D02*
G03*
X0083008Y0055I-0000508J0D01*
G01*
X0080508Y005D02*
G03*
X0080508Y005I-0000508J0D01*
G01*
X0083008Y0045D02*
G03*
X0083008Y0045I-0000508J0D01*
G01*
X0080508Y004D02*
G03*
X0080508Y004I-0000508J0D01*
G01*
X0083008Y0025D02*
G03*
X0083008Y0025I-0000508J0D01*
G01*
Y0015D02*
G03*
X0083008Y0015I-0000508J0D01*
G01*
X0078008Y0085D02*
G03*
X0078008Y0085I-0000508J0D01*
G01*
X0075508Y008D02*
G03*
X0075508Y008I-0000508J0D01*
G01*
X0078008Y0055D02*
G03*
X0078008Y0055I-0000508J0D01*
G01*
Y0045D02*
G03*
X0078008Y0045I-0000508J0D01*
G01*
X0075508Y004D02*
G03*
X0075508Y004I-0000508J0D01*
G01*
X0078008Y0025D02*
G03*
X0078008Y0025I-0000508J0D01*
G01*
X0075508Y002D02*
G03*
X0075508Y002I-0000508J0D01*
G01*
X0078008Y0015D02*
G03*
X0078008Y0015I-0000508J0D01*
G01*
X0073008Y0085D02*
G03*
X0073008Y0085I-0000508J0D01*
G01*
Y0065D02*
G03*
X0073008Y0065I-0000508J0D01*
G01*
Y0025D02*
G03*
X0073008Y0025I-0000508J0D01*
G01*
X0070508Y002D02*
G03*
X0070508Y002I-0000508J0D01*
G01*
X0073008Y0015D02*
G03*
X0073008Y0015I-0000508J0D01*
G01*
X0070508Y001D02*
G03*
X0070508Y001I-0000508J0D01*
G01*
X0068008Y0085D02*
G03*
X0068008Y0085I-0000508J0D01*
G01*
X0065508Y008D02*
G03*
X0065508Y008I-0000508J0D01*
G01*
X0068008Y0075D02*
G03*
X0068008Y0075I-0000508J0D01*
G01*
X0065508Y007D02*
G03*
X0065508Y007I-0000508J0D01*
G01*
X0068008Y0065D02*
G03*
X0068008Y0065I-0000508J0D01*
G01*
Y0015D02*
G03*
X0068008Y0015I-0000508J0D01*
G01*
X0065508Y001D02*
G03*
X0065508Y001I-0000508J0D01*
G01*
X0063008Y0085D02*
G03*
X0063008Y0085I-0000508J0D01*
G01*
X0060508Y008D02*
G03*
X0060508Y008I-0000508J0D01*
G01*
X0063008Y0075D02*
G03*
X0063008Y0075I-0000508J0D01*
G01*
X0060508Y007D02*
G03*
X0060508Y007I-0000508J0D01*
G01*
X0063008Y0065D02*
G03*
X0063008Y0065I-0000508J0D01*
G01*
X0060508Y006D02*
G03*
X0060508Y006I-0000508J0D01*
G01*
X0063008Y0055D02*
G03*
X0063008Y0055I-0000508J0D01*
G01*
Y0045D02*
G03*
X0063008Y0045I-0000508J0D01*
G01*
X0060508Y004D02*
G03*
X0060508Y004I-0000508J0D01*
G01*
Y003D02*
G03*
X0060508Y003I-0000508J0D01*
G01*
X0063008Y0025D02*
G03*
X0063008Y0025I-0000508J0D01*
G01*
Y0015D02*
G03*
X0063008Y0015I-0000508J0D01*
G01*
X0060508Y001D02*
G03*
X0060508Y001I-0000508J0D01*
G01*
X0055508Y008D02*
G03*
X0055508Y008I-0000508J0D01*
G01*
X0058008Y0075D02*
G03*
X0058008Y0075I-0000508J0D01*
G01*
X0055508Y007D02*
G03*
X0055508Y007I-0000508J0D01*
G01*
Y006D02*
G03*
X0055508Y006I-0000508J0D01*
G01*
X0058008Y0055D02*
G03*
X0058008Y0055I-0000508J0D01*
G01*
X0055508Y005D02*
G03*
X0055508Y005I-0000508J0D01*
G01*
X0058008Y0035D02*
G03*
X0058008Y0035I-0000508J0D01*
G01*
Y0025D02*
G03*
X0058008Y0025I-0000508J0D01*
G01*
Y0015D02*
G03*
X0058008Y0015I-0000508J0D01*
G01*
X0055508Y001D02*
G03*
X0055508Y001I-0000508J0D01*
G01*
X0053008Y0085D02*
G03*
X0053008Y0085I-0000508J0D01*
G01*
Y0075D02*
G03*
X0053008Y0075I-0000508J0D01*
G01*
X0050508Y007D02*
G03*
X0050508Y007I-0000508J0D01*
G01*
Y006D02*
G03*
X0050508Y006I-0000508J0D01*
G01*
X0053008Y0055D02*
G03*
X0053008Y0055I-0000508J0D01*
G01*
X0050508Y005D02*
G03*
X0050508Y005I-0000508J0D01*
G01*
Y004D02*
G03*
X0050508Y004I-0000508J0D01*
G01*
X0053008Y0035D02*
G03*
X0053008Y0035I-0000508J0D01*
G01*
X0050508Y003D02*
G03*
X0050508Y003I-0000508J0D01*
G01*
X0053008Y0025D02*
G03*
X0053008Y0025I-0000508J0D01*
G01*
Y0015D02*
G03*
X0053008Y0015I-0000508J0D01*
G01*
X0050508Y001D02*
G03*
X0050508Y001I-0000508J0D01*
G01*
X0048008Y0085D02*
G03*
X0048008Y0085I-0000508J0D01*
G01*
X0045508Y008D02*
G03*
X0045508Y008I-0000508J0D01*
G01*
Y007D02*
G03*
X0045508Y007I-0000508J0D01*
G01*
Y006D02*
G03*
X0045508Y006I-0000508J0D01*
G01*
X0048008Y0055D02*
G03*
X0048008Y0055I-0000508J0D01*
G01*
Y0045D02*
G03*
X0048008Y0045I-0000508J0D01*
G01*
Y0035D02*
G03*
X0048008Y0035I-0000508J0D01*
G01*
X0045508Y003D02*
G03*
X0045508Y003I-0000508J0D01*
G01*
X0048008Y0025D02*
G03*
X0048008Y0025I-0000508J0D01*
G01*
Y0015D02*
G03*
X0048008Y0015I-0000508J0D01*
G01*
X0045508Y001D02*
G03*
X0045508Y001I-0000508J0D01*
G01*
X0040508Y008D02*
G03*
X0040508Y008I-0000508J0D01*
G01*
X0043008Y0075D02*
G03*
X0043008Y0075I-0000508J0D01*
G01*
Y0025D02*
G03*
X0043008Y0025I-0000508J0D01*
G01*
Y0015D02*
G03*
X0043008Y0015I-0000508J0D01*
G01*
X0038008Y0085D02*
G03*
X0038008Y0085I-0000508J0D01*
G01*
X0035508Y008D02*
G03*
X0035508Y008I-0000508J0D01*
G01*
X0038008Y0075D02*
G03*
X0038008Y0075I-0000508J0D01*
G01*
X0035508Y007D02*
G03*
X0035508Y007I-0000508J0D01*
G01*
X0038008Y0045D02*
G03*
X0038008Y0045I-0000508J0D01*
G01*
X0035508Y002D02*
G03*
X0035508Y002I-0000508J0D01*
G01*
D55*
X01253048Y008D02*
G03*
X01253048Y008I-00003048J0D01*
G01*
X01278048Y0075D02*
G03*
X01278048Y0075I-00003048J0D01*
G01*
X01253048Y007D02*
G03*
X01253048Y007I-00003048J0D01*
G01*
Y006D02*
G03*
X01253048Y006I-00003048J0D01*
G01*
X01228048Y0085D02*
G03*
X01228048Y0085I-00003048J0D01*
G01*
Y0075D02*
G03*
X01228048Y0075I-00003048J0D01*
G01*
Y0065D02*
G03*
X01228048Y0065I-00003048J0D01*
G01*
Y0055D02*
G03*
X01228048Y0055I-00003048J0D01*
G01*
X01203048Y002D02*
G03*
X01203048Y002I-00003048J0D01*
G01*
Y001D02*
G03*
X01203048Y001I-00003048J0D01*
G01*
X01178048Y0085D02*
G03*
X01178048Y0085I-00003048J0D01*
G01*
X01153048Y008D02*
G03*
X01153048Y008I-00003048J0D01*
G01*
Y007D02*
G03*
X01153048Y007I-00003048J0D01*
G01*
Y005D02*
G03*
X01153048Y005I-00003048J0D01*
G01*
Y004D02*
G03*
X01153048Y004I-00003048J0D01*
G01*
Y003D02*
G03*
X01153048Y003I-00003048J0D01*
G01*
X01178048Y0015D02*
G03*
X01178048Y0015I-00003048J0D01*
G01*
X01153048Y001D02*
G03*
X01153048Y001I-00003048J0D01*
G01*
X01128048Y0075D02*
G03*
X01128048Y0075I-00003048J0D01*
G01*
X01103048Y007D02*
G03*
X01103048Y007I-00003048J0D01*
G01*
X01128048Y0065D02*
G03*
X01128048Y0065I-00003048J0D01*
G01*
Y0055D02*
G03*
X01128048Y0055I-00003048J0D01*
G01*
X01103048Y005D02*
G03*
X01103048Y005I-00003048J0D01*
G01*
X01128048Y0035D02*
G03*
X01128048Y0035I-00003048J0D01*
G01*
X01103048Y003D02*
G03*
X01103048Y003I-00003048J0D01*
G01*
X01128048Y0025D02*
G03*
X01128048Y0025I-00003048J0D01*
G01*
X01103048Y002D02*
G03*
X01103048Y002I-00003048J0D01*
G01*
X01128048Y0015D02*
G03*
X01128048Y0015I-00003048J0D01*
G01*
X01103048Y001D02*
G03*
X01103048Y001I-00003048J0D01*
G01*
X01078048Y0065D02*
G03*
X01078048Y0065I-00003048J0D01*
G01*
X01053048Y006D02*
G03*
X01053048Y006I-00003048J0D01*
G01*
X01078048Y0055D02*
G03*
X01078048Y0055I-00003048J0D01*
G01*
X01053048Y005D02*
G03*
X01053048Y005I-00003048J0D01*
G01*
X01078048Y0045D02*
G03*
X01078048Y0045I-00003048J0D01*
G01*
X01053048Y004D02*
G03*
X01053048Y004I-00003048J0D01*
G01*
Y003D02*
G03*
X01053048Y003I-00003048J0D01*
G01*
Y002D02*
G03*
X01053048Y002I-00003048J0D01*
G01*
Y001D02*
G03*
X01053048Y001I-00003048J0D01*
G01*
X01028048Y0075D02*
G03*
X01028048Y0075I-00003048J0D01*
G01*
Y0065D02*
G03*
X01028048Y0065I-00003048J0D01*
G01*
X01003048Y006D02*
G03*
X01003048Y006I-00003048J0D01*
G01*
X01028048Y0055D02*
G03*
X01028048Y0055I-00003048J0D01*
G01*
X01003048Y005D02*
G03*
X01003048Y005I-00003048J0D01*
G01*
X01028048Y0045D02*
G03*
X01028048Y0045I-00003048J0D01*
G01*
X01003048Y004D02*
G03*
X01003048Y004I-00003048J0D01*
G01*
Y003D02*
G03*
X01003048Y003I-00003048J0D01*
G01*
Y002D02*
G03*
X01003048Y002I-00003048J0D01*
G01*
Y001D02*
G03*
X01003048Y001I-00003048J0D01*
G01*
X00978048Y0085D02*
G03*
X00978048Y0085I-00003048J0D01*
G01*
Y0075D02*
G03*
X00978048Y0075I-00003048J0D01*
G01*
Y0065D02*
G03*
X00978048Y0065I-00003048J0D01*
G01*
Y0055D02*
G03*
X00978048Y0055I-00003048J0D01*
G01*
Y0045D02*
G03*
X00978048Y0045I-00003048J0D01*
G01*
Y0025D02*
G03*
X00978048Y0025I-00003048J0D01*
G01*
X00953048Y002D02*
G03*
X00953048Y002I-00003048J0D01*
G01*
X00978048Y0015D02*
G03*
X00978048Y0015I-00003048J0D01*
G01*
X00953048Y001D02*
G03*
X00953048Y001I-00003048J0D01*
G01*
X00903048D02*
G03*
X00903048Y001I-00003048J0D01*
G01*
X00853048Y006D02*
G03*
X00853048Y006I-00003048J0D01*
G01*
Y004D02*
G03*
X00853048Y004I-00003048J0D01*
G01*
X00878048Y0025D02*
G03*
X00878048Y0025I-00003048J0D01*
G01*
Y0015D02*
G03*
X00878048Y0015I-00003048J0D01*
G01*
X00853048Y001D02*
G03*
X00853048Y001I-00003048J0D01*
G01*
X00828048Y0085D02*
G03*
X00828048Y0085I-00003048J0D01*
G01*
X00803048Y008D02*
G03*
X00803048Y008I-00003048J0D01*
G01*
X00828048Y0075D02*
G03*
X00828048Y0075I-00003048J0D01*
G01*
Y0065D02*
G03*
X00828048Y0065I-00003048J0D01*
G01*
X00803048Y006D02*
G03*
X00803048Y006I-00003048J0D01*
G01*
X00828048Y0055D02*
G03*
X00828048Y0055I-00003048J0D01*
G01*
X00803048Y005D02*
G03*
X00803048Y005I-00003048J0D01*
G01*
X00828048Y0045D02*
G03*
X00828048Y0045I-00003048J0D01*
G01*
X00803048Y004D02*
G03*
X00803048Y004I-00003048J0D01*
G01*
X00828048Y0025D02*
G03*
X00828048Y0025I-00003048J0D01*
G01*
Y0015D02*
G03*
X00828048Y0015I-00003048J0D01*
G01*
X00778048Y0085D02*
G03*
X00778048Y0085I-00003048J0D01*
G01*
X00753048Y008D02*
G03*
X00753048Y008I-00003048J0D01*
G01*
X00778048Y0055D02*
G03*
X00778048Y0055I-00003048J0D01*
G01*
Y0045D02*
G03*
X00778048Y0045I-00003048J0D01*
G01*
X00753048Y004D02*
G03*
X00753048Y004I-00003048J0D01*
G01*
X00778048Y0025D02*
G03*
X00778048Y0025I-00003048J0D01*
G01*
X00753048Y002D02*
G03*
X00753048Y002I-00003048J0D01*
G01*
X00778048Y0015D02*
G03*
X00778048Y0015I-00003048J0D01*
G01*
X00728048Y0085D02*
G03*
X00728048Y0085I-00003048J0D01*
G01*
Y0065D02*
G03*
X00728048Y0065I-00003048J0D01*
G01*
Y0025D02*
G03*
X00728048Y0025I-00003048J0D01*
G01*
X00703048Y002D02*
G03*
X00703048Y002I-00003048J0D01*
G01*
X00728048Y0015D02*
G03*
X00728048Y0015I-00003048J0D01*
G01*
X00703048Y001D02*
G03*
X00703048Y001I-00003048J0D01*
G01*
X00678048Y0085D02*
G03*
X00678048Y0085I-00003048J0D01*
G01*
X00653048Y008D02*
G03*
X00653048Y008I-00003048J0D01*
G01*
X00678048Y0075D02*
G03*
X00678048Y0075I-00003048J0D01*
G01*
X00653048Y007D02*
G03*
X00653048Y007I-00003048J0D01*
G01*
X00678048Y0065D02*
G03*
X00678048Y0065I-00003048J0D01*
G01*
Y0015D02*
G03*
X00678048Y0015I-00003048J0D01*
G01*
X00653048Y001D02*
G03*
X00653048Y001I-00003048J0D01*
G01*
X00628048Y0085D02*
G03*
X00628048Y0085I-00003048J0D01*
G01*
X00603048Y008D02*
G03*
X00603048Y008I-00003048J0D01*
G01*
X00628048Y0075D02*
G03*
X00628048Y0075I-00003048J0D01*
G01*
X00603048Y007D02*
G03*
X00603048Y007I-00003048J0D01*
G01*
X00628048Y0065D02*
G03*
X00628048Y0065I-00003048J0D01*
G01*
X00603048Y006D02*
G03*
X00603048Y006I-00003048J0D01*
G01*
X00628048Y0055D02*
G03*
X00628048Y0055I-00003048J0D01*
G01*
Y0045D02*
G03*
X00628048Y0045I-00003048J0D01*
G01*
X00603048Y004D02*
G03*
X00603048Y004I-00003048J0D01*
G01*
Y003D02*
G03*
X00603048Y003I-00003048J0D01*
G01*
X00628048Y0025D02*
G03*
X00628048Y0025I-00003048J0D01*
G01*
Y0015D02*
G03*
X00628048Y0015I-00003048J0D01*
G01*
X00603048Y001D02*
G03*
X00603048Y001I-00003048J0D01*
G01*
X00553048Y008D02*
G03*
X00553048Y008I-00003048J0D01*
G01*
X00578048Y0075D02*
G03*
X00578048Y0075I-00003048J0D01*
G01*
X00553048Y007D02*
G03*
X00553048Y007I-00003048J0D01*
G01*
Y006D02*
G03*
X00553048Y006I-00003048J0D01*
G01*
X00578048Y0055D02*
G03*
X00578048Y0055I-00003048J0D01*
G01*
X00553048Y005D02*
G03*
X00553048Y005I-00003048J0D01*
G01*
X00578048Y0035D02*
G03*
X00578048Y0035I-00003048J0D01*
G01*
Y0025D02*
G03*
X00578048Y0025I-00003048J0D01*
G01*
Y0015D02*
G03*
X00578048Y0015I-00003048J0D01*
G01*
X00553048Y001D02*
G03*
X00553048Y001I-00003048J0D01*
G01*
X00528048Y0085D02*
G03*
X00528048Y0085I-00003048J0D01*
G01*
Y0075D02*
G03*
X00528048Y0075I-00003048J0D01*
G01*
X00503048Y007D02*
G03*
X00503048Y007I-00003048J0D01*
G01*
Y006D02*
G03*
X00503048Y006I-00003048J0D01*
G01*
X00528048Y0055D02*
G03*
X00528048Y0055I-00003048J0D01*
G01*
X00503048Y005D02*
G03*
X00503048Y005I-00003048J0D01*
G01*
Y004D02*
G03*
X00503048Y004I-00003048J0D01*
G01*
X00528048Y0035D02*
G03*
X00528048Y0035I-00003048J0D01*
G01*
X00503048Y003D02*
G03*
X00503048Y003I-00003048J0D01*
G01*
X00528048Y0025D02*
G03*
X00528048Y0025I-00003048J0D01*
G01*
Y0015D02*
G03*
X00528048Y0015I-00003048J0D01*
G01*
X00503048Y001D02*
G03*
X00503048Y001I-00003048J0D01*
G01*
X00478048Y0085D02*
G03*
X00478048Y0085I-00003048J0D01*
G01*
X00453048Y008D02*
G03*
X00453048Y008I-00003048J0D01*
G01*
Y007D02*
G03*
X00453048Y007I-00003048J0D01*
G01*
Y006D02*
G03*
X00453048Y006I-00003048J0D01*
G01*
X00478048Y0055D02*
G03*
X00478048Y0055I-00003048J0D01*
G01*
Y0045D02*
G03*
X00478048Y0045I-00003048J0D01*
G01*
Y0035D02*
G03*
X00478048Y0035I-00003048J0D01*
G01*
X00453048Y003D02*
G03*
X00453048Y003I-00003048J0D01*
G01*
X00478048Y0025D02*
G03*
X00478048Y0025I-00003048J0D01*
G01*
Y0015D02*
G03*
X00478048Y0015I-00003048J0D01*
G01*
X00453048Y001D02*
G03*
X00453048Y001I-00003048J0D01*
G01*
X00403048Y008D02*
G03*
X00403048Y008I-00003048J0D01*
G01*
X00428048Y0075D02*
G03*
X00428048Y0075I-00003048J0D01*
G01*
Y0025D02*
G03*
X00428048Y0025I-00003048J0D01*
G01*
Y0015D02*
G03*
X00428048Y0015I-00003048J0D01*
G01*
X00378048Y0085D02*
G03*
X00378048Y0085I-00003048J0D01*
G01*
X00353048Y008D02*
G03*
X00353048Y008I-00003048J0D01*
G01*
X00378048Y0075D02*
G03*
X00378048Y0075I-00003048J0D01*
G01*
X00353048Y007D02*
G03*
X00353048Y007I-00003048J0D01*
G01*
X00378048Y0045D02*
G03*
X00378048Y0045I-00003048J0D01*
G01*
X00353048Y002D02*
G03*
X00353048Y002I-00003048J0D01*
G01*
M02*
