G04*
G04 #@! TF.GenerationSoftware,Altium Limited,Altium Designer,24.1.2 (44)*
G04*
G04 Layer_Color=16711935*
%FSTAX44Y44*%
%MOMM*%
G71*
G04*
G04 #@! TF.SameCoordinates,3538205F-3925-4055-AE4A-FF41BFCD8782*
G04*
G04*
G04 #@! TF.FilePolarity,Negative*
G04*
G01*
G75*
%ADD15C,2.7032*%
%ADD16C,1.2032*%
%ADD17C,1.7032*%
%ADD18R,1.6112X1.6112*%
%ADD19C,1.6112*%
%ADD20C,1.4732*%
%ADD30R,1.9032X1.9032*%
D15*
X00569Y0033D02*
D03*
X00531D02*
D03*
X00309D02*
D03*
X00271D02*
D03*
X00959D02*
D03*
X00921D02*
D03*
X00699D02*
D03*
X00661D02*
D03*
X00829D02*
D03*
X00791D02*
D03*
X00439D02*
D03*
X00401D02*
D03*
X00141D02*
D03*
X00179D02*
D03*
D16*
X005255Y002835D02*
D03*
X002655D02*
D03*
X009155D02*
D03*
X006555D02*
D03*
X007855D02*
D03*
X003955D02*
D03*
X001355D02*
D03*
D17*
X005373Y003575D02*
D03*
X005627D02*
D03*
X005373Y003025D02*
D03*
X005627D02*
D03*
X002773Y003575D02*
D03*
X003027D02*
D03*
X002773Y003025D02*
D03*
X003027D02*
D03*
X009273Y003575D02*
D03*
X009527D02*
D03*
X009273Y003025D02*
D03*
X009527D02*
D03*
X006673Y003575D02*
D03*
X006927D02*
D03*
X006673Y003025D02*
D03*
X006927D02*
D03*
X007973Y003575D02*
D03*
X008227D02*
D03*
X007973Y003025D02*
D03*
X008227D02*
D03*
X004073Y003575D02*
D03*
X004327D02*
D03*
X004073Y003025D02*
D03*
X004327D02*
D03*
X001727D02*
D03*
X001473D02*
D03*
X001727Y003575D02*
D03*
X001473D02*
D03*
D18*
X0045Y0007D02*
D03*
D19*
X00475D02*
D03*
X005D02*
D03*
X00525D02*
D03*
X0055D02*
D03*
X00575D02*
D03*
X006D02*
D03*
X00625D02*
D03*
X0065D02*
D03*
D20*
X0044Y002D02*
D03*
X0031D02*
D03*
X0018D02*
D03*
X0083D02*
D03*
X0096D02*
D03*
X007D02*
D03*
X0057D02*
D03*
D30*
X00999966Y00226956D02*
D03*
Y00193956D02*
D03*
X00869966Y00226956D02*
D03*
Y00193956D02*
D03*
X0035Y002265D02*
D03*
Y001935D02*
D03*
X00739966Y00226956D02*
D03*
Y00193956D02*
D03*
X00609966Y00226956D02*
D03*
Y00193956D02*
D03*
X00479966Y00226956D02*
D03*
Y00193956D02*
D03*
X00219966Y00226956D02*
D03*
Y00193956D02*
D03*
M02*
