G04*
G04 #@! TF.GenerationSoftware,Altium Limited,Altium Designer,24.1.2 (44)*
G04*
G04 Layer_Color=16711935*
%FSTAX44Y44*%
%MOMM*%
G71*
G04*
G04 #@! TF.SameCoordinates,3538205F-3925-4055-AE4A-FF41BFCD8782*
G04*
G04*
G04 #@! TF.FilePolarity,Positive*
G04*
G01*
G75*
%ADD10C,0.2000*%
%ADD11C,0.1270*%
D10*
X00451Y00096D02*
G03*
X00451Y00096I-00001J0D01*
G01*
D11*
X00564Y003815D02*
X005795Y00366D01*
X005205D02*
X00536Y003815D01*
X00564D01*
X005795Y002785D02*
Y00366D01*
X005205Y002785D02*
Y00366D01*
Y002785D02*
X005795D01*
X00304Y003815D02*
X003195Y00366D01*
X002605D02*
X00276Y003815D01*
X00304D01*
X003195Y002785D02*
Y00366D01*
X002605Y002785D02*
Y00366D01*
Y002785D02*
X003195D01*
X00425Y00048D02*
Y00086D01*
X00675D01*
Y00048D02*
Y00086D01*
X00425Y00048D02*
X00675D01*
X00954Y003815D02*
X009695Y00366D01*
X009105D02*
X00926Y003815D01*
X00954D01*
X009695Y002785D02*
Y00366D01*
X009105Y002785D02*
Y00366D01*
Y002785D02*
X009695D01*
X00694Y003815D02*
X007095Y00366D01*
X006505D02*
X00666Y003815D01*
X00694D01*
X007095Y002785D02*
Y00366D01*
X006505Y002785D02*
Y00366D01*
Y002785D02*
X007095D01*
X00824Y003815D02*
X008395Y00366D01*
X007805D02*
X00796Y003815D01*
X00824D01*
X008395Y002785D02*
Y00366D01*
X007805Y002785D02*
Y00366D01*
Y002785D02*
X008395D01*
X00434Y003815D02*
X004495Y00366D01*
X003905D02*
X00406Y003815D01*
X00434D01*
X004495Y002785D02*
Y00366D01*
X003905Y002785D02*
Y00366D01*
Y002785D02*
X004495D01*
X001305D02*
X001895D01*
X001305D02*
Y00366D01*
X001895Y002785D02*
Y00366D01*
X00146Y003815D02*
X00174D01*
X001305Y00366D02*
X00146Y003815D01*
X00174D02*
X001895Y00366D01*
M02*
