M48
;Layer_Color=9474304
;FILE_FORMAT=4:4
METRIC,LZ
;TYPE=PLATED
T01F00S00C0.7112
T02F00S00C0.9000
T03F00S00C1.0000
;TYPE=NON_PLATED
T04F00S00C1.0000
T05F00S00C2.5000
%
T01
X0122766Y00779
X0109766
X0096766
X0083766
X0070766
X0057766
X0044766
T02
X0081766Y00649
X0084266
X0086766
X0089266
X0091766
X0079266
X0076766
X0074266
X0071766
T03
X0041496Y008815
X0044036
Y009365
X0041496
X0054496
X0057036
Y008815
X0054496
X0067496
X0070036
Y009365
X0067496
X0080496
X0083036
Y008815
X0080496
X0093496
X0096036
Y009365
X0093496
X0106496
X0109036
Y008815
X0106496
X0119496
X0122036
Y009365
X0119496
T04
X0040316Y008625
X0053316
X0066316
X0079316
X0092316
X0105316
X0118316
T05
X0040866Y00909
X0044666
X0053866
X0057666
X0066866
X0070666
X0079866
X0083666
X0092866
X0096666
X0105866
X0109666
X0118866
X0122666
M30
