G04*
G04 #@! TF.GenerationSoftware,Altium Limited,Altium Designer,24.1.2 (44)*
G04*
G04 Layer_Color=65535*
%FSTAX44Y44*%
%MOMM*%
G71*
G04*
G04 #@! TF.SameCoordinates,3538205F-3925-4055-AE4A-FF41BFCD8782*
G04*
G04*
G04 #@! TF.FilePolarity,Positive*
G04*
G01*
G75*
%ADD10C,0.2000*%
%ADD11C,0.1270*%
%ADD12C,0.2540*%
D10*
X00451Y00096D02*
G03*
X00451Y00096I-00001J0D01*
G01*
X00785616Y00210094D02*
Y00222032D01*
Y00210094D02*
X00834384D01*
Y00229906D01*
X00806444Y00226604D02*
X00813556D01*
X00806444Y00213142D02*
X00813556D01*
X00785616Y00229906D02*
X00834384D01*
X00785616Y00222032D02*
Y00229906D01*
Y00160094D02*
Y00172032D01*
Y00160094D02*
X00834384D01*
Y00179906D01*
X00806444Y00176604D02*
X00813556D01*
X00806444Y00163142D02*
X00813556D01*
X00785616Y00179906D02*
X00834384D01*
X00785616Y00172032D02*
Y00179906D01*
X00135616Y00210094D02*
Y00222032D01*
Y00210094D02*
X00184384D01*
Y00229906D01*
X00156444Y00226604D02*
X00163556D01*
X00156444Y00213142D02*
X00163556D01*
X00135616Y00229906D02*
X00184384D01*
X00135616Y00222032D02*
Y00229906D01*
X00270616Y00160094D02*
Y00172032D01*
Y00160094D02*
X00319384D01*
Y00179906D01*
X00291444Y00176604D02*
X00298556D01*
X00291444Y00163142D02*
X00298556D01*
X00270616Y00179906D02*
X00319384D01*
X00270616Y00172032D02*
Y00179906D01*
Y00210094D02*
Y00222032D01*
Y00210094D02*
X00319384D01*
Y00229906D01*
X00291444Y00226604D02*
X00298556D01*
X00291444Y00213142D02*
X00298556D01*
X00270616Y00229906D02*
X00319384D01*
X00270616Y00222032D02*
Y00229906D01*
X00915616Y00210094D02*
Y00222032D01*
Y00210094D02*
X00964384D01*
Y00229906D01*
X00936444Y00226604D02*
X00943556D01*
X00936444Y00213142D02*
X00943556D01*
X00915616Y00229906D02*
X00964384D01*
X00915616Y00222032D02*
Y00229906D01*
Y00160094D02*
Y00172032D01*
Y00160094D02*
X00964384D01*
Y00179906D01*
X00936444Y00176604D02*
X00943556D01*
X00936444Y00163142D02*
X00943556D01*
X00915616Y00179906D02*
X00964384D01*
X00915616Y00172032D02*
Y00179906D01*
X00655616Y00210094D02*
Y00222032D01*
Y00210094D02*
X00704384D01*
Y00229906D01*
X00676444Y00226604D02*
X00683556D01*
X00676444Y00213142D02*
X00683556D01*
X00655616Y00229906D02*
X00704384D01*
X00655616Y00222032D02*
Y00229906D01*
X00655616Y00160094D02*
Y00172032D01*
Y00160094D02*
X00704384D01*
Y00179906D01*
X00676444Y00176604D02*
X00683556D01*
X00676444Y00163142D02*
X00683556D01*
X00655616Y00179906D02*
X00704384D01*
X00655616Y00172032D02*
Y00179906D01*
X00525616Y00210094D02*
Y00222032D01*
Y00210094D02*
X00574384D01*
Y00229906D01*
X00546444Y00226604D02*
X00553556D01*
X00546444Y00213142D02*
X00553556D01*
X00525616Y00229906D02*
X00574384D01*
X00525616Y00222032D02*
Y00229906D01*
Y00160094D02*
Y00172032D01*
Y00160094D02*
X00574384D01*
Y00179906D01*
X00546444Y00176604D02*
X00553556D01*
X00546444Y00163142D02*
X00553556D01*
X00525616Y00179906D02*
X00574384D01*
X00525616Y00172032D02*
Y00179906D01*
X00395616Y00210094D02*
Y00222032D01*
Y00210094D02*
X00444384D01*
Y00229906D01*
X00416444Y00226604D02*
X00423556D01*
X00416444Y00213142D02*
X00423556D01*
X00395616Y00229906D02*
X00444384D01*
X00395616Y00222032D02*
Y00229906D01*
Y00160094D02*
Y00172032D01*
Y00160094D02*
X00444384D01*
Y00179906D01*
X00416444Y00176604D02*
X00423556D01*
X00416444Y00163142D02*
X00423556D01*
X00395616Y00179906D02*
X00444384D01*
X00395616Y00172032D02*
Y00179906D01*
X00135616Y00160094D02*
Y00172032D01*
Y00160094D02*
X00184384D01*
Y00179906D01*
X00156444Y00176604D02*
X00163556D01*
X00156444Y00163142D02*
X00163556D01*
X00135616Y00179906D02*
X00184384D01*
X00135616Y00172032D02*
Y00179906D01*
D11*
X00425Y00048D02*
Y00086D01*
X00675D01*
Y00048D02*
Y00086D01*
X00425Y00048D02*
X00675D01*
D12*
X00907504Y00235002D02*
Y00244998D01*
X00912502D01*
X00914168Y00243332D01*
Y0024D01*
X00912502Y00238334D01*
X00907504D01*
X00910836D02*
X00914168Y00235002D01*
X00917501D02*
X00920833D01*
X00919167D01*
Y00244998D01*
X00917501Y00243332D01*
X0093083Y00235002D02*
Y00244998D01*
X00925831Y0024D01*
X00932496D01*
X00947504Y00145002D02*
Y00154998D01*
X00952502D01*
X00954169Y00153332D01*
Y0015D01*
X00952502Y00148334D01*
X00947504D01*
X00950836D02*
X00954169Y00145002D01*
X00957501D02*
X00960833D01*
X00959167D01*
Y00154998D01*
X00957501Y00153332D01*
X00965832D02*
X00967498Y00154998D01*
X0097083D01*
X00972496Y00153332D01*
Y00151666D01*
X0097083Y0015D01*
X00969164D01*
X0097083D01*
X00972496Y00148334D01*
Y00146668D01*
X0097083Y00145002D01*
X00967498D01*
X00965832Y00146668D01*
X00777504Y00235002D02*
Y00244998D01*
X00782502D01*
X00784168Y00243332D01*
Y0024D01*
X00782502Y00238334D01*
X00777504D01*
X00780836D02*
X00784168Y00235002D01*
X00787501D02*
X00790833D01*
X00789167D01*
Y00244998D01*
X00787501Y00243332D01*
X00802496Y00235002D02*
X00795832D01*
X00802496Y00241666D01*
Y00243332D01*
X0080083Y00244998D01*
X00797498D01*
X00795832Y00243332D01*
X0081917Y00145002D02*
Y00154998D01*
X00824169D01*
X00825835Y00153332D01*
Y0015D01*
X00824169Y00148334D01*
X0081917D01*
X00822502D02*
X00825835Y00145002D01*
X00829167D02*
X00832499D01*
X00830833D01*
Y00154998D01*
X00829167Y00153332D01*
X00837498Y00145002D02*
X0084083D01*
X00839164D01*
Y00154998D01*
X00837498Y00153332D01*
X00647504Y00235002D02*
Y00244998D01*
X00652502D01*
X00654168Y00243332D01*
Y0024D01*
X00652502Y00238334D01*
X00647504D01*
X00650836D02*
X00654168Y00235002D01*
X00657501D02*
X00660833D01*
X00659167D01*
Y00244998D01*
X00657501Y00243332D01*
X00665832D02*
X00667498Y00244998D01*
X0067083D01*
X00672496Y00243332D01*
Y00236668D01*
X0067083Y00235002D01*
X00667498D01*
X00665832Y00236668D01*
Y00243332D01*
X00632125Y0016561D02*
Y00175606D01*
X00637124D01*
X0063879Y0017394D01*
Y00170608D01*
X00637124Y00168942D01*
X00632125D01*
X00635458D02*
X0063879Y0016561D01*
X00642122Y00167276D02*
X00643788Y0016561D01*
X00647121D01*
X00648787Y00167276D01*
Y0017394D01*
X00647121Y00175606D01*
X00643788D01*
X00642122Y0017394D01*
Y00172274D01*
X00643788Y00170608D01*
X00648787D01*
X00501125Y0021561D02*
Y00225606D01*
X00506124D01*
X0050779Y0022394D01*
Y00220608D01*
X00506124Y00218942D01*
X00501125D01*
X00504458D02*
X0050779Y0021561D01*
X00511122Y0022394D02*
X00512788Y00225606D01*
X0051612D01*
X00517787Y0022394D01*
Y00222274D01*
X0051612Y00220608D01*
X00517787Y00218942D01*
Y00217276D01*
X0051612Y0021561D01*
X00512788D01*
X00511122Y00217276D01*
Y00218942D01*
X00512788Y00220608D01*
X00511122Y00222274D01*
Y0022394D01*
X00512788Y00220608D02*
X0051612D01*
X00502125Y0016561D02*
Y00175606D01*
X00507124D01*
X0050879Y0017394D01*
Y00170608D01*
X00507124Y00168942D01*
X00502125D01*
X00505458D02*
X0050879Y0016561D01*
X00512122Y00175606D02*
X00518787D01*
Y0017394D01*
X00512122Y00167276D01*
Y0016561D01*
X00372125Y0021561D02*
Y00225606D01*
X00377124D01*
X0037879Y0022394D01*
Y00220608D01*
X00377124Y00218942D01*
X00372125D01*
X00375458D02*
X0037879Y0021561D01*
X00388787Y00225606D02*
X00385454Y0022394D01*
X00382122Y00220608D01*
Y00217276D01*
X00383788Y0021561D01*
X00387121D01*
X00388787Y00217276D01*
Y00218942D01*
X00387121Y00220608D01*
X00382122D01*
X00372125Y0016561D02*
Y00175606D01*
X00377124D01*
X0037879Y0017394D01*
Y00170608D01*
X00377124Y00168942D01*
X00372125D01*
X00375458D02*
X0037879Y0016561D01*
X00388787Y00175606D02*
X00382122D01*
Y00170608D01*
X00385454Y00172274D01*
X00387121D01*
X00388787Y00170608D01*
Y00167276D01*
X00387121Y0016561D01*
X00383788D01*
X00382122Y00167276D01*
X00247125Y00215609D02*
Y00225606D01*
X00252124D01*
X0025379Y0022394D01*
Y00220608D01*
X00252124Y00218942D01*
X00247125D01*
X00250457D02*
X0025379Y00215609D01*
X0026212D02*
Y00225606D01*
X00257122Y00220608D01*
X00263786D01*
X00247125Y00165609D02*
Y00175606D01*
X00252124D01*
X0025379Y0017394D01*
Y00170608D01*
X00252124Y00168942D01*
X00247125D01*
X00250457D02*
X0025379Y00165609D01*
X00257122Y0017394D02*
X00258788Y00175606D01*
X0026212D01*
X00263786Y0017394D01*
Y00172274D01*
X0026212Y00170608D01*
X00260454D01*
X0026212D01*
X00263786Y00168942D01*
Y00167276D01*
X0026212Y00165609D01*
X00258788D01*
X00257122Y00167276D01*
X00111625Y0021561D02*
Y00225606D01*
X00116624D01*
X0011829Y0022394D01*
Y00220608D01*
X00116624Y00218942D01*
X00111625D01*
X00114958D02*
X0011829Y0021561D01*
X00128287D02*
X00121622D01*
X00128287Y00222274D01*
Y0022394D01*
X00126621Y00225606D01*
X00123288D01*
X00121622Y0022394D01*
X00113292Y0016561D02*
Y00175606D01*
X0011829D01*
X00119956Y0017394D01*
Y00170608D01*
X0011829Y00168942D01*
X00113292D01*
X00116624D02*
X00119956Y0016561D01*
X00123288D02*
X00126621D01*
X00124954D01*
Y00175606D01*
X00123288Y0017394D01*
X0041Y00074998D02*
X00406668D01*
X00408334D01*
Y00066668D01*
X00406668Y00065002D01*
X00405002D01*
X00403335Y00066668D01*
X00413332Y00065002D02*
X00416665D01*
X00414998D01*
Y00074998D01*
X00413332Y00073332D01*
M02*
