G04*
G04 #@! TF.GenerationSoftware,Altium Limited,Altium Designer,24.1.2 (44)*
G04*
G04 Layer_Color=32896*
%FSTAX44Y44*%
%MOMM*%
G71*
G04*
G04 #@! TF.SameCoordinates,3538205F-3925-4055-AE4A-FF41BFCD8782*
G04*
G04*
G04 #@! TF.FilePolarity,Positive*
G04*
G01*
G75*
%ADD10C,0.2000*%
%ADD11C,0.1270*%
%ADD12C,0.2540*%
D10*
X00989806Y00237126D02*
X0099514D01*
X00989806Y00183786D02*
Y00237126D01*
X01007332Y002069D02*
Y00214012D01*
X00992854Y002069D02*
Y00214012D01*
X00989806Y00183786D02*
X01010126D01*
Y00237126D01*
X0099514D02*
X01010126D01*
X00859806D02*
X0086514D01*
X00859806Y00183786D02*
Y00237126D01*
X00877332Y002069D02*
Y00214012D01*
X00862854Y002069D02*
Y00214012D01*
X00859806Y00183786D02*
X00880126D01*
Y00237126D01*
X0086514D02*
X00880126D01*
X0033984Y0023667D02*
X00345174D01*
X0033984Y0018333D02*
Y0023667D01*
X00357366Y00206444D02*
Y00213556D01*
X00342888Y00206444D02*
Y00213556D01*
X0033984Y0018333D02*
X0036016D01*
Y0023667D01*
X00345174D02*
X0036016D01*
X00729806Y00237126D02*
X0073514D01*
X00729806Y00183786D02*
Y00237126D01*
X00747332Y002069D02*
Y00214012D01*
X00732854Y002069D02*
Y00214012D01*
X00729806Y00183786D02*
X00750126D01*
Y00237126D01*
X0073514D02*
X00750126D01*
X00599806D02*
X0060514D01*
X00599806Y00183786D02*
Y00237126D01*
X00617332Y002069D02*
Y00214012D01*
X00602854Y002069D02*
Y00214012D01*
X00599806Y00183786D02*
X00620126D01*
Y00237126D01*
X0060514D02*
X00620126D01*
X00469806D02*
X0047514D01*
X00469806Y00183786D02*
Y00237126D01*
X00487332Y002069D02*
Y00214012D01*
X00472854Y002069D02*
Y00214012D01*
X00469806Y00183786D02*
X00490126D01*
Y00237126D01*
X0047514D02*
X00490126D01*
X00209806D02*
X0021514D01*
X00209806Y00183786D02*
Y00237126D01*
X00227332Y002069D02*
Y00214012D01*
X00212854Y002069D02*
Y00214012D01*
X00209806Y00183786D02*
X00230126D01*
Y00237126D01*
X0021514D02*
X00230126D01*
D11*
X00564Y003815D02*
X005795Y00366D01*
X005205D02*
X00536Y003815D01*
X00564D01*
X005795Y003417D02*
Y00366D01*
X005205Y003417D02*
Y00366D01*
Y0029D02*
Y003183D01*
X005795Y002785D02*
Y003183D01*
X00532Y002785D02*
X005795D01*
X00304Y003815D02*
X003195Y00366D01*
X002605D02*
X00276Y003815D01*
X00304D01*
X003195Y003417D02*
Y00366D01*
X002605Y003417D02*
Y00366D01*
Y0029D02*
Y003183D01*
X003195Y002785D02*
Y003183D01*
X00272Y002785D02*
X003195D01*
X00954Y003815D02*
X009695Y00366D01*
X009105D02*
X00926Y003815D01*
X00954D01*
X009695Y003417D02*
Y00366D01*
X009105Y003417D02*
Y00366D01*
Y0029D02*
Y003183D01*
X009695Y002785D02*
Y003183D01*
X00922Y002785D02*
X009695D01*
X00694Y003815D02*
X007095Y00366D01*
X006505D02*
X00666Y003815D01*
X00694D01*
X007095Y003417D02*
Y00366D01*
X006505Y003417D02*
Y00366D01*
Y0029D02*
Y003183D01*
X007095Y002785D02*
Y003183D01*
X00662Y002785D02*
X007095D01*
X00824Y003815D02*
X008395Y00366D01*
X007805D02*
X00796Y003815D01*
X00824D01*
X008395Y003417D02*
Y00366D01*
X007805Y003417D02*
Y00366D01*
Y0029D02*
Y003183D01*
X008395Y002785D02*
Y003183D01*
X00792Y002785D02*
X008395D01*
X00434Y003815D02*
X004495Y00366D01*
X003905D02*
X00406Y003815D01*
X00434D01*
X004495Y003417D02*
Y00366D01*
X003905Y003417D02*
Y00366D01*
Y0029D02*
Y003183D01*
X004495Y002785D02*
Y003183D01*
X00402Y002785D02*
X004495D01*
X00142D02*
X001895D01*
Y003183D01*
X001305Y0029D02*
Y003183D01*
Y003417D02*
Y00366D01*
X001895Y003417D02*
Y00366D01*
X00146Y003815D02*
X00174D01*
X001305Y00366D02*
X00146Y003815D01*
X00174D02*
X001895Y00366D01*
D12*
X0053498Y00401785D02*
Y00393454D01*
X00533314Y00391788D01*
X00529982D01*
X00528316Y00393454D01*
Y00401785D01*
X00519985Y00391788D02*
Y00401785D01*
X00524983Y00396786D01*
X00518319D01*
X0092487Y00401785D02*
Y00393454D01*
X00923204Y00391788D01*
X00919872D01*
X00918205Y00393454D01*
Y00401785D01*
X00914873D02*
X00908209D01*
Y00400119D01*
X00914873Y00393454D01*
Y00391788D01*
X00795076Y00401785D02*
Y00393454D01*
X0079341Y00391788D01*
X00790078D01*
X00788411Y00393454D01*
Y00401785D01*
X00778415D02*
X00781747Y00400119D01*
X00785079Y00396786D01*
Y00393454D01*
X00783413Y00391788D01*
X00780081D01*
X00778415Y00393454D01*
Y0039512D01*
X00780081Y00396786D01*
X00785079D01*
X00665028Y00401785D02*
Y00393454D01*
X00663362Y00391788D01*
X0066003D01*
X00658363Y00393454D01*
Y00401785D01*
X00648367D02*
X00655031D01*
Y00396786D01*
X00651699Y00398452D01*
X00650033D01*
X00648367Y00396786D01*
Y00393454D01*
X00650033Y00391788D01*
X00653365D01*
X00655031Y00393454D01*
X00404932Y00401785D02*
Y00393454D01*
X00403266Y00391788D01*
X00399934D01*
X00398268Y00393454D01*
Y00401785D01*
X00394935Y00400119D02*
X00393269Y00401785D01*
X00389937D01*
X00388271Y00400119D01*
Y00398452D01*
X00389937Y00396786D01*
X00391603D01*
X00389937D01*
X00388271Y0039512D01*
Y00393454D01*
X00389937Y00391788D01*
X00393269D01*
X00394935Y00393454D01*
X00268331Y00404998D02*
Y00396668D01*
X00266665Y00395002D01*
X00263332D01*
X00261666Y00396668D01*
Y00404998D01*
X00251669Y00395002D02*
X00258334D01*
X00251669Y00401666D01*
Y00403332D01*
X00253335Y00404998D01*
X00256668D01*
X00258334Y00403332D01*
X00141534Y00401785D02*
Y00393454D01*
X00139868Y00391788D01*
X00136536D01*
X00134869Y00393454D01*
Y00401785D01*
X00131537Y00391788D02*
X00128205D01*
X00129871D01*
Y00401785D01*
X00131537Y00400119D01*
X01001666Y00253332D02*
X01003332Y00254998D01*
X01006665D01*
X01008331Y00253332D01*
Y00246668D01*
X01006665Y00245002D01*
X01003332D01*
X01001666Y00246668D01*
X00998334Y00254998D02*
X00991669D01*
Y00253332D01*
X00998334Y00246668D01*
Y00245002D01*
X00871666Y00253332D02*
X00873332Y00254998D01*
X00876665D01*
X00878331Y00253332D01*
Y00246668D01*
X00876665Y00245002D01*
X00873332D01*
X00871666Y00246668D01*
X00861669Y00254998D02*
X00865002Y00253332D01*
X00868334Y0025D01*
Y00246668D01*
X00866668Y00245002D01*
X00863335D01*
X00861669Y00246668D01*
Y00248334D01*
X00863335Y0025D01*
X00868334D01*
X00741666Y00253332D02*
X00743332Y00254998D01*
X00746665D01*
X00748331Y00253332D01*
Y00246668D01*
X00746665Y00245002D01*
X00743332D01*
X00741666Y00246668D01*
X00731669Y00254998D02*
X00738334D01*
Y0025D01*
X00735002Y00251666D01*
X00733335D01*
X00731669Y0025D01*
Y00246668D01*
X00733335Y00245002D01*
X00736668D01*
X00738334Y00246668D01*
X00611666Y00253332D02*
X00613332Y00254998D01*
X00616665D01*
X00618331Y00253332D01*
Y00246668D01*
X00616665Y00245002D01*
X00613332D01*
X00611666Y00246668D01*
X00603335Y00245002D02*
Y00254998D01*
X00608334Y0025D01*
X00601669D01*
X00481666Y00253332D02*
X00483332Y00254998D01*
X00486665D01*
X00488331Y00253332D01*
Y00246668D01*
X00486665Y00245002D01*
X00483332D01*
X00481666Y00246668D01*
X00478334Y00253332D02*
X00476668Y00254998D01*
X00473335D01*
X00471669Y00253332D01*
Y00251666D01*
X00473335Y0025D01*
X00475002D01*
X00473335D01*
X00471669Y00248334D01*
Y00246668D01*
X00473335Y00245002D01*
X00476668D01*
X00478334Y00246668D01*
X00351666Y00253332D02*
X00353332Y00254998D01*
X00356665D01*
X00358331Y00253332D01*
Y00246668D01*
X00356665Y00245002D01*
X00353332D01*
X00351666Y00246668D01*
X00341669Y00245002D02*
X00348334D01*
X00341669Y00251666D01*
Y00253332D01*
X00343335Y00254998D01*
X00346668D01*
X00348334Y00253332D01*
X0022D02*
X00221666Y00254998D01*
X00224998D01*
X00226665Y00253332D01*
Y00246668D01*
X00224998Y00245002D01*
X00221666D01*
X0022Y00246668D01*
X00216668Y00245002D02*
X00213335D01*
X00215002D01*
Y00254998D01*
X00216668Y00253332D01*
M02*
